<svg width="115" height="23" viewBox="0 0 115 23" fill="none" xmlns="http://www.w3.org/2000/svg">
<path fill-rule="evenodd" clip-rule="evenodd" d="M45.1378 10.5492C44.2226 10.5492 43.4798 11.2914 43.4798 12.2059C43.4798 13.1224 44.2226 13.8639 45.1378 13.8639C46.0536 13.8639 46.7954 13.1224 46.7954 12.2059C46.7954 11.2914 46.0536 10.5492 45.1378 10.5492ZM112.597 9.33276C113.684 9.33276 114.479 9.94117 115 10.5492V7.61155C114.146 7.03257 113.118 6.80078 112.223 6.80078C109.475 6.80078 107.087 8.7685 107.087 12.1537C107.087 15.3951 109.257 17.508 112.266 17.508C113.134 17.508 114.088 17.3766 115 16.7554V13.8743C114.479 14.4108 113.656 14.9757 112.597 14.9757C110.978 14.9757 110.008 13.7753 110.008 12.2407C110.008 10.5767 111.035 9.33276 112.597 9.33276ZM107.398 7.09077H104.07L101.017 11.3436V7.09077H98.1815L98.1825 17.2183H101.017V12.8625L103.953 17.2183H107.499L103.549 11.9948L107.398 7.09077ZM89.8083 13.1675V7.09077H87.0739V17.2183H89.8518L93.7728 11.1413V17.2183H96.5072V7.09077H93.7287L89.8083 13.1675ZM81.5916 11.6473H80.7828V9.31905H81.5916C82.807 9.31905 82.98 9.96927 82.98 10.476C82.98 10.9098 82.8502 11.6473 81.5916 11.6473ZM82.213 7.09077H77.9458V17.2183H80.7828V13.8743H82.213C85.0785 13.8743 85.9033 11.8801 85.9033 10.476C85.9033 9.08659 85.0928 7.09077 82.213 7.09077ZM69.4976 9.5204H71.7242V17.2183H74.5609V9.5204H76.7882V7.09077H69.4976V9.5204ZM61.6404 13.1675V7.09077H58.9068V17.2183H61.6853L65.6043 11.1413V17.2183H68.3393V7.09077H65.5622L61.6404 13.1675ZM53.1919 15.1914H51.9771V13.0655H53.1919C54.0893 13.0655 54.6104 13.3264 54.6104 14.1228C54.6104 14.9322 54.0753 15.1914 53.1919 15.1914ZM53.4675 11.0399H51.9771V9.5204H56.621V7.09077H49.1418L49.1414 17.2184L53.4675 17.2183C54.2044 17.2183 57.4458 17.2464 57.4458 14.079C57.4458 11.0255 54.2342 11.0399 53.4675 11.0399ZM33.2709 12.1537C33.2709 15.3951 35.441 17.508 38.4499 17.508C39.3189 17.508 40.2735 17.3766 41.1853 16.7554V13.8743C40.6628 14.4108 39.8383 14.9757 38.7827 14.9757C37.1619 14.9757 36.1932 13.7753 36.1932 12.2407C36.1932 10.5767 37.2201 9.33276 38.7827 9.33276C39.8674 9.33276 40.6628 9.94117 41.1853 10.5492V7.61155C40.3297 7.03257 39.3035 6.80078 38.4065 6.80078C35.6574 6.80078 33.2709 8.7685 33.2709 12.1537ZM27.334 9.41972H28.8829V17.2183H31.5019V7.09077H27.334V9.41972Z" fill="#231F20"/>
<path fill-rule="evenodd" clip-rule="evenodd" d="M11.1343 0C10.3048 0 9.49809 0.0933186 8.72077 0.265908V11.1427C8.72077 12.4756 9.80748 13.5626 11.1407 13.5626C12.4733 13.5626 13.5596 12.4756 13.5596 11.1434C13.5596 9.86301 12.5592 8.81209 11.3016 8.72847V6.79152C13.6255 6.87581 15.4956 8.79837 15.4956 11.1434C15.4956 13.5416 13.5392 15.4989 11.1407 15.4989C8.74118 15.4989 6.78517 13.5416 6.78517 11.1427V0.881342C6.51023 0.998074 6.24164 1.12752 5.97841 1.26666V11.1427C5.97875 13.9854 8.298 16.3037 11.1407 16.3037C13.9837 16.3037 16.302 13.9854 16.302 11.1434C16.302 8.35419 14.071 6.07006 11.3016 5.9841V4.04782C15.1367 4.13445 18.2369 7.28855 18.2369 11.1434C18.2369 15.0527 15.049 18.2399 11.1407 18.2399C7.23136 18.2399 4.04247 15.0527 4.04247 11.1427V2.55104C1.57404 4.59235 0 7.67922 0 11.1343C0 17.2837 4.98502 22.27 11.1347 22.27C17.2853 22.27 22.269 17.2837 22.269 11.1343C22.269 4.98502 17.2853 0 11.1343 0Z" fill="#D91935"/>
</svg>
