<svg width="32" height="32" viewBox="0 0 32 32" fill="none" xmlns="http://www.w3.org/2000/svg">
<g clip-path="url(#clip0_562_1916)">
<path d="M12.9118 31.8155C10.1129 31.2368 7.50115 29.9458 5.45081 28.1276C0.187089 23.4598 -1.43969 16.1269 1.34102 9.60218C2.02389 7.9999 3.13405 6.37381 4.50957 4.96111L5.72226 3.71565L5.80779 11.0053C5.88966 17.9828 5.90811 18.3342 6.23866 19.2135C6.89997 20.9725 7.60893 22.0925 8.82942 23.3061C11.9821 26.4411 16.6065 27.2235 20.5377 25.2871C24.2327 23.4669 26.5622 19.5091 26.2915 15.5114C26.1096 12.8261 25.2052 10.857 23.2525 8.89508C21.776 7.41156 20.0388 6.44253 18.1475 6.04741C16.2233 5.6454 16.3156 5.58666 16.3156 7.21295V8.61697L17.3705 8.81105C21.456 9.56269 24.158 13.5684 23.3065 17.6111C23.0345 18.9022 22.4278 20.0424 21.454 21.0927C19.974 22.6888 17.8919 23.4517 16.0738 23.4482C13.0676 23.4424 10.5574 21.7367 9.34073 19.2143C9.34073 19.2143 9.02202 18.4933 8.9196 18.0478C8.31728 15.4277 8.70228 9.91225 8.70228 9.91225L8.65563 1.84771L9.13244 1.60152C9.39468 1.46612 9.64619 1.35533 9.69135 1.35533C9.7365 1.35533 9.79382 5.05937 9.81873 9.58653C9.81873 9.58653 9.23972 15.521 9.95524 17.7952C10.0585 18.1233 10.2545 18.6845 10.2545 18.6845C10.8817 19.9605 11.887 21.0828 13.1932 21.7006C14.1847 22.1696 14.6839 22.3818 16.1508 22.3818C17.1092 22.3818 17.9583 22.0797 18.9352 21.6311C20.0869 21.1022 21.4081 19.7 21.8963 18.4197C23.2414 14.8923 21.3684 11.0973 17.7602 10.0391C16.2855 9.60662 16.3156 9.5828 16.3156 11.1839V12.5824L17.0235 12.7714C19.575 13.4528 20.3535 16.8676 18.3505 18.6222C17.6428 19.2422 17.0051 19.5162 15.8896 19.5162C14.6977 19.5162 13.5535 18.7958 12.9653 17.6909C12.612 17.0272 12.5821 16.3977 12.5821 16.1094C12.5821 13.446 12.5244 8.65599 12.5244 8.65599L12.4766 0.439434L12.843 0.348588C13.0444 0.298622 13.8587 0.174987 14.6525 0.0738425C17.3446 -0.269181 21.3275 0.610503 24.0032 2.13912C27.6511 4.22314 30.4114 7.8032 31.5606 11.9412C31.9559 13.3645 32 13.7784 32 16.0681C32 18.3476 31.9549 18.7751 31.568 20.1674C30.0049 25.7914 26.0287 29.8118 20.3433 31.5169C19.1468 31.8757 18.5862 31.9442 16.4749 31.9891C14.771 32.0254 13.6667 31.9716 12.9118 31.8155Z" fill="#EF1519"/>
</g>
<defs>
<clipPath id="clip0_562_1916">
<rect width="32" height="32" fill="white"/>
</clipPath>
</defs>
</svg>
