<svg width="94" height="106" viewBox="0 0 94 106" fill="none" xmlns="http://www.w3.org/2000/svg">
<mask id="mask0_2_1780" style="mask-type:luminance" maskUnits="userSpaceOnUse" x="18" y="0" width="58" height="58">
<path fill-rule="evenodd" clip-rule="evenodd" d="M32.3808 0.0262649L34.8565 0L60.6073 0.0105073C60.9983 0.0140094 61.242 0.0192606 61.484 0.0262649C62.7604 0.0595351 64.0491 0.133081 65.3114 0.358968C66.576 0.572051 67.802 0.97095 68.9495 1.54269C70.0927 2.11704 71.1412 2.86649 72.0476 3.76478C72.9545 4.65881 73.7138 5.69073 74.2971 6.82214C74.8933 7.97259 75.2667 9.15105 75.4964 10.4153C75.7243 11.6621 75.7997 12.9334 75.833 14.1941C75.8506 14.772 75.8576 15.3498 75.8593 15.9294L75.8628 16.9608V39.7894C75.8628 40.4758 75.8628 41.164 75.8593 41.8522C75.8558 42.43 75.8506 43.0079 75.833 43.5857C75.798 44.8465 75.7243 46.1195 75.4964 47.3645C75.28 48.6157 74.8757 49.8271 74.2971 50.9577C73.7134 52.0894 72.9542 53.1219 72.0476 54.0168C71.1377 54.9148 70.0923 55.6646 68.9495 56.2389C67.802 56.8107 66.576 57.2096 65.3114 57.4226C64.0491 57.6467 62.7604 57.7203 61.484 57.7553L57.6372 57.7851L33.2557 57.7711C32.964 57.7679 32.6724 57.7621 32.3808 57.7535C31.1044 57.722 29.8157 57.6467 28.5533 57.4226C27.2894 57.2095 26.0639 56.8106 24.917 56.2389C22.6211 55.0849 20.7485 53.2368 19.5659 50.9577C18.9881 49.8267 18.5839 48.6155 18.3666 47.3645C18.1387 46.1195 18.0651 44.8465 18.0317 43.5875C18.0142 43.0096 18.009 42.43 18.0054 41.8522L18.0002 40.8173V17.9922C18.0002 17.3058 18.0002 16.6176 18.0054 15.9312C18.009 15.3533 18.016 14.7755 18.0317 14.1959C18.0668 12.9351 18.1404 11.6638 18.3666 10.4171C18.5837 9.16607 18.988 7.95479 19.5659 6.82389C20.7467 4.54415 22.6191 2.69565 24.9152 1.54269C26.0628 0.970926 27.2888 0.572026 28.5533 0.358968C29.8157 0.134832 31.1044 0.0612861 32.3808 0.0262649Z" fill="white"/>
</mask>
<g mask="url(#mask0_2_1780)">
<path d="M17.6084 -0.00390625H76.6894V59.0014H17.6084V-0.00390625Z" fill="#19AA1E"/>
<path fill-rule="evenodd" clip-rule="evenodd" d="M17.6084 -0.00390625H76.6894V19.3552L17.6084 10.1369V-0.00390625Z" fill="#FFB919"/>
<path fill-rule="evenodd" clip-rule="evenodd" d="M17.6084 52.5445L76.6894 43.3262V58.9987H17.6084V52.5445Z" fill="#82D714"/>
<path fill-rule="evenodd" clip-rule="evenodd" d="M17.6084 8.97266L38.2312 12.1908C40.7983 10.5674 43.8523 9.67708 47.148 9.67708C51.7129 9.67708 55.816 11.3845 58.802 14.381C59.178 14.76 59.5324 15.1551 59.8672 15.5664L76.6894 18.191V20.5241L61.575 18.1641C62.7062 20.3239 63.2988 22.7245 63.3025 25.1619C63.3025 28.3229 62.5954 31.4749 61.131 34.6394L61.0881 34.736L60.4651 36.0662H58.9971C55.961 36.0662 53.9489 36.9726 52.6313 38.5799C51.5984 39.8404 51.0005 41.5424 50.8 43.3983L50.7928 43.4555L50.7642 43.7523L50.7516 43.881L50.7266 44.1331C50.6496 44.9627 50.5995 45.6653 50.5726 46.2374L76.6894 42.1611V44.4942L17.6084 53.7143V51.3811L43.7538 47.3012L43.7431 46.7774L43.7395 46.6307L43.7359 46.5539L43.7324 46.4377C43.7091 45.803 43.65 44.9895 43.5569 44.0026L43.539 43.8148L43.5068 43.4912C43.3206 41.6247 42.7317 39.903 41.6987 38.6228C40.3973 37.0048 38.4048 36.0841 35.392 36.0662H33.8309L33.2097 34.736C31.7167 31.5393 30.9935 28.3551 30.9935 25.1619C30.9935 21.1463 32.6244 17.263 35.4958 14.381L35.7464 14.1361L17.6084 11.3041V8.97266Z" fill="white"/>
<path fill-rule="evenodd" clip-rule="evenodd" d="M47.1478 11.9805C55.3969 11.9805 60.9947 18.3203 60.9947 25.1607C60.9947 27.9069 60.395 30.7639 58.9951 33.7604C50.8803 33.7604 48.8771 39.5639 48.4975 43.2183L48.4725 43.4596C48.3454 44.7648 48.2702 45.8107 48.2505 46.5974L46.0522 46.9407V46.8691C46.0216 45.7072 45.9427 44.5471 45.8159 43.3917L45.8105 43.3273C45.4596 39.6819 43.4994 33.7604 35.3022 33.7604C33.9005 30.7639 33.3008 27.9069 33.3008 25.1607C33.3008 18.3203 38.9004 11.9805 47.1478 11.9805Z" fill="#0073FA"/>
</g>
<path fill-rule="evenodd" clip-rule="evenodd" d="M10.7583 80C4.58793 80 -0.0385943 83.6642 0.000242701 90.0279H5.73486C5.65597 87.4824 7.31628 85.0133 10.7583 85.0133C13.3677 85.0133 15.0292 86.7103 15.0292 88.8703C15.0292 91.1079 13.2087 92.3418 10.2837 93.7309C6.44729 95.543 4.15344 96.3915 0.000242701 97.7406V105.069H21.3561V100.055H7.75199C9.73392 99.2485 11.6637 98.3636 13.4077 97.5479C18.0342 95.3891 20.7626 92.9588 20.7626 88.6012C20.7626 83.3552 16.7295 80 10.7583 80ZM30.0569 85.3988H41.1305V80.3855H24.5201V105.069H30.0569V85.3988ZM49.8313 80.3855H44.2945V105.069H49.7913L60.1136 89.2945V105.069H65.6504V80.3855H60.1136L49.8313 96.16V80.3855ZM93.4532 95.8121H87.7186C86.8484 98.5515 84.199 100.441 81.075 100.441C76.5261 100.441 73.5599 96.623 73.5599 92.7273C73.5599 88.8315 76.4472 85.0133 81.2327 85.0133C84.3968 85.0133 86.8484 86.9042 87.7186 89.6424H93.4532C92.6231 84.1273 88.1543 80 81.075 80C73.2443 80 68.0231 85.3612 68.0231 92.7273C68.0231 100.093 73.2443 105.455 81.075 105.455C88.1543 105.455 92.6231 101.406 93.4532 95.8121Z" fill="#3B3737"/>
</svg>
