<svg width="24" height="24" viewBox="0 0 24 24" fill="none" xmlns="http://www.w3.org/2000/svg">
<path d="M3.54948 12.6416C3.83183 12.4403 3.9187 12.0669 3.81011 11.7358C3.6974 11.3923 3.40919 11.1598 3.04231 11.1534C2.38664 11.1422 1.72979 11.1657 1.07411 11.1411C0.547571 11.1211 0.185393 11.3119 0.000488281 11.8121V12.1872C0.155456 12.5659 0.395538 12.8448 0.839896 12.8483C1.56601 12.8548 2.29272 12.863 3.01883 12.8407C3.19904 12.8354 3.3998 12.7479 3.55007 12.6411L3.54948 12.6416Z" fill="white"/>
<path d="M10.9417 23.4341C11.1349 23.7411 11.4436 23.8826 11.7676 24H12.2367C12.6616 23.8491 13.0361 23.6425 13.187 23.1658H10.795C10.8543 23.2744 10.8936 23.3572 10.9423 23.4341H10.9417Z" fill="white"/>
<path d="M11.0238 6.51401C7.97381 7.04473 5.91638 10.0559 6.53625 13.0759C6.78103 14.27 7.378 15.2592 8.22856 16.1193C8.87896 16.7774 9.25757 17.5852 9.37556 18.5029C9.42604 18.8944 9.42663 19.2919 9.45128 19.6999H14.5764C14.5764 19.5085 14.5781 19.3306 14.5764 19.1533C14.5693 18.625 14.6615 18.1142 14.8352 17.6152C15.0906 16.8796 15.5866 16.3148 16.0996 15.7512C17.3546 14.3704 17.8119 12.7377 17.4615 10.9148C16.8891 7.93593 14.0193 5.99385 11.0244 6.51518L11.0238 6.51401Z" fill="white"/>
<path d="M9.85907 20.5874C9.85907 21.0218 9.84557 21.4422 9.86376 21.8608C9.8755 22.1279 10.0369 22.2776 10.3058 22.2794C11.4375 22.2864 12.5687 22.2864 13.7004 22.2794C13.961 22.2776 14.123 22.1361 14.1353 21.8813C14.1559 21.4551 14.1406 21.0277 14.1406 20.588H9.85907V20.5874Z" fill="white"/>
<path d="M5.25523 17.7664C5.14253 17.8286 4.91125 17.9049 4.75041 18.0552C4.24266 18.529 3.75663 19.0262 3.27176 19.5235C2.91604 19.8887 2.91311 20.4071 3.24652 20.7423C3.57818 21.0758 4.10354 21.0775 4.47218 20.7394C4.63888 20.5867 4.79444 20.4217 4.95351 20.2609C5.31569 19.8945 5.68902 19.5382 6.03359 19.1566C6.27602 18.8883 6.29481 18.5589 6.13162 18.2384C5.97724 17.9354 5.71016 17.7898 5.25582 17.7664H5.25523Z" fill="white"/>
<path d="M19.126 17.9492C18.8172 17.6633 18.3142 17.7297 18.0201 18.0302C17.7301 18.3267 17.6655 18.8169 17.9449 19.1187C18.4844 19.7028 19.0491 20.2647 19.6285 20.8095C19.8809 21.0467 20.2131 21.0526 20.5289 20.8999C20.8394 20.7496 20.9809 20.4854 21.0108 20.0621C20.9686 19.9635 20.9357 19.7574 20.8171 19.6336C20.2683 19.0576 19.7101 18.4893 19.126 17.9492Z" fill="white"/>
<path d="M11.9896 3.84844C12.4744 3.85372 12.839 3.49795 12.8519 2.99306C12.8607 2.64198 12.8536 2.29032 12.8536 1.93865H12.8548C12.8548 1.59521 12.8548 1.25118 12.8548 0.907733C12.8548 0.891882 12.8548 0.876617 12.8536 0.860766C12.8349 0.367028 12.4838 0.00714554 12.0142 0.000100524C11.5358 -0.00694449 11.1596 0.357048 11.1525 0.859592C11.1431 1.57055 11.1431 2.28151 11.1525 2.99247C11.159 3.48797 11.5176 3.84374 11.9896 3.84844Z" fill="white"/>
<path d="M4.75638 5.96147C5.11563 6.30962 5.6451 6.30609 5.9791 5.9738C6.31839 5.63682 6.31956 5.12312 5.96267 4.75619C5.47311 4.25188 4.98062 3.74993 4.46875 3.26911C4.31379 3.12351 4.08897 3.05188 3.97098 2.9873C3.51253 3.02312 3.23606 3.17048 3.08461 3.50276C2.92495 3.85443 2.98717 4.18202 3.24956 4.45325C3.74322 4.96402 4.24628 5.46656 4.75638 5.96089V5.96147Z" fill="white"/>
<path d="M18.713 6.22601C18.8116 6.18492 19.0188 6.15439 19.1439 6.0358C19.7156 5.49451 20.2785 4.94206 20.8145 4.36554C21.1062 4.05204 21.0528 3.56124 20.7575 3.25713C20.457 2.94773 19.9527 2.88902 19.6322 3.18668C19.0558 3.7221 18.5005 4.28276 17.9599 4.85517C17.728 5.10057 17.7133 5.42112 17.8601 5.73169C18.0121 6.05282 18.2827 6.19725 18.7136 6.22601H18.713Z" fill="white"/>
<path d="M23.1289 11.1479C22.7773 11.1403 22.4257 11.1462 22.0741 11.1468C21.7225 11.1468 21.3709 11.1403 21.0193 11.1485C20.5103 11.1597 20.1517 11.5166 20.1523 11.9992C20.1523 12.4818 20.5109 12.8428 21.0199 12.8487C21.7231 12.8575 22.4263 12.8575 23.1289 12.8487C23.6361 12.8428 24.0006 12.4771 24.0006 11.9986C24.0006 11.5201 23.6355 11.1591 23.1284 11.1479H23.1289Z" fill="white"/>
</svg>
