<svg width="55" height="55" viewBox="0 0 55 55" fill="none" xmlns="http://www.w3.org/2000/svg">
<path fill-rule="evenodd" clip-rule="evenodd" d="M27.5 55C42.6882 55 55 42.6882 55 27.5C55 12.3118 42.6882 0 27.5 0C12.3118 0 0 12.3118 0 27.5C0 42.6882 12.3118 55 27.5 55ZM37.224 17.776C37.7404 17.2604 38.4404 16.971 39.1702 16.9715C39.8999 16.972 40.5996 17.2624 41.1152 17.7788C41.6309 18.2951 41.9203 18.9952 41.9198 19.7249C41.9193 20.4547 41.6289 21.1544 41.1125 21.67L25.5667 37.2158L25.5557 37.2267C25.301 37.483 24.998 37.6864 24.6643 37.8251C24.3307 37.9639 23.9729 38.0353 23.6115 38.0353C23.2501 38.0353 22.8923 37.9639 22.5587 37.8251C22.225 37.6864 21.922 37.483 21.6672 37.2267L21.6562 37.2158L13.8875 29.447C13.6248 29.1933 13.4153 28.8899 13.2712 28.5544C13.1271 28.2189 13.0512 27.858 13.0481 27.4929C13.0449 27.1277 13.1145 26.7656 13.2527 26.4276C13.391 26.0897 13.5952 25.7826 13.8534 25.5244C14.1116 25.2662 14.4187 25.062 14.7566 24.9237C15.0946 24.7855 15.4567 24.7159 15.8219 24.7191C16.187 24.7222 16.5479 24.7981 16.8834 24.9422C17.2189 25.0863 17.5223 25.2958 17.776 25.5585L23.6115 31.3913L37.224 17.7788V17.776Z" fill="#0C5ADB"/>
</svg>
