<svg width="12" height="10" viewBox="0 0 12 10" fill="none" xmlns="http://www.w3.org/2000/svg">
<path fill-rule="evenodd" clip-rule="evenodd" d="M10.885 0.699612C10.5795 0.750706 10.7484 0.593721 7.41036 3.9282L4.32247 7.01276L2.91036 5.60475C1.33771 4.03662 1.39623 4.08521 1.04439 4.0557C0.259277 3.98989 -0.274606 4.86553 0.149753 5.52307C0.288456 5.73799 3.75601 9.17194 3.90062 9.23759C4.18285 9.3657 4.4758 9.36237 4.76516 9.22782C5.0117 9.11316 11.8036 2.31757 11.9211 2.06801C12.2552 1.35816 11.6586 0.57019 10.885 0.699612Z" fill="white"/>
<path fill-rule="evenodd" clip-rule="evenodd" d="M10.885 0.699612C10.5795 0.750706 10.7484 0.593721 7.41036 3.9282L4.32247 7.01276L2.91036 5.60475C1.33771 4.03662 1.39623 4.08521 1.04439 4.0557C0.259277 3.98989 -0.274606 4.86553 0.149753 5.52307C0.288456 5.73799 3.75601 9.17194 3.90062 9.23759C4.18285 9.3657 4.4758 9.36237 4.76516 9.22782C5.0117 9.11316 11.8036 2.31757 11.9211 2.06801C12.2552 1.35816 11.6586 0.57019 10.885 0.699612Z" fill="white"/>
</svg>
