<svg width="25" height="25" viewBox="0 0 25 25" fill="none" xmlns="http://www.w3.org/2000/svg">
<path d="M14.4814 1.43829C14.4291 1.46165 14.3811 1.49361 14.3394 1.53284L1.98829 13.8757C0.77781 15.0463 0.0670379 16.639 0.00450441 18.3208C-0.0580291 20.0027 0.532515 21.6437 1.65273 22.9008C2.23942 23.5472 2.95242 24.0668 3.7478 24.4275C4.54318 24.7882 5.40407 24.9824 6.27742 24.998H6.4366C7.28321 25.0006 8.1219 24.8351 8.90398 24.5112C9.68606 24.1874 10.396 23.7115 10.9925 23.1113L23.4684 10.6482C23.5073 10.6095 23.5367 10.5625 23.5544 10.5106C24.5612 9.27328 25.0732 7.70707 24.9915 6.11459C24.9098 4.52212 24.2402 3.0164 23.1121 1.88834C21.984 0.760283 20.4773 0.0899384 18.8833 0.00681754C17.2893 -0.0763033 15.721 0.433699 14.4814 1.43829ZM21.4335 9.03654L12.6832 17.778L12.6358 17.8209C12.2964 18.1392 11.8547 18.3265 11.3897 18.3493C10.9247 18.3722 10.4667 18.2291 10.0976 17.9456C9.89687 17.7833 9.73146 17.5818 9.61158 17.3533C9.49169 17.1248 9.41987 16.8743 9.40052 16.617C9.38118 16.3598 9.41473 16.1013 9.4991 15.8575C9.58348 15.6137 9.71689 15.3897 9.89114 15.1994L17.1272 7.96213C17.3691 7.71992 17.5047 7.39164 17.5043 7.04951C17.5039 6.70737 17.3675 6.37941 17.125 6.13777C16.8826 5.89614 16.5539 5.76061 16.2115 5.76101C15.869 5.76142 15.5407 5.89772 15.2988 6.13992L7.98533 13.4459C7.95908 13.4723 7.93728 13.5028 7.9208 13.5362C7.17125 14.3891 6.77498 15.4952 6.81254 16.6296C6.8501 17.764 7.31867 18.8415 8.123 19.6431C8.58792 20.1079 9.14876 20.4658 9.76638 20.6918L9.27164 21.186C8.5768 21.8966 7.63988 22.3202 6.64688 22.3728C5.65388 22.4253 4.67741 22.103 3.9113 21.4696C3.50867 21.1231 3.18286 20.6964 2.9547 20.2168C2.72655 19.7373 2.60106 19.2155 2.58627 18.6848C2.56762 18.1553 2.65804 17.6277 2.85193 17.1346C3.04582 16.6415 3.33903 16.1935 3.7134 15.8182L15.9312 3.61291L16.0904 3.47538C16.7961 2.86829 17.6973 2.53567 18.6286 2.53849C18.781 2.53852 18.9332 2.54713 19.0846 2.56428C19.6213 2.62519 20.139 2.79872 20.6039 3.0735C21.0687 3.34827 21.4702 3.71809 21.782 4.15871C22.2756 4.89455 22.5093 5.77387 22.4462 6.6574C22.3831 7.54094 22.0267 8.37818 21.4335 9.03654Z" fill="#232323"/>
</svg>
