<svg width="55" height="55" viewBox="0 0 55 55" fill="none" xmlns="http://www.w3.org/2000/svg">
<path d="M27.5 2.21258e-06C22.061 2.21258e-06 16.7442 1.61285 12.2218 4.63459C7.69948 7.65632 4.17473 11.9512 2.09332 16.9762C0.0119153 22.0012 -0.532676 27.5305 0.528417 32.865C1.58951 38.1995 4.20863 43.0995 8.05457 46.9454C11.9005 50.7914 16.8005 53.4105 22.135 54.4716C27.4695 55.5327 32.9988 54.9881 38.0238 52.9067C43.0488 50.8253 47.3437 47.3005 50.3654 42.7782C53.3872 38.2558 55 32.939 55 27.5C55.0014 23.8882 54.2911 20.3116 52.9096 16.9745C51.5282 13.6374 49.5026 10.6052 46.9487 8.05133C44.3948 5.49743 41.3626 3.47185 38.0255 2.09036C34.6884 0.708873 31.1118 -0.00144684 27.5 2.21258e-06ZM41.5146 41.4815C41.3618 41.6362 41.1798 41.7591 40.9792 41.8429C40.7786 41.9267 40.5633 41.9699 40.3458 41.9699C40.1284 41.9699 39.9131 41.9267 39.7125 41.8429C39.5118 41.7591 39.3298 41.6362 39.177 41.4815L27.8749 30.1905C27.761 30.1963 27.6469 30.1963 27.5331 30.1905C26.9735 30.1929 26.4271 30.02 25.9707 29.6961C25.5143 29.3722 25.1708 28.9136 24.9884 28.3845C24.8059 27.8554 24.7937 27.2825 24.9535 26.7462C25.1132 26.2098 25.4369 25.737 25.8791 25.3939V12.515C25.8791 12.0764 26.0534 11.6557 26.3636 11.3455C26.6737 11.0353 27.0944 10.8611 27.5331 10.8611C27.9717 10.8611 28.3924 11.0353 28.7026 11.3455C29.0128 11.6557 29.1871 12.0764 29.1871 12.515V25.427C29.5134 25.6792 29.7768 26.0036 29.9566 26.3748C30.1365 26.746 30.2278 27.1537 30.2235 27.5662C30.2289 27.6653 30.2289 27.7647 30.2235 27.8639L41.5146 39.1439C41.6693 39.2968 41.7921 39.4788 41.876 39.6794C41.9598 39.88 42.003 40.0953 42.003 40.3127C42.003 40.5302 41.9598 40.7455 41.876 40.9461C41.7921 41.1467 41.6693 41.3287 41.5146 41.4815Z" fill="#0C5ADB"/>
</svg>
