<svg width="22" height="18" viewBox="0 0 22 18" fill="none" xmlns="http://www.w3.org/2000/svg">
<path d="M18.7 -0.00195312H3.3C2.42479 -0.00195312 1.58542 0.345725 0.966548 0.964595C0.347678 1.58346 0 2.42283 0 3.29805V14.298C0 15.1733 0.347678 16.0126 0.966548 16.6315C1.58542 17.2504 2.42479 17.598 3.3 17.598H18.7C19.5752 17.598 20.4146 17.2504 21.0335 16.6315C21.6523 16.0126 22 15.1733 22 14.298V3.29805C22 2.42283 21.6523 1.58346 21.0335 0.964595C20.4146 0.345725 19.5752 -0.00195312 18.7 -0.00195312ZM18.7 2.19805L11.55 7.11505C11.3828 7.21159 11.1931 7.26242 11 7.26242C10.8069 7.26242 10.6172 7.21159 10.45 7.11505L3.3 2.19805H18.7Z" fill="white"/>
</svg>
