<svg width="20" height="17" viewBox="0 0 20 17" fill="none" xmlns="http://www.w3.org/2000/svg">
<path d="M17 0.609375H3C2.20435 0.609375 1.44129 0.925446 0.87868 1.48805C0.316071 2.05066 0 2.81373 0 3.60938V13.6094C0 14.405 0.316071 15.1681 0.87868 15.7307C1.44129 16.2933 2.20435 16.6094 3 16.6094H17C17.7956 16.6094 18.5587 16.2933 19.1213 15.7307C19.6839 15.1681 20 14.405 20 13.6094V3.60938C20 2.81373 19.6839 2.05066 19.1213 1.48805C18.5587 0.925446 17.7956 0.609375 17 0.609375ZM17 2.60938L10.5 7.07938C10.348 7.16714 10.1755 7.21335 10 7.21335C9.82446 7.21335 9.65202 7.16714 9.5 7.07938L3 2.60938H17Z" fill="#232323"/>
</svg>
