<svg width="143" height="149" viewBox="0 0 143 149" fill="none" xmlns="http://www.w3.org/2000/svg">
<path d="M115.48 47.8608L124.33 42.7208C119.34 39.8408 114.82 39.5708 111.55 41.4708L102.7 46.6108C105.96 44.7108 110.49 44.9808 115.48 47.8608Z" fill="url(#paint0_linear_2_4096)"/>
<path d="M115.48 47.8609L124.33 42.7209C134.25 48.4509 142.26 62.3209 142.23 73.7209C142.21 79.3809 140.22 83.3609 136.99 85.2409L128.14 90.3809C131.36 88.5109 133.36 84.5209 133.38 78.8609C133.41 67.4709 125.4 53.5909 115.48 47.8609Z" fill="url(#paint1_linear_2_4096)"/>
<path d="M115.48 47.8608C125.4 53.5908 133.41 67.4608 133.38 78.8608C133.35 90.2508 125.28 94.8508 115.37 89.1208C105.45 83.4008 97.4401 69.5208 97.4701 58.1208C97.5001 46.7308 105.57 42.1308 115.48 47.8608Z" fill="url(#paint2_linear_2_4096)"/>
<path d="M114.66 53.6509C107.31 49.4009 101.33 52.8109 101.3 61.2609C101.28 69.7109 107.22 80.0009 114.57 84.2509C121.92 88.5009 127.9 85.0909 127.93 76.6409C127.96 68.1909 122.01 57.9009 114.66 53.6509Z" fill="url(#paint3_linear_2_4096)"/>
<path d="M118.45 33.1408L106.72 26.3208C106.79 26.5808 109 33.8808 109.78 46.5308C111.65 47.2008 117.36 50.0708 121.51 53.4008C120.74 40.7208 118.52 33.4008 118.45 33.1408Z" fill="#919BBD"/>
<path d="M108.53 18.4806L96.8001 11.6606C101.61 14.4506 105.12 19.4106 106.72 26.3206L118.45 33.1406C116.85 26.2206 113.34 21.2706 108.53 18.4806Z" fill="#969696"/>
<path d="M91.5401 8.27076C97.7301 6.50076 103.6 6.33076 108.71 7.87076C117.03 10.3708 122.89 17.2608 125.24 27.2908C125.54 28.2808 127.43 34.9508 128.32 46.2708C128.35 46.7008 128.68 46.6508 128.51 47.0808C125.19 48.4108 121.5 53.2808 121.5 53.2808C120.72 40.6808 118.52 33.4108 118.45 33.1508C115.3 19.5208 104.7 13.5208 91.4701 16.6308C91.4601 13.8408 91.4901 11.0608 91.5501 8.27076H91.5401Z" fill="#B7B3B6"/>
<path d="M108.47 49.8507C97.7601 43.6707 89.0501 48.6307 89.0201 60.9407C88.9901 73.2407 97.6401 88.2307 108.35 94.4107C119.06 100.591 127.77 95.6307 127.8 83.3207C127.83 71.0207 119.18 56.0307 108.47 49.8507Z" fill="#45414A"/>
<path d="M99.9801 45.4107C103.51 43.3607 108.39 43.6507 113.78 46.7607C124.49 52.9407 133.14 67.9307 133.11 80.2307C133.09 86.3407 130.93 90.6407 127.45 92.6707L122.14 95.7607C125.62 93.7407 127.78 89.4407 127.8 83.3207C127.83 71.0207 119.18 56.0307 108.47 49.8507C103.08 46.7407 98.2001 46.4507 94.6701 48.5007L99.9801 45.4107Z" fill="url(#paint4_linear_2_4096)"/>
<path d="M121.5 117C120.85 116.15 120.2 115.29 119.55 114.44C120.39 115.53 121.28 116.56 122.21 117.52L123.34 119.14C122.71 118.5 122.1 117.78 121.5 117Z" fill="#B6CEF4"/>
<path d="M92.21 115.32L77.5 106.77C75.98 105.88 74.53 104.86 73.16 103.71L87.87 112.26C89.24 113.41 90.69 114.44 92.21 115.32Z" fill="#B6CEF4"/>
<path d="M106.85 119.79C105.5 119.56 104.15 119.33 102.8 119.11C97.16 118.16 92.11 115.85 87.86 112.27L91.65 112.76C96.06 116.48 101.18 118.84 106.85 119.8V119.79Z" fill="#0C5ADB"/>
<path d="M88.77 15.3103C90.07 15.5403 91.38 15.7703 92.68 16.0003C85.17 14.6803 75.74 16.7603 65.51 22.6603L62.14 21.8403C72.18 16.0503 81.41 14.0203 88.76 15.3103H88.77Z" fill="#B6CEF4"/>
<path d="M99.56 18.4502L114.27 27.0002C106.12 22.2602 93.89 23.3202 80.23 31.2002L65.52 22.6502C79.18 14.7602 91.41 13.7102 99.56 18.4502Z" fill="#0C5ADB"/>
<path d="M119.26 31.2303C120.11 32.2503 120.95 33.2703 121.8 34.2903C114.46 25.4303 100.12 24.7703 83.6 34.3003L80.22 31.1903C97.06 21.4703 111.72 22.1303 119.25 31.2203L119.26 31.2303Z" fill="#0C5ADB"/>
<path d="M26.73 108.55C25.88 107.53 25.04 106.51 24.19 105.49C20.88 101.49 18.99 95.8203 18.97 88.6503C18.89 65.6403 38.17 35.6903 62.15 21.8403L65.52 22.6603C41.06 36.7803 21.28 67.4703 21.35 91.1903C21.37 98.5903 23.32 104.44 26.73 108.55Z" fill="#B6CEF4"/>
<path d="M46.43 121.33L31.72 112.78C25.27 109.03 21.38 101.66 21.35 91.1801C21.28 67.4501 41.06 36.7701 65.52 22.6501L80.23 31.2001C55.77 45.3201 35.99 76.0101 36.06 99.7301C36.09 110.21 39.98 117.58 46.43 121.33Z" fill="#0C5ADB"/>
<path d="M83.61 34.3102C107.59 20.4802 126.97 28.1102 127.02 51.1302C127.06 63.2502 121.74 77.2802 112.73 90.5502L113.11 93.6002C114.54 105.09 118.6 114.31 123.33 119.15L125.04 118.52C111.98 122.15 100.41 120.15 91.65 112.76C88.73 114.92 86.26 116.51 83.84 117.95C59.86 131.78 40.48 124.15 40.43 101.13C40.35 78.1202 59.63 48.1702 83.61 34.3202V34.3102Z" fill="#B6CEF4"/>
<path d="M100.87 75.3502L97.13 77.4602C96.71 79.0502 96.15 80.6402 95.49 82.2102L97.49 84.9302C96.13 87.7202 94.49 90.4102 92.62 92.8702L89.75 91.7002C88.51 93.2102 87.18 94.5902 85.77 95.7902L85.16 100.5C84.1 101.31 83.02 102.04 81.91 102.68C80.8 103.32 79.72 103.84 78.66 104.25L78.02 100.27C76.61 100.69 75.27 100.86 74.03 100.78L71.18 105.25C69.31 104.95 67.66 104.16 66.28 102.95L68.26 97.9402C67.59 97.1502 67.03 96.2002 66.6 95.1002L62.85 97.3102C62.33 95.5702 62.04 93.5802 62.03 91.3602C62.03 90.8802 62.04 90.3902 62.07 89.9002L65.81 86.2202C65.96 85.0602 66.18 83.8802 66.48 82.7002L63.56 81.6302C64.49 78.5302 65.82 75.4402 67.46 72.5102L71.18 71.9702C71.69 71.1602 72.23 70.3602 72.8 69.6002L72.09 65.6802C74.18 63.1202 76.52 60.8302 79 58.9902L80.93 61.7902C81.22 61.6102 81.51 61.4202 81.81 61.2502C82.1 61.0802 82.39 60.9302 82.68 60.7802L84.59 55.7602C87.08 54.7302 89.41 54.3202 91.52 54.4602L90.83 59.1902C91.4 59.3002 91.94 59.4702 92.46 59.6802L96.17 55.9302C97.82 56.9702 99.16 58.5102 100.11 60.5302L97.2 64.9702C97.51 65.8002 97.74 66.7102 97.89 67.7002L101.63 67.0602C101.66 67.5202 101.68 67.9802 101.68 68.4702C101.68 70.6902 101.41 73.0002 100.89 75.3502H100.87Z" fill="#0C5ADB"/>
<path d="M57.22 124.48C55.92 124.25 54.61 124.02 53.31 123.79C42.85 121.95 36.1 113.54 36.06 99.7302C35.99 76.0002 55.77 45.3202 80.23 31.2002L83.61 34.3102C59.63 48.1602 40.36 78.1102 40.43 101.12C40.46 114.5 47.02 122.69 57.22 124.48Z" fill="#0C5ADB"/>
<path d="M28.5701 97.3905C17.8601 91.2105 9.15007 96.1705 9.12007 108.48C9.09007 120.78 17.7401 135.77 28.4501 141.95C39.1601 148.13 47.8701 143.17 47.9001 130.86C47.9301 118.56 39.2801 103.57 28.5701 97.3905Z" fill="#4D4852"/>
<path d="M20.0801 92.9605C23.6101 90.9105 28.4901 91.2005 33.8801 94.3105C44.5901 100.49 53.2401 115.48 53.2101 127.78C53.1901 133.89 51.0301 138.19 47.5501 140.22L42.2401 143.31C45.7201 141.29 47.8801 136.99 47.9001 130.87C47.9301 118.57 39.2801 103.58 28.5701 97.4005C23.1801 94.2905 18.3001 94.0005 14.7701 96.0505L20.0801 92.9605Z" fill="url(#paint5_linear_2_4096)"/>
<path d="M18.0101 104.74L26.8601 99.6005C21.8701 96.7205 17.3501 96.4505 14.0801 98.3505L5.2301 103.49C8.4901 101.59 13.0201 101.86 18.0101 104.74Z" fill="#BFC0E3"/>
<path d="M18.0101 104.741L26.8601 99.6006C36.7801 105.331 44.7901 119.201 44.7601 130.601C44.7401 136.261 42.7501 140.241 39.5201 142.121L30.6701 147.261C33.8901 145.391 35.8901 141.401 35.9101 135.741C35.9401 124.351 27.9301 110.471 18.0101 104.741Z" fill="#B7B3B6"/>
<path d="M18.0101 104.74C27.9301 110.47 35.9401 124.34 35.9101 135.74C35.8801 147.13 27.8101 151.73 17.9001 146C7.98008 140.28 -0.029916 126.4 8.39951e-05 115C0.030084 103.61 8.10008 99.0104 18.0101 104.74Z" fill="#CFCFCF"/>
<path d="M18.0001 108.58C26.0701 113.24 32.5901 124.53 32.5601 133.8C32.5301 143.07 25.9701 146.81 17.9001 142.15C9.83007 137.49 3.31007 126.2 3.34007 116.93C3.37007 107.66 9.93007 103.92 18.0001 108.58Z" fill="#B7B3B6"/>
<path d="M17.2001 110.531C9.85008 106.281 3.87008 109.691 3.84008 118.141C3.82008 126.591 9.76008 136.881 17.1101 141.131C24.4601 145.381 30.4401 141.971 30.4701 133.521C30.4901 125.071 24.5501 114.781 17.2001 110.531Z" fill="#DEDBD9"/>
<path d="M96.9901 1.05045C98.6801 1.56045 100.27 2.24045 101.74 3.10045L113.47 9.92045C111.99 9.06045 110.4 8.37045 108.72 7.87045C100.51 5.41045 90.3101 7.32045 80.0201 13.2705L68.2901 6.45045C78.5801 0.500452 88.7701 -1.41955 96.9901 1.05045Z" fill="#DEDBD9"/>
<path d="M80.0201 13.2604L68.2901 6.44043L53.6701 14.8804L65.4001 21.7004L80.0201 13.2604Z" fill="#DEDBD9"/>
<path d="M65.4001 21.7004L53.6701 14.8804C47.8901 18.2104 42.2501 22.7104 36.9101 28.2404C29.2801 36.1304 22.6301 45.8504 17.6801 56.3404C12.7701 66.7504 9.72009 77.5104 8.86009 87.4504C8.34009 93.4204 7.50009 103.77 7.47009 105.09C7.47009 105.28 7.49009 107.69 7.49009 107.69L8.35009 109.28L19.2401 111.88C18.9801 113.67 20.0001 101.1 20.5901 94.2704C21.4501 84.3204 24.5001 73.5604 29.4101 63.1604C34.3601 52.6704 41.0101 42.9504 48.6401 35.0604C53.9801 29.5304 59.6201 25.0404 65.4001 21.7004Z" fill="#DEDBD9"/>
<path d="M20.5901 94.2705C21.4501 84.3205 24.5001 73.5605 29.4101 63.1605C34.3601 52.6705 41.0101 42.9505 48.6401 35.0605C53.9801 29.5305 59.6201 25.0405 65.4001 21.7005L80.0101 13.2605C90.3101 7.32051 100.5 5.40051 108.71 7.86051C114.44 9.58051 119 13.3905 122.06 18.8705C119.86 21.0705 117.66 23.2705 115.45 25.4805C108.96 14.5305 95.2201 12.5505 80.0301 21.3205L65.4201 29.7605C60.5301 32.5805 55.7601 36.3805 51.2501 41.0605C38.1301 54.6305 29.0601 73.8205 27.5601 91.1305C27.3601 93.4405 27.1101 96.4105 26.8601 99.6105C26.5101 104.131 21.5401 111.141 21.5401 111.141L19.2301 111.901C19.4401 104.471 19.9901 101.121 20.5801 94.2905L20.5901 94.2705Z" fill="#B7B3B6"/>
<path d="M109.42 136.65C107.49 136.65 105.56 136.16 103.84 135.18L102.55 134.45L104.41 131.2L105.7 131.93C108 133.24 110.87 133.24 113.17 131.93L124.87 125.23C132.27 121 136.67 111.8 135.58 102.87L132.81 86.2804L136.51 85.6604L139.29 102.33C140.57 112.8 135.4 123.52 126.73 128.48L115.03 135.18C113.3 136.17 111.37 136.66 109.43 136.66L109.42 136.65Z" fill="#DEE0F1"/>
<path d="M112.22 134.76C112.16 137.88 105 140.28 99.3801 140.16C98.4601 140.14 97.6401 140.07 96.9301 139.94C96.0501 139.79 95.3301 139.57 94.7301 139.27C92.8501 138.35 92.2501 136.76 92.2901 134.78C92.3301 132.93 92.9201 131.15 94.5601 130.03C95.1201 129.65 95.8001 129.34 96.6201 129.14C97.4601 128.93 98.4501 128.83 99.6101 128.85C105.23 128.96 112.29 131.64 112.22 134.76Z" fill="#5B545F"/>
<path d="M97.9001 138.17C97.6301 138.89 97.3101 139.48 96.9401 139.94C96.0601 139.79 95.3401 139.57 94.7401 139.27C92.8601 138.35 92.2601 136.76 92.3001 134.78C92.3401 132.93 92.9301 131.15 94.5701 130.03C95.1301 129.65 95.8101 129.34 96.6301 129.14C96.8201 129.28 97.0001 129.45 97.1701 129.67C98.6401 131.51 98.9701 135.31 97.9101 138.18L97.9001 138.17Z" fill="#4D4852"/>
<path d="M105.21 68.8184L100.7 66.1983L104.44 65.5583L108.95 68.1784L105.21 68.8184Z" fill="#DEDBD9"/>
<path d="M85.9999 105.359L81.4899 102.739L80.8499 98.7585L85.3599 101.379L85.9999 105.359Z" fill="#DEDBD9"/>
<path d="M90.4499 68.4485L94.9599 71.0685C96.4299 71.9185 97.3399 73.7285 97.3399 76.3085C97.3499 81.4885 93.7099 87.7985 89.1999 90.3985L84.6899 87.7785C89.1999 85.1785 92.8399 78.8685 92.8299 73.6885C92.8299 71.1085 91.9099 69.2985 90.4499 68.4485Z" fill="#DEDBD9"/>
<mask id="mask0_2_4096" style="mask-type:luminance" maskUnits="userSpaceOnUse" x="84" y="68" width="14" height="23">
<path d="M90.4499 68.4485L94.9599 71.0685C96.4299 71.9185 97.3399 73.7285 97.3399 76.3085C97.3499 81.4885 93.7099 87.7985 89.1999 90.3985L84.6899 87.7785C89.1999 85.1785 92.8399 78.8685 92.8299 73.6885C92.8299 71.1085 91.9099 69.2985 90.4499 68.4485Z" fill="white"/>
</mask>
<g mask="url(#mask0_2_4096)">
<path d="M89.2099 90.4085L84.6999 87.7885C89.2099 85.1885 92.8499 78.8785 92.8399 73.6985C92.8399 71.1185 91.9199 69.3085 90.4599 68.4585L94.9699 71.0785C96.4399 71.9285 97.3499 73.7385 97.3499 76.3185C97.3599 81.4985 93.7199 87.8085 89.2099 90.4085Z" fill="#DEDBD9"/>
</g>
<path d="M83.3999 90.9786L78.8899 88.3586C80.3799 89.2186 82.4299 89.0986 84.6999 87.7886L89.2099 90.4086C86.9399 91.7186 84.8799 91.8386 83.3999 90.9786Z" fill="#DEDBD9"/>
<mask id="mask1_2_4096" style="mask-type:luminance" maskUnits="userSpaceOnUse" x="78" y="87" width="12" height="5">
<path d="M83.3999 90.9786L78.8899 88.3586C80.3799 89.2186 82.4299 89.0986 84.6999 87.7886L89.2099 90.4086C86.9399 91.7186 84.8799 91.8386 83.3999 90.9786Z" fill="white"/>
</mask>
<g mask="url(#mask1_2_4096)">
<path d="M83.3999 90.9786L78.8899 88.3586C80.3799 89.2186 82.4299 89.0986 84.6999 87.7886L89.2099 90.4086C86.9399 91.7186 84.8799 91.8386 83.3999 90.9786Z" fill="#DEDBD9"/>
</g>
<path d="M99.7799 60.7985L93.0499 56.8785L98.9799 54.4285L103.49 57.0485L99.7799 60.7985Z" fill="#DEDBD9"/>
<path d="M75.1599 105.168L70.6499 102.548C70.0999 102.228 69.5899 101.858 69.1099 101.438L73.6199 104.058C74.0999 104.478 74.6099 104.848 75.1599 105.168Z" fill="#DEDBD9"/>
<mask id="mask2_2_4096" style="mask-type:luminance" maskUnits="userSpaceOnUse" x="69" y="101" width="7" height="5">
<path d="M75.1599 105.168L70.6499 102.548C70.0999 102.228 69.5899 101.858 69.1099 101.438L73.6199 104.058C74.0999 104.478 74.6099 104.848 75.1599 105.168Z" fill="white"/>
</mask>
<g mask="url(#mask2_2_4096)">
<path d="M75.1599 105.168L70.6499 102.548C70.0999 102.228 69.5899 101.858 69.1099 101.438L73.6199 104.058C74.0999 104.478 74.6099 104.848 75.1599 105.168Z" fill="#DEDBD9"/>
</g>
<path d="M98.1498 60.2984L91.4099 56.3884C91.9799 56.4984 92.5198 56.6684 93.0398 56.8784L99.7698 60.7884C99.2498 60.5684 98.7098 60.3984 98.1398 60.2984H98.1498Z" fill="#DEDBD9"/>
<mask id="mask3_2_4096" style="mask-type:luminance" maskUnits="userSpaceOnUse" x="91" y="56" width="9" height="5">
<path d="M98.1498 60.2984L91.4099 56.3884C91.9799 56.4984 92.5198 56.6684 93.0398 56.8784L99.7698 60.7884C99.2498 60.5684 98.7098 60.3984 98.1398 60.2984H98.1498Z" fill="white"/>
</mask>
<g mask="url(#mask3_2_4096)">
<path d="M98.1498 60.2984L91.4099 56.3884C91.9799 56.4984 92.5198 56.6684 93.0398 56.8784L99.7798 60.7884C99.2598 60.5684 98.7198 60.3984 98.1498 60.2984Z" fill="#DEDBD9"/>
</g>
<path d="M73.6199 104.058L69.1099 101.438L68.8699 95.1284L75.5999 99.0484L73.6199 104.058Z" fill="#DEDBD9"/>
<path d="M75.5998 99.0484L68.8598 95.1384C68.1898 94.3484 69.8498 94.6984 69.4198 93.5884L73.9298 96.2084C74.3598 97.3084 74.9198 98.2584 75.5898 99.0484H75.5998Z" fill="#DEDBD9"/>
<mask id="mask4_2_4096" style="mask-type:luminance" maskUnits="userSpaceOnUse" x="68" y="93" width="8" height="7">
<path d="M75.5998 99.0484L68.8598 95.1384C68.1898 94.3484 69.8498 94.6984 69.4198 93.5884L73.9298 96.2084C74.3598 97.3084 74.9198 98.2584 75.5898 99.0484H75.5998Z" fill="white"/>
</mask>
<g mask="url(#mask4_2_4096)">
<path d="M75.5999 99.0484L68.8699 95.1384C68.1999 94.3484 69.8599 94.6984 69.4299 93.5884L73.9399 96.2084C74.3699 97.3084 74.9299 98.2584 75.5999 99.0484Z" fill="#DEDBD9"/>
</g>
<path d="M90.0099 61.8885L85.4999 59.2685L87.3999 54.2485L91.9099 56.8685L90.0099 61.8885Z" fill="#DEDBD9"/>
<path d="M91.9098 56.8685L87.3998 54.2485C89.8898 53.2185 92.2198 52.8085 94.3298 52.9485L98.8398 55.5685C96.7298 55.4285 94.3998 55.8385 91.9098 56.8685Z" fill="#DEDBD9"/>
<mask id="mask5_2_4096" style="mask-type:luminance" maskUnits="userSpaceOnUse" x="87" y="52" width="12" height="5">
<path d="M91.9098 56.8685L87.3998 54.2485C89.8898 53.2185 92.2198 52.8085 94.3298 52.9485L98.8398 55.5685C96.7298 55.4285 94.3998 55.8385 91.9098 56.8685Z" fill="white"/>
</mask>
<g mask="url(#mask5_2_4096)">
<path d="M91.9098 56.8685L87.3998 54.2485C89.8898 53.2185 92.2198 52.8085 94.3298 52.9485L98.8398 55.5685C96.7298 55.4285 94.3998 55.8385 91.9098 56.8685Z" fill="#DEDBD9"/>
</g>
<path d="M88.2499 62.8986L83.7399 60.2786C84.0299 60.0986 84.3199 59.9086 84.6199 59.7386C84.9099 59.5686 85.1999 59.4186 85.4899 59.2686L89.9999 61.8886C89.7099 62.0386 89.4199 62.1986 89.1299 62.3586C88.8299 62.5286 88.5399 62.7186 88.2499 62.8986Z" fill="#DEDBD9"/>
<mask id="mask6_2_4096" style="mask-type:luminance" maskUnits="userSpaceOnUse" x="83" y="59" width="7" height="4">
<path d="M88.2499 62.8986L83.7399 60.2786C84.0299 60.0986 84.3199 59.9086 84.6199 59.7386C84.9099 59.5686 85.1999 59.4186 85.4899 59.2686L89.9999 61.8886C89.7099 62.0386 89.4199 62.1986 89.1299 62.3586C88.8299 62.5286 88.5399 62.7186 88.2499 62.8986Z" fill="white"/>
</mask>
<g mask="url(#mask6_2_4096)">
<path d="M88.2499 62.8986L83.7399 60.2786C84.0299 60.0986 84.3199 59.9086 84.6199 59.7386C84.9099 59.5686 85.1999 59.4186 85.4899 59.2686L89.9999 61.8886C89.7099 62.0386 89.4199 62.1986 89.1299 62.3586C88.8299 62.5286 88.5399 62.7186 88.2499 62.8986Z" fill="#DEDBD9"/>
</g>
<path d="M73.1399 87.3285L68.6299 84.7085C68.7799 83.5485 68.9999 82.3685 69.2999 81.1885L73.8099 83.8085C73.5099 84.9885 73.2899 86.1585 73.1399 87.3285Z" fill="#DEDBD9"/>
<mask id="mask7_2_4096" style="mask-type:luminance" maskUnits="userSpaceOnUse" x="68" y="81" width="6" height="7">
<path d="M73.1399 87.3285L68.6299 84.7085C68.7799 83.5485 68.9999 82.3685 69.2999 81.1885L73.8099 83.8085C73.5099 84.9885 73.2899 86.1585 73.1399 87.3285Z" fill="white"/>
</mask>
<g mask="url(#mask7_2_4096)">
<path d="M73.1399 87.3285L68.6299 84.7085C68.7799 83.5485 68.9999 82.3685 69.2999 81.1885L73.8099 83.8085C73.5099 84.9885 73.2899 86.1585 73.1399 87.3285Z" fill="#DEDBD9"/>
</g>
<path d="M70.1899 98.4184L65.6799 95.7984C65.1599 94.0584 64.8699 92.0684 64.8599 89.8484C64.8599 89.3684 64.8699 88.8784 64.8999 88.3884L69.4099 91.0084C69.3799 91.4984 69.3699 91.9784 69.3699 92.4684C69.3699 94.6884 69.6699 96.6784 70.1899 98.4184Z" fill="#DEDBD9"/>
<mask id="mask8_2_4096" style="mask-type:luminance" maskUnits="userSpaceOnUse" x="64" y="88" width="7" height="11">
<path d="M70.1899 98.4184L65.6799 95.7984C65.1599 94.0584 64.8699 92.0684 64.8599 89.8484C64.8599 89.3684 64.8699 88.8784 64.8999 88.3884L69.4099 91.0084C69.3799 91.4984 69.3699 91.9784 69.3699 92.4684C69.3699 94.6884 69.6699 96.6784 70.1899 98.4184Z" fill="white"/>
</mask>
<g mask="url(#mask8_2_4096)">
<path d="M70.1899 98.4184L65.6799 95.7984C65.1599 94.0584 64.8699 92.0684 64.8599 89.8484C64.8599 89.3684 64.8699 88.8784 64.8999 88.3884L69.4099 91.0084C69.3799 91.4984 69.3699 91.9784 69.3699 92.4684C69.3699 94.6884 69.6699 96.6784 70.1899 98.4184Z" fill="#DEDBD9"/>
</g>
<path d="M69.4098 91.0085L64.8998 88.3885L68.6298 84.7085L73.1398 87.3285L69.4098 91.0085Z" fill="#DEDBD9"/>
<path d="M78.5099 73.0784L73.9999 70.4584C74.5099 69.6484 75.0499 68.8484 75.6199 68.0884L80.1299 70.7084C79.5699 71.4684 79.0299 72.2684 78.5099 73.0784Z" fill="#DEDBD9"/>
<mask id="mask9_2_4096" style="mask-type:luminance" maskUnits="userSpaceOnUse" x="73" y="68" width="8" height="6">
<path d="M78.5099 73.0784L73.9999 70.4584C74.5099 69.6484 75.0499 68.8484 75.6199 68.0884L80.1299 70.7084C79.5699 71.4684 79.0299 72.2684 78.5099 73.0784Z" fill="white"/>
</mask>
<g mask="url(#mask9_2_4096)">
<path d="M78.5099 73.0784L73.9999 70.4584C74.5099 69.6484 75.0499 68.8484 75.6199 68.0884L80.1299 70.7084C79.5699 71.4684 79.0299 72.2684 78.5099 73.0784Z" fill="#DEDBD9"/>
</g>
<path d="M80.1198 70.7085L75.6098 68.0885L74.8998 64.1685L79.4098 66.7885L80.1198 70.7085Z" fill="#DEDBD9"/>
<path d="M79.4098 66.7885L74.8998 64.1685C76.9898 61.6085 79.3298 59.3185 81.8098 57.4785L86.3198 60.0985C83.8398 61.9385 81.4998 64.2185 79.4098 66.7885Z" fill="#DEDBD9"/>
<mask id="mask10_2_4096" style="mask-type:luminance" maskUnits="userSpaceOnUse" x="74" y="57" width="13" height="10">
<path d="M79.4098 66.7885L74.8998 64.1685C76.9898 61.6085 79.3298 59.3185 81.8098 57.4785L86.3198 60.0985C83.8398 61.9385 81.4998 64.2185 79.4098 66.7885Z" fill="white"/>
</mask>
<g mask="url(#mask10_2_4096)">
<path d="M79.4098 66.7885L74.8998 64.1685C76.9898 61.6085 79.3298 59.3185 81.8098 57.4785L86.3198 60.0985C83.8398 61.9385 81.4998 64.2185 79.4098 66.7885Z" fill="#DEDBD9"/>
</g>
<path d="M70.8899 82.7385L66.3799 80.1185C67.3099 77.0185 68.6399 73.9285 70.2799 70.9885L74.7899 73.6085C73.1599 76.5385 71.8199 79.6285 70.8899 82.7285V82.7385Z" fill="#DEDBD9"/>
<mask id="mask11_2_4096" style="mask-type:luminance" maskUnits="userSpaceOnUse" x="66" y="70" width="9" height="13">
<path d="M70.8899 82.7385L66.3799 80.1185C67.3099 77.0185 68.6399 73.9285 70.2799 70.9885L74.7899 73.6085C73.1599 76.5385 71.8199 79.6285 70.8899 82.7285V82.7385Z" fill="white"/>
</mask>
<g mask="url(#mask11_2_4096)">
<path d="M70.8899 82.7385L66.3799 80.1185C67.3099 77.0185 68.6399 73.9285 70.2799 70.9885L74.7899 73.6085C73.1599 76.5385 71.8199 79.6285 70.8899 82.7285V82.7385Z" fill="#DEDBD9"/>
</g>
<path d="M108.21 76.4683L104.47 78.5783C104.05 80.1683 103.49 81.7583 102.83 83.3283L104.83 86.0483C103.47 88.8383 101.83 91.5283 99.9599 93.9883L97.0899 92.8183C95.8499 94.3283 94.5199 95.7083 93.1099 96.9083L92.4999 101.618C91.4399 102.428 90.3599 103.158 89.2499 103.798C88.1399 104.438 87.0599 104.958 85.9999 105.368L85.3599 101.388C83.9499 101.808 82.6099 101.978 81.3699 101.898L78.5199 106.368C76.6499 106.068 74.9999 105.278 73.6199 104.068L75.5999 99.0583C74.9299 98.2683 74.3699 97.3183 73.9399 96.2183L70.1899 98.4283C69.6699 96.6883 69.3799 94.6983 69.3699 92.4783C69.3699 91.9983 69.3799 91.5083 69.4099 91.0183L73.1499 87.3383C73.2999 86.1783 73.5199 84.9983 73.8199 83.8183L70.8999 82.7483C71.8299 79.6483 73.1599 76.5583 74.7999 73.6283L78.5199 73.0883C79.0299 72.2783 79.5699 71.4783 80.1399 70.7183L79.4299 66.7983C81.5199 64.2383 83.8599 61.9483 86.3399 60.1083L88.2699 62.9083C88.5599 62.7283 88.8499 62.5383 89.1499 62.3683C89.4399 62.1983 89.7299 62.0483 90.0199 61.8983L91.9299 56.8783C94.4199 55.8483 96.7499 55.4383 98.8599 55.5783L98.1699 60.3083C98.7399 60.4183 99.2799 60.5883 99.7999 60.7983L103.51 57.0483C105.16 58.0883 106.5 59.6283 107.45 61.6483L104.54 66.0883C104.85 66.9183 105.08 67.8283 105.23 68.8183L108.97 68.1783C109 68.6383 109.02 69.0983 109.02 69.5883C109.02 71.8083 108.75 74.1183 108.23 76.4683H108.21ZM89.2099 90.4083C93.7199 87.8083 97.3599 81.4983 97.3499 76.3183C97.3399 71.1283 93.6699 69.0383 89.1599 71.6483C84.6499 74.2483 80.9999 80.5583 81.0199 85.7483C81.0299 90.9283 84.7099 93.0183 89.2199 90.4083H89.2099Z" fill="#FEFFFF"/>
<path d="M74.7898 73.6185L70.2798 70.9985L73.9998 70.4585L78.5098 73.0785L74.7898 73.6185Z" fill="#DEDBD9"/>
<path d="M96.45 137.201C96.03 138.331 95.41 139.051 94.75 139.271C92.87 138.351 92.27 136.761 92.31 134.781C92.35 132.931 92.94 131.151 94.58 130.031C95.04 130.031 95.5 130.261 95.9 130.771C97.01 132.161 97.26 135.041 96.46 137.211L96.45 137.201Z" fill="#45414A"/>
<defs>
<linearGradient id="paint0_linear_2_4096" x1="102.7" y1="44.0608" x2="124.33" y2="44.0608" gradientUnits="userSpaceOnUse">
<stop offset="0.14" stop-color="#AABBD6"/>
<stop offset="0.2" stop-color="#AEBDD8"/>
<stop offset="0.71" stop-color="#CBCDE8"/>
<stop offset="1" stop-color="#D7D3EE"/>
</linearGradient>
<linearGradient id="paint1_linear_2_4096" x1="138.88" y1="84.1609" x2="117.29" y2="46.771" gradientUnits="userSpaceOnUse">
<stop offset="0.14" stop-color="#AABBD6"/>
<stop offset="0.2" stop-color="#AEBDD8"/>
<stop offset="0.71" stop-color="#CBCDE8"/>
<stop offset="1" stop-color="#D7D3EE"/>
</linearGradient>
<linearGradient id="paint2_linear_2_4096" x1="128.07" y1="90.4008" x2="102.76" y2="46.5708" gradientUnits="userSpaceOnUse">
<stop offset="0.14" stop-color="#AABBD6"/>
<stop offset="0.2" stop-color="#AEBDD8"/>
<stop offset="0.71" stop-color="#CBCDE8"/>
<stop offset="1" stop-color="#D7D3EE"/>
</linearGradient>
<linearGradient id="paint3_linear_2_4096" x1="101.31" y1="68.9509" x2="127.94" y2="68.9509" gradientUnits="userSpaceOnUse">
<stop offset="0.14" stop-color="#AABBD6"/>
<stop offset="0.2" stop-color="#AEBDD8"/>
<stop offset="0.71" stop-color="#CBCDE8"/>
<stop offset="1" stop-color="#D7D3EE"/>
</linearGradient>
<linearGradient id="paint4_linear_2_4096" x1="131.55" y1="90.3207" x2="104.21" y2="42.9707" gradientUnits="userSpaceOnUse">
<stop offset="0.17" stop-color="#5A545E"/>
<stop offset="0.45" stop-color="#615A65"/>
<stop offset="0.79" stop-color="#706875"/>
</linearGradient>
<linearGradient id="paint5_linear_2_4096" x1="51.6601" y1="137.87" x2="24.3201" y2="90.5105" gradientUnits="userSpaceOnUse">
<stop offset="0.17" stop-color="#5A545E"/>
<stop offset="0.45" stop-color="#615A65"/>
<stop offset="0.79" stop-color="#706875"/>
</linearGradient>
</defs>
</svg>
