<svg width="141" height="190" viewBox="0 0 141 190" fill="none" xmlns="http://www.w3.org/2000/svg">
<path d="M0 87.0681V163.448L2.74 165.028L100.14 32.4081L97.4 30.8281L0 87.0681Z" fill="#0C5ADB"/>
<path d="M47.05 6L57.44 0L94.6 27.35L97.4 30.83L0 87.07L2.81 80.35L47.05 6Z" fill="#0C5ADB"/>
<path d="M100.14 32.4062L2.74023 88.6463L5.55023 93.5763L48.3302 111.026L58.7202 105.026L97.3302 40.5763L100.14 32.4062Z" fill="#799DDB"/>
<path d="M49.7902 7.57812L60.1702 1.57812L97.3302 28.9281L100.14 32.4081L2.74023 88.6481L5.55023 81.9281L49.7902 7.57812Z" fill="#799DDB"/>
<path d="M48.3103 51.1194L35.7103 51.9194L25.6303 57.7394C25.5603 57.7794 25.4103 57.8694 25.4103 57.8694C21.4703 60.2994 19.0703 64.5894 19.0703 69.2194V133.189L71.3003 103.029L48.3103 51.1094V51.1194Z" fill="#D2DFF2"/>
<path d="M97.3302 40.5802L58.7202 105.03L48.3302 111.03L5.55023 93.5802L2.74023 88.6502V165.03L100.14 108.8V32.4102L97.3302 40.5802Z" fill="#B6CEF4"/>
<path d="M48.3302 111.031L58.7202 105.031L100.14 108.801L2.74023 165.031L48.3302 111.031Z" fill="#9BBFF8"/>
<path d="M37.09 57.7104L38.45 58.4904C45.21 62.3904 49.37 69.6104 49.37 77.4104V134.37C49.37 147.38 54.79 159.61 64.04 168.31C64.41 168.66 64.79 169 65.17 169.34C67.46 171.36 69.97 173.17 72.67 174.73L96.97 187.59L140.88 162.24L116.58 149.38C102.16 141.06 93.28 125.67 93.28 109.03V52.0704C93.28 44.2604 89.12 37.0504 82.36 33.1504L81 32.3704C77.42 30.3004 73 30.3404 69.46 32.4604L69.03 31.5404L25.21 56.8404C28.74 54.7704 33.54 55.6704 37.1 57.7304L37.09 57.7104Z" fill="#EAF2FE"/>
<path d="M139.871 163.981L116.081 150.241C101.401 141.761 92.2807 125.971 92.2807 109.011V52.0505C92.2807 44.6305 88.2907 37.7105 81.8607 34.0005L80.5007 33.2205C77.2707 31.3605 73.2707 31.3705 70.0507 33.2505C69.9807 33.2905 69.9207 33.3305 69.8507 33.3705C66.2307 35.6005 63.9907 39.6205 63.9907 43.8705V81.9805H61.9707V43.8705C61.9707 38.9305 64.5807 34.2505 68.7907 31.6605C68.8707 31.6105 68.9507 31.5605 69.0307 31.5205C72.8707 29.2705 77.6507 29.2605 81.5107 31.4805L82.8707 32.2605C89.9207 36.3305 94.3007 43.9205 94.3007 52.0605V109.021C94.3007 125.251 103.031 140.381 117.091 148.501L140.881 162.241L139.871 163.991V163.981Z" fill="#EAF2FE"/>
<path d="M88.7496 38.7383L46.5996 63.0683C47.5896 64.3583 48.4396 65.7583 49.1196 67.2383L91.2696 42.9083C90.5896 41.4283 89.7396 40.0283 88.7496 38.7383Z" fill="#F7F7F7"/>
<path d="M96.9598 189.91L72.1598 175.59C57.4798 167.11 48.3598 151.32 48.3598 134.36V77.4004C48.3598 69.9804 44.3698 63.0604 37.9398 59.3504L36.5798 58.5704C33.3498 56.7104 29.3498 56.7204 26.1298 58.6004C26.0598 58.6404 25.9998 58.6804 25.9298 58.7204C22.3098 60.9504 20.0698 64.9704 20.0698 69.2104V99.5004L18.0498 98.6804V69.2104C18.0498 64.2704 20.6598 59.5904 24.8698 57.0004C24.9498 56.9504 25.0298 56.9004 25.1098 56.8604C28.9498 54.6104 33.7298 54.6004 37.5798 56.8204L38.9398 57.6004C45.9898 61.6704 50.3698 69.2604 50.3698 77.4004V134.36C50.3698 150.59 59.0998 165.72 73.1598 173.84L96.9498 187.58V189.91H96.9598Z" fill="#EBF6FC"/>
<path d="M140.88 164.56L96.96 189.91V187.58L140.88 162.23V164.56Z" fill="#EBF6FC"/>
<path d="M64.64 77.2703L54.79 82.9503V80.0003L64.64 74.3203V77.2703Z" fill="#90B9FE"/>
<path d="M90.8404 62.1414L69.1904 74.6414V71.6914L90.8404 59.1914V62.1414Z" fill="#90B9FE"/>
<path d="M64.64 86.4695L54.79 92.1595V89.2095L64.64 83.5195V86.4695Z" fill="#90B9FE"/>
<path d="M90.8404 71.3484L69.1904 83.8484V80.8984L90.8404 68.3984V71.3484Z" fill="#90B9FE"/>
<path d="M64.64 95.6805L54.79 101.36V98.4205L64.64 92.7305V95.6805Z" fill="#90B9FE"/>
<path d="M90.8404 80.5516L69.1904 93.0516V90.1016L90.8404 77.6016V80.5516Z" fill="#90B9FE"/>
<path d="M64.64 104.88L54.79 110.57V107.62L64.64 101.93V104.88Z" fill="#90B9FE"/>
<path d="M90.8404 89.7586L69.1904 102.259V99.3086L90.8404 86.8086V89.7586Z" fill="#90B9FE"/>
<path d="M64.64 114.091L54.79 119.781V116.831L64.64 111.141V114.091Z" fill="#90B9FE"/>
<path d="M90.8404 98.9617L69.1904 111.462V108.512L90.8404 96.0117V98.9617Z" fill="#90B9FE"/>
<path d="M64.64 123.298L54.79 128.978V126.028L64.64 120.348V123.298Z" fill="#90B9FE"/>
<path d="M90.8404 108.169L69.1904 120.669V117.719L90.8404 105.219V108.169Z" fill="#90B9FE"/>
<path d="M89.8695 167.957L80.0195 173.647L82.5695 175.117L92.4195 169.427L89.8695 167.957Z" fill="#90B9FE"/>
<path d="M116.069 152.828L94.4092 165.328L96.9692 166.808L118.619 154.308L116.069 152.828Z" fill="#90B9FE"/>
<path d="M82.9701 163.801L73.1201 169.491L75.6701 170.961L85.5201 165.281L82.9701 163.801Z" fill="#90B9FE"/>
<path d="M109.171 148.68L87.5205 161.18L90.0705 162.65L111.721 150.15L109.171 148.68Z" fill="#90B9FE"/>
</svg>
