<svg width="181" height="190" viewBox="0 0 181 190" fill="none" xmlns="http://www.w3.org/2000/svg">
<path d="M119.049 94.61C119.613 94.322 120.237 94.1719 120.87 94.1719C121.503 94.1719 122.127 94.322 122.69 94.61L179.481 127.616C180.497 128.2 180.497 129.139 179.481 129.728L83.4992 185.143C82.9347 185.431 82.31 185.581 81.6763 185.581C81.0426 185.581 80.4178 185.431 79.8533 185.143L23.0625 152.137C22.0469 151.553 22.0469 150.614 23.0625 150.025L119.049 94.61Z" fill="#DEDBD9"/>
<path d="M120.928 82.854L120.898 73.0131V70.8906L120.832 54.1336L120.756 26.8198C120.756 25.0781 119.522 24.3773 118.003 25.2507L23.8547 79.5839C23.0595 80.1009 22.3979 80.7988 21.924 81.6204C21.4501 82.442 21.1773 83.3642 21.1279 84.3114L21.3158 151.055L120.928 93.5328V82.854Z" fill="#DEDBD9"/>
<path d="M180.233 128.668C180.214 128.896 180.133 129.114 180 129.3C179.867 129.486 179.686 129.633 179.476 129.724L83.4995 185.144C82.9349 185.432 82.3102 185.582 81.6765 185.582C81.0428 185.582 80.4181 185.432 79.8536 185.144L23.0627 152.138C23.0018 152.102 22.9611 152.062 22.9053 152.026C22.8494 151.991 22.7732 151.935 22.7225 151.889C22.6464 151.819 22.5767 151.743 22.5143 151.661C22.5133 151.647 22.5133 151.633 22.5143 151.62C22.4628 151.546 22.4217 151.466 22.3924 151.381C22.3924 151.381 22.3924 151.381 22.3924 151.351C22.3645 151.265 22.3491 151.177 22.3467 151.087V155.291C22.3415 155.34 22.3415 155.39 22.3467 155.438C22.3438 155.471 22.3438 155.503 22.3467 155.535C22.3491 155.543 22.3491 155.552 22.3467 155.56C22.3663 155.61 22.3901 155.657 22.4178 155.703C22.4311 155.729 22.4464 155.754 22.4635 155.779L22.494 155.819L22.5194 155.86C22.5694 155.921 22.6237 155.979 22.6818 156.033C22.7583 156.095 22.8399 156.151 22.9256 156.2C22.9662 156.231 23.0018 156.266 23.0475 156.297H23.083L79.8688 189.303C80.4342 189.591 81.0597 189.741 81.6943 189.741C82.3288 189.741 82.9544 189.591 83.5198 189.303L179.491 133.893C179.701 133.8 179.883 133.653 180.017 133.466C180.15 133.279 180.232 133.061 180.253 132.832L180.233 128.668Z" fill="#B7B3B6"/>
<path d="M103.389 151.935C103.279 151.973 103.184 152.044 103.116 152.139C103.049 152.233 103.013 152.347 103.013 152.463C103.013 152.579 103.049 152.693 103.116 152.787C103.184 152.882 103.279 152.953 103.389 152.991L115.302 159.912C115.585 160.054 115.897 160.128 116.213 160.128C116.53 160.128 116.842 160.054 117.125 159.912L138.513 147.598C138.623 147.562 138.72 147.491 138.788 147.397C138.856 147.303 138.893 147.189 138.893 147.073C138.893 146.956 138.856 146.843 138.788 146.749C138.72 146.654 138.623 146.584 138.513 146.547L126.6 139.621C126.319 139.477 126.007 139.402 125.691 139.402C125.375 139.402 125.064 139.477 124.782 139.621L103.389 151.935ZM43.2674 150.366C43.1324 150.436 42.9826 150.472 42.8307 150.472C42.6787 150.472 42.5289 150.436 42.394 150.366L38.4281 148.076C38.3756 148.057 38.33 148.023 38.2978 147.977C38.2656 147.932 38.2483 147.877 38.2483 147.822C38.2483 147.766 38.2656 147.712 38.2978 147.666C38.33 147.621 38.3756 147.586 38.4281 147.568L42.4143 145.268C42.5492 145.198 42.699 145.161 42.851 145.161C43.0029 145.161 43.1527 145.198 43.2877 145.268L47.2586 147.568C47.3111 147.586 47.3567 147.621 47.3889 147.666C47.4211 147.712 47.4384 147.766 47.4384 147.822C47.4384 147.877 47.4211 147.932 47.3889 147.977C47.3567 148.023 47.3111 148.057 47.2586 148.076L43.2674 150.366ZM36.6661 148.568C36.8018 148.501 36.9513 148.466 37.1028 148.466C37.2544 148.466 37.4038 148.501 37.5395 148.568L41.5003 150.874C41.5554 150.889 41.604 150.923 41.6385 150.968C41.6731 151.014 41.6918 151.07 41.6918 151.127C41.6918 151.185 41.6731 151.241 41.6385 151.286C41.604 151.332 41.5554 151.366 41.5003 151.381L37.5243 153.661C37.3866 153.731 37.2344 153.768 37.08 153.768C36.9255 153.768 36.7733 153.731 36.6357 153.661L32.6749 151.356C32.6197 151.34 32.5712 151.307 32.5366 151.261C32.5021 151.215 32.4834 151.159 32.4834 151.102C32.4834 151.045 32.5021 150.989 32.5366 150.943C32.5712 150.897 32.6197 150.864 32.6749 150.848L36.6661 148.568ZM45.984 149.797C46.119 149.727 46.2687 149.691 46.4207 149.691C46.5727 149.691 46.7224 149.727 46.8574 149.797L50.8181 152.097C50.8707 152.116 50.9163 152.15 50.9485 152.196C50.9807 152.241 50.998 152.295 50.998 152.351C50.998 152.407 50.9807 152.461 50.9485 152.507C50.9163 152.552 50.8707 152.587 50.8181 152.605L43.2013 156.992C43.0664 157.062 42.9166 157.099 42.7646 157.099C42.6127 157.099 42.4629 157.062 42.3279 156.992L38.3926 154.677C38.34 154.658 38.2945 154.624 38.2623 154.579C38.23 154.533 38.2127 154.479 38.2127 154.423C38.2127 154.367 38.23 154.313 38.2623 154.267C38.2945 154.222 38.34 154.188 38.3926 154.169L45.984 149.797ZM48.0862 155.185C48.2219 155.117 48.3714 155.082 48.5229 155.082C48.6745 155.082 48.824 155.117 48.9596 155.185L52.9204 157.49C52.9756 157.506 53.0241 157.539 53.0587 157.585C53.0932 157.631 53.1119 157.687 53.1119 157.744C53.1119 157.801 53.0932 157.857 53.0587 157.903C53.0241 157.949 52.9756 157.982 52.9204 157.998L48.9343 160.303C48.7986 160.371 48.6491 160.406 48.4976 160.406C48.346 160.406 48.1965 160.371 48.0609 160.303L44.1001 157.998C44.0449 157.982 43.9964 157.949 43.9619 157.903C43.9273 157.857 43.9086 157.801 43.9086 157.744C43.9086 157.687 43.9273 157.631 43.9619 157.585C43.9964 157.539 44.0449 157.506 44.1001 157.49L48.0862 155.185ZM53.7938 156.982L49.8381 154.677C49.7855 154.658 49.74 154.624 49.7078 154.579C49.6755 154.533 49.6582 154.479 49.6582 154.423C49.6582 154.367 49.6755 154.313 49.7078 154.267C49.74 154.222 49.7855 154.188 49.8381 154.169L53.8242 151.869C53.9592 151.799 54.109 151.762 54.2609 151.762C54.4129 151.762 54.5627 151.799 54.6976 151.869L58.6584 154.169C58.711 154.188 58.7565 154.222 58.7887 154.267C58.8209 154.313 58.8382 154.367 58.8382 154.423C58.8382 154.479 58.8209 154.533 58.7887 154.579C58.7565 154.624 58.711 154.658 58.6584 154.677L54.6672 156.977C54.5334 157.049 54.3843 157.088 54.2323 157.091C54.0803 157.094 53.9299 157.06 53.7938 156.992V156.982ZM93.6246 141.099C93.4887 141.169 93.3381 141.205 93.1853 141.205C93.0325 141.205 92.8819 141.169 92.7461 141.099L88.7854 138.798C88.7328 138.78 88.6872 138.746 88.655 138.7C88.6228 138.655 88.6055 138.6 88.6055 138.544C88.6055 138.489 88.6228 138.434 88.655 138.389C88.6872 138.343 88.7328 138.309 88.7854 138.291L92.7715 135.99C92.9064 135.92 93.0562 135.884 93.2082 135.884C93.3602 135.884 93.5099 135.92 93.6449 135.99L97.6056 138.291C97.8493 138.428 97.8443 138.656 97.6056 138.798L93.6246 141.099ZM137.685 123.291C137.82 123.222 137.968 123.186 138.119 123.186C138.27 123.186 138.419 123.222 138.554 123.291L142.519 125.591C142.758 125.733 142.753 125.956 142.519 126.099L138.533 128.399C138.398 128.468 138.248 128.503 138.097 128.503C137.945 128.503 137.795 128.468 137.66 128.399L133.694 126.094C133.455 125.951 133.46 125.728 133.694 125.586L137.685 123.291ZM116.612 109.535C116.559 109.516 116.514 109.482 116.482 109.436C116.45 109.391 116.432 109.336 116.432 109.281C116.432 109.225 116.45 109.171 116.482 109.125C116.514 109.08 116.559 109.045 116.612 109.027L120.598 106.721C120.735 106.656 120.885 106.622 121.037 106.622C121.189 106.622 121.34 106.656 121.477 106.721L125.437 109.027C125.676 109.164 125.676 109.392 125.437 109.535L121.436 111.835C121.3 111.902 121.151 111.938 120.999 111.938C120.848 111.938 120.698 111.902 120.563 111.835L116.612 109.535ZM127.184 108.519C127.049 108.589 126.899 108.625 126.747 108.625C126.596 108.625 126.446 108.589 126.311 108.519L122.35 106.219C122.297 106.2 122.252 106.166 122.22 106.12C122.187 106.075 122.17 106.021 122.17 105.965C122.17 105.909 122.187 105.855 122.22 105.809C122.252 105.764 122.297 105.729 122.35 105.711L126.341 103.411C126.476 103.341 126.626 103.304 126.778 103.304C126.93 103.304 127.08 103.341 127.215 103.411L131.175 105.711C131.228 105.729 131.274 105.764 131.306 105.809C131.338 105.855 131.355 105.909 131.355 105.965C131.355 106.021 131.338 106.075 131.306 106.12C131.274 106.166 131.228 106.2 131.175 106.219L127.184 108.519ZM117.882 107.295C117.746 107.364 117.597 107.4 117.445 107.4C117.293 107.4 117.143 107.364 117.008 107.295L113.047 104.995C112.995 104.977 112.949 104.942 112.917 104.897C112.885 104.851 112.868 104.797 112.868 104.741C112.868 104.685 112.885 104.631 112.917 104.586C112.949 104.54 112.995 104.506 113.047 104.487L120.664 100.095C120.8 100.027 120.949 99.9922 121.101 99.9922C121.252 99.9922 121.402 100.027 121.538 100.095L125.498 102.4C125.551 102.419 125.596 102.453 125.629 102.499C125.661 102.544 125.678 102.598 125.678 102.654C125.678 102.71 125.661 102.764 125.629 102.81C125.596 102.855 125.551 102.89 125.498 102.908L117.882 107.295ZM112.144 110.606C112.009 110.676 111.859 110.712 111.707 110.712C111.555 110.712 111.405 110.676 111.27 110.606L107.309 108.306C107.257 108.287 107.211 108.253 107.179 108.207C107.147 108.162 107.13 108.108 107.13 108.052C107.13 107.996 107.147 107.942 107.179 107.896C107.211 107.851 107.257 107.816 107.309 107.798L111.301 105.498C111.435 105.429 111.584 105.393 111.735 105.393C111.886 105.393 112.035 105.429 112.169 105.498L116.135 107.803C116.19 107.819 116.238 107.852 116.273 107.898C116.308 107.944 116.326 108 116.326 108.057C116.326 108.114 116.308 108.17 116.273 108.216C116.238 108.262 116.19 108.295 116.135 108.311L112.144 110.606ZM106.406 113.922C106.27 113.989 106.12 114.025 105.969 114.025C105.817 114.025 105.668 113.989 105.532 113.922L101.571 111.622C101.519 111.603 101.473 111.569 101.441 111.523C101.409 111.478 101.392 111.423 101.392 111.368C101.392 111.312 101.409 111.258 101.441 111.212C101.473 111.167 101.519 111.132 101.571 111.114L105.563 108.808C105.698 108.741 105.848 108.706 105.999 108.706C106.151 108.706 106.3 108.741 106.436 108.808L110.397 111.114C110.635 111.251 110.635 111.479 110.397 111.622L106.406 113.922ZM114.875 110.037C115.01 109.967 115.16 109.931 115.312 109.931C115.464 109.931 115.614 109.967 115.749 110.037L119.715 112.338C119.767 112.356 119.813 112.39 119.845 112.436C119.877 112.481 119.895 112.536 119.895 112.591C119.895 112.647 119.877 112.702 119.845 112.747C119.813 112.793 119.767 112.827 119.715 112.845L115.729 115.146C115.594 115.216 115.444 115.252 115.292 115.252C115.14 115.252 114.99 115.216 114.855 115.146L110.889 112.845C110.651 112.708 110.651 112.48 110.889 112.338L114.875 110.037ZM109.097 118.462L105.136 116.156C105.081 116.14 105.032 116.107 104.998 116.061C104.963 116.015 104.945 115.96 104.945 115.902C104.945 115.845 104.963 115.789 104.998 115.743C105.032 115.697 105.081 115.664 105.136 115.648L109.122 113.343C109.258 113.275 109.407 113.24 109.559 113.24C109.71 113.24 109.86 113.275 109.996 113.343L113.956 115.648C114.2 115.785 114.2 116.014 113.956 116.156L109.97 118.456C109.835 118.525 109.686 118.561 109.534 118.562C109.383 118.563 109.233 118.528 109.097 118.462ZM121.791 117.74C122.03 117.878 122.03 118.106 121.791 118.248L117.805 120.549C117.67 120.616 117.52 120.651 117.369 120.651C117.217 120.651 117.068 120.616 116.932 120.549L112.966 118.248C112.914 118.23 112.868 118.195 112.836 118.15C112.804 118.104 112.786 118.05 112.786 117.994C112.786 117.939 112.804 117.884 112.836 117.839C112.868 117.793 112.914 117.759 112.966 117.74L116.952 115.435C117.088 115.368 117.237 115.332 117.389 115.332C117.541 115.332 117.69 115.368 117.826 115.435L121.791 117.74ZM100.657 117.233C100.522 117.303 100.373 117.339 100.221 117.339C100.069 117.339 99.919 117.303 99.784 117.233L95.8233 114.932C95.5795 114.795 95.5846 114.567 95.8233 114.425L99.8094 112.124C99.9453 112.054 100.096 112.018 100.249 112.018C100.401 112.018 100.552 112.054 100.688 112.124L104.649 114.425C104.701 114.443 104.747 114.477 104.779 114.523C104.811 114.568 104.828 114.623 104.828 114.678C104.828 114.734 104.811 114.789 104.779 114.834C104.747 114.88 104.701 114.914 104.649 114.932L100.657 117.233ZM123.538 117.233C123.403 117.303 123.254 117.339 123.102 117.339C122.95 117.339 122.8 117.303 122.665 117.233L118.704 114.932C118.46 114.795 118.465 114.567 118.704 114.425L122.69 112.124C122.826 112.057 122.975 112.022 123.127 112.022C123.279 112.022 123.428 112.057 123.564 112.124L127.524 114.43C127.58 114.445 127.628 114.479 127.663 114.525C127.697 114.57 127.716 114.626 127.716 114.684C127.716 114.741 127.697 114.797 127.663 114.843C127.628 114.888 127.58 114.922 127.524 114.937L123.538 117.233ZM129.276 113.922C129.141 113.991 128.991 114.026 128.84 114.026C128.688 114.026 128.538 113.991 128.403 113.922L124.442 111.622C124.39 111.603 124.344 111.569 124.312 111.523C124.28 111.478 124.262 111.423 124.262 111.368C124.262 111.312 124.28 111.258 124.312 111.212C124.344 111.167 124.39 111.132 124.442 111.114L132.059 106.721C132.195 106.654 132.344 106.619 132.496 106.619C132.647 106.619 132.797 106.654 132.932 106.721L136.893 109.027C137.132 109.164 137.132 109.392 136.893 109.535L129.276 113.922ZM133.796 117.918C133.661 117.986 133.512 118.021 133.361 118.021C133.211 118.021 133.062 117.986 132.927 117.918L128.961 115.613C128.906 115.597 128.858 115.564 128.823 115.518C128.789 115.472 128.77 115.416 128.77 115.359C128.77 115.302 128.789 115.246 128.823 115.2C128.858 115.154 128.906 115.121 128.961 115.105L137.746 110.027C137.881 109.957 138.031 109.921 138.183 109.921C138.335 109.921 138.485 109.957 138.62 110.027L142.585 112.327C142.638 112.346 142.683 112.38 142.716 112.426C142.748 112.471 142.765 112.526 142.765 112.581C142.765 112.637 142.748 112.691 142.716 112.737C142.683 112.782 142.638 112.817 142.585 112.835L133.796 117.918ZM128.037 121.229C127.902 121.299 127.753 121.335 127.601 121.335C127.449 121.335 127.299 121.299 127.164 121.229L123.203 118.929C123.151 118.91 123.105 118.876 123.073 118.83C123.041 118.785 123.023 118.731 123.023 118.675C123.023 118.619 123.041 118.565 123.073 118.519C123.105 118.474 123.151 118.439 123.203 118.421L127.194 116.121C127.329 116.051 127.479 116.014 127.631 116.014C127.783 116.014 127.933 116.051 128.068 116.121L132.028 118.421C132.081 118.439 132.127 118.474 132.159 118.519C132.191 118.565 132.208 118.619 132.208 118.675C132.208 118.731 132.191 118.785 132.159 118.83C132.127 118.876 132.081 118.91 132.028 118.929L128.037 121.229ZM149.131 116.659C149.266 116.59 149.416 116.554 149.567 116.554C149.719 116.554 149.869 116.59 150.004 116.659L153.965 118.959C154.209 119.101 154.204 119.325 153.965 119.467L149.979 121.767C149.843 121.836 149.694 121.872 149.542 121.872C149.39 121.872 149.241 121.836 149.105 121.767L145.145 119.462C144.901 119.32 144.906 119.096 145.145 118.954L149.131 116.659ZM136.558 122.91C136.423 122.977 136.274 123.012 136.124 123.012C135.973 123.012 135.824 122.977 135.69 122.91L131.729 120.604C131.674 120.589 131.625 120.555 131.591 120.509C131.556 120.464 131.537 120.408 131.537 120.35C131.537 120.293 131.556 120.237 131.591 120.191C131.625 120.146 131.674 120.112 131.729 120.097L143.408 113.338C143.544 113.27 143.693 113.235 143.845 113.235C143.996 113.235 144.146 113.27 144.281 113.338L148.242 115.643C148.486 115.78 148.481 116.009 148.242 116.151L136.558 122.91ZM94.9194 120.543C94.7838 120.611 94.6343 120.646 94.4827 120.646C94.3312 120.646 94.1817 120.611 94.046 120.543L90.0802 118.243C90.0276 118.225 89.9821 118.19 89.9499 118.145C89.9177 118.099 89.9003 118.045 89.9003 117.989C89.9003 117.934 89.9177 117.879 89.9499 117.834C89.9821 117.788 90.0276 117.754 90.0802 117.735L94.0663 115.43C94.202 115.362 94.3515 115.327 94.503 115.327C94.6546 115.327 94.8041 115.362 94.9397 115.43L98.9055 117.735C99.1442 117.872 99.1442 118.101 98.9055 118.243L94.9194 120.543ZM103.389 116.659C103.524 116.589 103.674 116.552 103.826 116.552C103.978 116.552 104.128 116.589 104.263 116.659L108.223 118.959C108.276 118.978 108.322 119.012 108.354 119.057C108.386 119.103 108.403 119.157 108.403 119.213C108.403 119.269 108.386 119.323 108.354 119.369C108.322 119.414 108.276 119.448 108.223 119.467L104.232 121.767C104.098 121.837 103.949 121.874 103.798 121.874C103.647 121.874 103.498 121.837 103.364 121.767L99.4032 119.467C99.3506 119.448 99.3051 119.414 99.2728 119.369C99.2406 119.323 99.2233 119.269 99.2233 119.213C99.2233 119.157 99.2406 119.103 99.2728 119.057C99.3051 119.012 99.3506 118.978 99.4032 118.959L103.389 116.659ZM89.1713 123.854C89.0354 123.924 88.8848 123.961 88.732 123.961C88.5792 123.961 88.4287 123.924 88.2928 123.854L84.3321 121.554C84.0934 121.417 84.0934 121.188 84.3321 121.046L88.3182 118.746C88.4531 118.676 88.6029 118.639 88.7549 118.639C88.9069 118.639 89.0566 118.676 89.1916 118.746L93.1523 121.046C93.2049 121.065 93.2504 121.099 93.2827 121.144C93.3149 121.19 93.3322 121.244 93.3322 121.3C93.3322 121.356 93.3149 121.41 93.2827 121.456C93.2504 121.501 93.2049 121.535 93.1523 121.554L89.1713 123.854ZM111.174 123.854L107.213 121.549C106.974 121.412 106.974 121.183 107.213 121.041L111.199 118.741C111.335 118.673 111.484 118.638 111.636 118.638C111.787 118.638 111.937 118.673 112.072 118.741L116.033 121.041C116.086 121.06 116.131 121.094 116.164 121.139C116.196 121.185 116.213 121.239 116.213 121.295C116.213 121.351 116.196 121.405 116.164 121.451C116.131 121.496 116.086 121.53 116.033 121.549L112.047 123.854C111.912 123.92 111.764 123.955 111.614 123.957C111.464 123.959 111.315 123.927 111.179 123.864L111.174 123.854ZM117.475 122.229C117.237 122.092 117.237 121.864 117.475 121.722L121.461 119.421C121.597 119.354 121.747 119.319 121.898 119.319C122.05 119.319 122.199 119.354 122.335 119.421L126.296 121.727C126.351 121.742 126.399 121.776 126.434 121.821C126.468 121.867 126.487 121.923 126.487 121.98C126.487 122.038 126.468 122.094 126.434 122.139C126.399 122.185 126.351 122.219 126.296 122.234L122.304 124.54C122.169 124.607 122.019 124.642 121.868 124.642C121.716 124.642 121.567 124.607 121.431 124.54L117.475 122.229ZM97.6412 119.965C97.7768 119.897 97.9263 119.862 98.0779 119.862C98.2294 119.862 98.3789 119.897 98.5146 119.965L102.475 122.27C102.53 122.286 102.579 122.319 102.614 122.365C102.648 122.411 102.667 122.466 102.667 122.524C102.667 122.581 102.648 122.637 102.614 122.683C102.579 122.729 102.53 122.762 102.475 122.778L98.4841 125.083C98.3493 125.151 98.2007 125.186 98.0499 125.186C97.8992 125.186 97.7505 125.151 97.6158 125.083L93.65 122.778C93.5948 122.762 93.5462 122.729 93.5117 122.683C93.4771 122.637 93.4584 122.581 93.4584 122.524C93.4584 122.466 93.4771 122.411 93.5117 122.365C93.5462 122.319 93.5948 122.286 93.65 122.27L97.6412 119.965ZM130.835 126.241C130.701 126.311 130.552 126.347 130.401 126.347C130.25 126.347 130.101 126.311 129.967 126.241L126.006 123.941C125.954 123.922 125.908 123.888 125.876 123.842C125.844 123.797 125.826 123.742 125.826 123.687C125.826 123.631 125.844 123.577 125.876 123.531C125.908 123.486 125.954 123.451 126.006 123.433L129.997 121.132C130.131 121.063 130.28 121.026 130.431 121.026C130.583 121.026 130.732 121.063 130.866 121.132L134.826 123.433C134.882 123.449 134.93 123.482 134.965 123.528C134.999 123.573 135.018 123.629 135.018 123.687C135.018 123.744 134.999 123.8 134.965 123.846C134.93 123.891 134.882 123.925 134.826 123.941L130.835 126.241ZM83.4333 127.19C83.2976 127.258 83.1481 127.293 82.9966 127.293C82.845 127.293 82.6956 127.258 82.5599 127.19L78.5992 124.89C78.5466 124.872 78.501 124.837 78.4688 124.792C78.4366 124.746 78.4193 124.692 78.4193 124.636C78.4193 124.58 78.4366 124.526 78.4688 124.481C78.501 124.435 78.5466 124.401 78.5992 124.382L82.5853 122.077C82.721 122.009 82.8704 121.974 83.022 121.974C83.1735 121.974 83.323 122.009 83.4587 122.077L87.4194 124.382C87.472 124.401 87.5175 124.435 87.5498 124.481C87.582 124.526 87.5993 124.58 87.5993 124.636C87.5993 124.692 87.582 124.746 87.5498 124.792C87.5175 124.837 87.472 124.872 87.4194 124.89L83.4333 127.19ZM116.577 127.871C116.442 127.941 116.292 127.977 116.14 127.977C115.988 127.977 115.838 127.941 115.703 127.871L111.742 125.571C111.69 125.552 111.644 125.518 111.612 125.472C111.58 125.427 111.563 125.372 111.563 125.317C111.563 125.261 111.58 125.207 111.612 125.161C111.644 125.116 111.69 125.081 111.742 125.063L115.734 122.762C115.869 122.693 116.018 122.656 116.17 122.656C116.322 122.656 116.472 122.693 116.607 122.762L120.568 125.063C120.62 125.081 120.666 125.116 120.698 125.161C120.73 125.207 120.748 125.261 120.748 125.317C120.748 125.372 120.73 125.427 120.698 125.472C120.666 125.518 120.62 125.552 120.568 125.571L116.577 127.871ZM91.9082 123.301C92.0432 123.231 92.193 123.194 92.3449 123.194C92.4969 123.194 92.6467 123.231 92.7816 123.301L96.7424 125.601C96.795 125.619 96.8405 125.654 96.8727 125.699C96.9049 125.745 96.9222 125.799 96.9222 125.855C96.9222 125.911 96.9049 125.965 96.8727 126.01C96.8405 126.056 96.795 126.09 96.7424 126.109L92.7563 128.409C92.6204 128.479 92.4698 128.515 92.317 128.515C92.1642 128.515 92.0136 128.479 91.8778 128.409L87.917 126.109C87.8645 126.09 87.8189 126.056 87.7867 126.01C87.7545 125.965 87.7372 125.911 87.7372 125.855C87.7372 125.799 87.7545 125.745 87.7867 125.699C87.8189 125.654 87.8645 125.619 87.917 125.601L91.9082 123.301ZM124.254 124.438C124.39 124.371 124.539 124.335 124.691 124.335C124.843 124.335 124.992 124.371 125.128 124.438L129.088 126.744C129.144 126.759 129.192 126.793 129.227 126.838C129.261 126.884 129.28 126.94 129.28 126.997C129.28 127.055 129.261 127.111 129.227 127.156C129.192 127.202 129.144 127.236 129.088 127.251L125.097 129.557C124.962 129.624 124.814 129.659 124.663 129.659C124.512 129.659 124.364 129.624 124.229 129.557L120.263 127.256C120.208 127.241 120.159 127.207 120.125 127.161C120.09 127.116 120.072 127.06 120.072 127.002C120.072 126.945 120.09 126.889 120.125 126.843C120.159 126.798 120.208 126.764 120.263 126.749L124.254 124.438ZM77.6953 130.496C77.5603 130.566 77.4106 130.602 77.2586 130.602C77.1066 130.602 76.9569 130.566 76.8219 130.496L72.8612 128.196C72.8086 128.177 72.763 128.143 72.7308 128.097C72.6986 128.052 72.6813 127.998 72.6813 127.942C72.6813 127.886 72.6986 127.832 72.7308 127.786C72.763 127.741 72.8086 127.706 72.8612 127.688L76.8524 125.388C76.988 125.32 77.1375 125.285 77.2891 125.285C77.4406 125.285 77.5901 125.32 77.7258 125.388L81.6865 127.688C81.7391 127.706 81.7846 127.741 81.8168 127.786C81.8491 127.832 81.8664 127.886 81.8664 127.942C81.8664 127.998 81.8491 128.052 81.8168 128.097C81.7846 128.143 81.7391 128.177 81.6865 128.196L77.6953 130.496ZM104.567 127.688C104.62 127.706 104.665 127.741 104.698 127.786C104.73 127.832 104.747 127.886 104.747 127.942C104.747 127.998 104.73 128.052 104.698 128.097C104.665 128.143 104.62 128.177 104.567 128.196L100.581 130.501C100.446 130.569 100.296 130.604 100.145 130.604C99.993 130.604 99.8435 130.569 99.7078 130.501L95.7471 128.196C95.6945 128.177 95.649 128.143 95.6168 128.097C95.5845 128.052 95.5672 127.998 95.5672 127.942C95.5672 127.886 95.5845 127.832 95.6168 127.786C95.649 127.741 95.6945 127.706 95.7471 127.688L99.7383 125.388C99.874 125.32 100.023 125.285 100.175 125.285C100.327 125.285 100.476 125.32 100.612 125.388L104.567 127.688ZM106.004 128.876C105.761 128.739 105.766 128.511 106.004 128.368L109.996 126.068C110.131 126.001 110.281 125.965 110.432 125.965C110.584 125.965 110.733 126.001 110.869 126.068L114.83 128.368C114.882 128.387 114.928 128.421 114.96 128.467C114.992 128.512 115.01 128.567 115.01 128.622C115.01 128.678 114.992 128.732 114.96 128.778C114.928 128.823 114.882 128.858 114.83 128.876L110.844 131.182C110.708 131.249 110.558 131.284 110.407 131.284C110.255 131.284 110.106 131.249 109.97 131.182L106.004 128.876ZM86.1398 131.725L82.1791 129.42C82.1239 129.404 82.0753 129.37 82.0408 129.325C82.0062 129.279 81.9875 129.223 81.9875 129.166C81.9875 129.108 82.0062 129.052 82.0408 129.007C82.0753 128.961 82.1239 128.928 82.1791 128.912L86.1652 126.606C86.3008 126.539 86.4503 126.504 86.6019 126.504C86.7534 126.504 86.9029 126.539 87.0386 126.606L90.9993 128.912C91.0545 128.928 91.103 128.961 91.1376 129.007C91.1721 129.052 91.1908 129.108 91.1908 129.166C91.1908 129.223 91.1721 129.279 91.1376 129.325C91.103 129.37 91.0545 129.404 90.9993 129.42L87.0081 131.725C86.8723 131.79 86.7234 131.823 86.5728 131.821C86.4222 131.819 86.274 131.783 86.1398 131.715V131.725ZM131.927 126.617C132.062 126.548 132.212 126.512 132.364 126.512C132.515 126.512 132.665 126.548 132.8 126.617L136.766 128.922C136.821 128.938 136.87 128.971 136.904 129.017C136.939 129.063 136.958 129.118 136.958 129.176C136.958 129.233 136.939 129.289 136.904 129.335C136.87 129.381 136.821 129.414 136.766 129.43L131.592 132.385C131.456 132.454 131.307 132.49 131.155 132.49C131.003 132.49 130.854 132.454 130.718 132.385L126.758 130.08C126.514 129.937 126.519 129.714 126.758 129.572L131.927 126.617ZM119.359 132.842C119.225 132.912 119.076 132.948 118.925 132.948C118.774 132.948 118.625 132.912 118.491 132.842L114.525 130.542C114.472 130.523 114.427 130.489 114.395 130.443C114.363 130.398 114.345 130.344 114.345 130.288C114.345 130.232 114.363 130.178 114.395 130.132C114.427 130.087 114.472 130.052 114.525 130.034L118.511 127.734C118.646 127.664 118.796 127.627 118.948 127.627C119.1 127.627 119.25 127.664 119.385 127.734L123.345 130.034C123.4 130.05 123.449 130.083 123.484 130.129C123.518 130.175 123.537 130.23 123.537 130.288C123.537 130.345 123.518 130.401 123.484 130.447C123.449 130.493 123.4 130.526 123.345 130.542L119.359 132.842ZM71.9573 133.792C71.8216 133.859 71.6721 133.894 71.5206 133.894C71.3691 133.894 71.2196 133.859 71.0839 133.792L67.1232 131.486C67.068 131.47 67.0195 131.437 66.9849 131.391C66.9503 131.346 66.9316 131.29 66.9316 131.232C66.9316 131.175 66.9503 131.119 66.9849 131.073C67.0195 131.028 67.068 130.994 67.1232 130.978L71.1144 128.673C71.25 128.606 71.3995 128.57 71.5511 128.57C71.7026 128.57 71.8521 128.606 71.9878 128.673L75.9485 130.978C76.1872 131.116 76.1872 131.344 75.9485 131.486L71.9573 133.792ZM98.8294 130.984C99.068 131.121 99.068 131.349 98.8294 131.491L94.8433 133.792C94.7076 133.859 94.5581 133.894 94.4066 133.894C94.255 133.894 94.1055 133.859 93.9699 133.792L90.0091 131.491C89.9565 131.473 89.911 131.438 89.8788 131.393C89.8466 131.348 89.8293 131.293 89.8293 131.237C89.8293 131.182 89.8466 131.127 89.8788 131.082C89.911 131.036 89.9565 131.002 90.0091 130.984L94.0003 128.678C94.136 128.611 94.2855 128.576 94.437 128.576C94.5886 128.576 94.7381 128.611 94.8737 128.678L98.8294 130.984ZM100.266 132.172C100.214 132.153 100.168 132.119 100.136 132.073C100.104 132.028 100.087 131.974 100.087 131.918C100.087 131.862 100.104 131.808 100.136 131.762C100.168 131.717 100.214 131.682 100.266 131.664L104.253 129.364C104.388 129.294 104.539 129.257 104.692 129.257C104.845 129.257 104.995 129.294 105.131 129.364L109.092 131.664C109.33 131.801 109.33 132.03 109.092 132.172L105.106 134.472C104.971 134.542 104.821 134.578 104.669 134.578C104.517 134.578 104.367 134.542 104.232 134.472L100.266 132.172ZM80.4323 129.907C80.5672 129.837 80.717 129.801 80.869 129.801C81.0209 129.801 81.1707 129.837 81.3057 129.907L85.2664 132.207C85.319 132.226 85.3645 132.26 85.3967 132.306C85.429 132.351 85.4463 132.405 85.4463 132.461C85.4463 132.517 85.429 132.571 85.3967 132.617C85.3645 132.662 85.319 132.697 85.2664 132.715L81.2752 135.015C81.1402 135.085 80.9905 135.122 80.8385 135.122C80.6865 135.122 80.5368 135.085 80.4018 135.015L76.4411 132.715C76.3885 132.697 76.3429 132.662 76.3107 132.617C76.2785 132.571 76.2612 132.517 76.2612 132.461C76.2612 132.405 76.2785 132.351 76.3107 132.306C76.3429 132.26 76.3885 132.226 76.4411 132.207L80.4323 129.907ZM113.621 136.153C113.486 136.221 113.336 136.257 113.185 136.257C113.033 136.257 112.883 136.221 112.748 136.153L108.787 133.847C108.732 133.832 108.683 133.798 108.649 133.753C108.614 133.707 108.596 133.651 108.596 133.594C108.596 133.536 108.614 133.48 108.649 133.435C108.683 133.389 108.732 133.355 108.787 133.34L112.773 131.034C112.909 130.967 113.058 130.932 113.21 130.932C113.361 130.932 113.511 130.967 113.647 131.034L117.607 133.34C117.851 133.477 117.846 133.705 117.607 133.847L113.621 136.153ZM66.2193 137.107C66.084 137.176 65.9344 137.212 65.7826 137.212C65.6309 137.212 65.4812 137.176 65.3459 137.107L61.3852 134.807C61.1465 134.665 61.1414 134.442 61.3852 134.299L65.3764 131.999C65.5108 131.93 65.6596 131.895 65.8105 131.895C65.9615 131.895 66.1103 131.93 66.2447 131.999L70.2105 134.299C70.2631 134.318 70.3086 134.352 70.3409 134.398C70.3731 134.443 70.3904 134.498 70.3904 134.553C70.3904 134.609 70.3731 134.663 70.3409 134.709C70.3086 134.754 70.2631 134.789 70.2105 134.807L66.2193 137.107ZM88.2268 137.107L84.261 134.802C84.0223 134.665 84.0223 134.436 84.261 134.294L88.2471 131.994C88.3828 131.926 88.5322 131.891 88.6838 131.891C88.8353 131.891 88.9848 131.926 89.1205 131.994L93.0863 134.294C93.1389 134.313 93.1844 134.347 93.2166 134.393C93.2489 134.438 93.2662 134.492 93.2662 134.548C93.2662 134.604 93.2489 134.658 93.2166 134.704C93.1844 134.749 93.1389 134.784 93.0863 134.802L89.1002 137.107C88.9653 137.177 88.8162 137.213 88.6647 137.215C88.5131 137.217 88.3633 137.184 88.2268 137.118V137.107ZM94.5233 135.483C94.2847 135.345 94.2847 135.117 94.5233 134.975L98.5095 132.674C98.6451 132.607 98.7946 132.572 98.9462 132.572C99.0977 132.572 99.2472 132.607 99.3829 132.674L103.349 134.975C103.401 134.993 103.447 135.028 103.479 135.073C103.511 135.119 103.529 135.173 103.529 135.229C103.529 135.284 103.511 135.339 103.479 135.384C103.447 135.43 103.401 135.464 103.349 135.483L99.3626 137.788C99.2269 137.855 99.0774 137.891 98.9259 137.891C98.7743 137.891 98.6248 137.855 98.4892 137.788L94.5233 135.483ZM97.3111 140.479C97.2559 140.463 97.2074 140.43 97.1728 140.384C97.1383 140.338 97.1196 140.283 97.1196 140.225C97.1196 140.168 97.1383 140.112 97.1728 140.066C97.2074 140.02 97.2559 139.987 97.3111 139.971L101.302 137.666C101.438 137.598 101.587 137.563 101.739 137.563C101.891 137.563 102.04 137.598 102.176 137.666L106.136 139.971C106.192 139.987 106.24 140.02 106.275 140.066C106.309 140.112 106.328 140.168 106.328 140.225C106.328 140.283 106.309 140.338 106.275 140.384C106.24 140.43 106.192 140.463 106.136 140.479L102.14 142.795C102.004 142.862 101.855 142.897 101.703 142.897C101.552 142.897 101.402 142.862 101.267 142.795L97.3111 140.479ZM74.7197 133.228C74.8553 133.16 75.0048 133.125 75.1564 133.125C75.3079 133.125 75.4574 133.16 75.5931 133.228L79.5538 135.533C79.609 135.549 79.6575 135.582 79.6921 135.628C79.7266 135.674 79.7453 135.73 79.7453 135.787C79.7453 135.845 79.7266 135.9 79.6921 135.946C79.6575 135.992 79.609 136.025 79.5538 136.041L75.5677 138.346C75.432 138.414 75.2825 138.449 75.131 138.449C74.9794 138.449 74.8299 138.414 74.6943 138.346L70.7335 136.041C70.6784 136.025 70.6298 135.992 70.5953 135.946C70.5607 135.9 70.542 135.845 70.542 135.787C70.542 135.73 70.5607 135.674 70.5953 135.628C70.6298 135.582 70.6784 135.549 70.7335 135.533L74.7197 133.228ZM107.909 139.479C107.773 139.547 107.624 139.583 107.472 139.583C107.32 139.583 107.171 139.547 107.035 139.479L103.074 137.179C103.022 137.16 102.976 137.126 102.944 137.08C102.912 137.035 102.895 136.98 102.895 136.925C102.895 136.869 102.912 136.815 102.944 136.769C102.976 136.724 103.022 136.689 103.074 136.671L107.061 134.37C107.196 134.301 107.345 134.264 107.497 134.264C107.649 134.264 107.799 134.301 107.934 134.37L111.895 136.671C111.95 136.686 111.998 136.72 112.033 136.766C112.068 136.811 112.086 136.867 112.086 136.925C112.086 136.982 112.068 137.038 112.033 137.084C111.998 137.129 111.95 137.163 111.895 137.179L107.909 139.479ZM60.5016 140.428C60.366 140.496 60.2165 140.531 60.0649 140.531C59.9134 140.531 59.7639 140.496 59.6282 140.428L55.6675 138.123C55.6123 138.107 55.5638 138.074 55.5292 138.028C55.4947 137.982 55.476 137.926 55.476 137.869C55.476 137.812 55.4947 137.756 55.5292 137.71C55.5638 137.664 55.6123 137.631 55.6675 137.615L59.6587 135.31C59.7935 135.242 59.9421 135.207 60.0929 135.207C60.2436 135.207 60.3922 135.242 60.527 135.31L64.4928 137.615C64.548 137.631 64.5966 137.664 64.6311 137.71C64.6657 137.756 64.6844 137.812 64.6844 137.869C64.6844 137.926 64.6657 137.982 64.6311 138.028C64.5966 138.074 64.548 138.107 64.4928 138.123L60.5016 140.428ZM87.3737 137.62C87.6124 137.757 87.6124 137.986 87.3737 138.128L83.352 140.428C83.2164 140.496 83.0669 140.531 82.9153 140.531C82.7638 140.531 82.6143 140.496 82.4786 140.428L78.5179 138.123C78.4627 138.107 78.4142 138.074 78.3796 138.028C78.3451 137.982 78.3264 137.926 78.3264 137.869C78.3264 137.812 78.3451 137.756 78.3796 137.71C78.4142 137.664 78.4627 137.631 78.5179 137.615L82.504 135.315C82.639 135.245 82.7888 135.209 82.9407 135.209C83.0927 135.209 83.2425 135.245 83.3774 135.315L87.3737 137.62ZM68.9461 141.652L64.9854 139.352C64.7417 139.21 64.7467 138.986 64.9854 138.844L68.9715 136.544C69.1074 136.474 69.258 136.437 69.4108 136.437C69.5635 136.437 69.7141 136.474 69.85 136.544L73.8107 138.844C73.8633 138.863 73.9089 138.897 73.9411 138.942C73.9733 138.988 73.9906 139.042 73.9906 139.098C73.9906 139.154 73.9733 139.208 73.9411 139.254C73.9089 139.299 73.8633 139.333 73.8107 139.352L69.8246 141.652C69.6864 141.726 69.532 141.765 69.3752 141.765C69.2184 141.765 69.064 141.726 68.9258 141.652H68.9461ZM54.7636 143.739C54.6287 143.809 54.4789 143.846 54.3269 143.846C54.175 143.846 54.0252 143.809 53.8903 143.739L49.9295 141.439C49.8769 141.42 49.8314 141.386 49.7992 141.341C49.767 141.295 49.7496 141.241 49.7496 141.185C49.7496 141.129 49.767 141.075 49.7992 141.029C49.8314 140.984 49.8769 140.95 49.9295 140.931L53.9004 138.631C54.0348 138.562 54.1836 138.526 54.3346 138.526C54.4855 138.526 54.6343 138.562 54.7687 138.631L58.7295 140.931C58.782 140.95 58.8276 140.984 58.8598 141.029C58.892 141.075 58.9093 141.129 58.9093 141.185C58.9093 141.241 58.892 141.295 58.8598 141.341C58.8276 141.386 58.782 141.42 58.7295 141.439L54.7636 143.739ZM81.6306 140.931C81.6832 140.95 81.7288 140.984 81.761 141.029C81.7932 141.075 81.8105 141.129 81.8105 141.185C81.8105 141.241 81.7932 141.295 81.761 141.341C81.7288 141.386 81.6832 141.42 81.6306 141.439L77.6394 143.744C77.505 143.813 77.3562 143.849 77.2053 143.849C77.0543 143.849 76.9055 143.813 76.7711 143.744L72.8104 141.444C72.7578 141.425 72.7123 141.391 72.68 141.346C72.6478 141.3 72.6305 141.246 72.6305 141.19C72.6305 141.134 72.6478 141.08 72.68 141.034C72.7123 140.989 72.7578 140.955 72.8104 140.936L76.8016 138.636C76.936 138.567 77.0848 138.531 77.2357 138.531C77.3867 138.531 77.5355 138.567 77.6699 138.636L81.6306 140.931ZM83.0677 142.119C82.829 141.982 82.829 141.754 83.0677 141.612L87.0538 139.311C87.1895 139.244 87.339 139.209 87.4905 139.209C87.642 139.209 87.7915 139.244 87.9272 139.311L91.8879 141.612C91.9405 141.63 91.9861 141.664 92.0183 141.71C92.0505 141.755 92.0678 141.81 92.0678 141.865C92.0678 141.921 92.0505 141.975 92.0183 142.021C91.9861 142.066 91.9405 142.101 91.8879 142.119L87.8967 144.425C87.7611 144.492 87.6116 144.527 87.46 144.527C87.3085 144.527 87.159 144.492 87.0233 144.425L83.0677 142.119ZM63.2081 144.968L59.2423 142.663C59.1871 142.647 59.1386 142.614 59.1041 142.568C59.0695 142.522 59.0508 142.466 59.0508 142.409C59.0508 142.351 59.0695 142.296 59.1041 142.25C59.1386 142.204 59.1871 142.171 59.2423 142.155L63.2284 139.849C63.3641 139.782 63.5136 139.747 63.6651 139.747C63.8167 139.747 63.9662 139.782 64.1018 139.849L68.0677 142.155C68.1228 142.171 68.1714 142.204 68.2059 142.25C68.2405 142.296 68.2592 142.351 68.2592 142.409C68.2592 142.466 68.2405 142.522 68.2059 142.568C68.1714 142.614 68.1228 142.647 68.0677 142.663L64.0561 144.968C63.9211 145.035 63.7726 145.069 63.622 145.069C63.4714 145.069 63.3228 145.035 63.1878 144.968H63.2081ZM96.4225 146.105C96.288 146.174 96.1392 146.21 95.9883 146.21C95.8374 146.21 95.6886 146.174 95.5542 146.105L91.5934 143.805C91.3497 143.663 91.3548 143.44 91.5934 143.297L95.5795 140.997C95.7154 140.927 95.866 140.891 96.0188 140.891C96.1716 140.891 96.3222 140.927 96.458 140.997L100.419 143.297C100.657 143.44 100.652 143.663 100.419 143.805L96.4225 146.105ZM71.0331 147.055L67.0673 144.75C67.0121 144.734 66.9636 144.701 66.929 144.655C66.8945 144.609 66.8758 144.553 66.8758 144.496C66.8758 144.438 66.8945 144.383 66.929 144.337C66.9636 144.291 67.0121 144.258 67.0673 144.242L71.0534 141.936C71.1888 141.868 71.3384 141.832 71.4901 141.832C71.6419 141.832 71.7915 141.868 71.9268 141.936L75.8876 144.237C75.9427 144.253 75.9913 144.286 76.0258 144.332C76.0604 144.377 76.0791 144.433 76.0791 144.491C76.0791 144.548 76.0604 144.604 76.0258 144.65C75.9913 144.695 75.9427 144.729 75.8876 144.745L71.8811 147.06C71.7467 147.129 71.5979 147.164 71.447 147.164C71.296 147.164 71.1472 147.129 71.0128 147.06L71.0331 147.055ZM77.3297 145.43C77.2745 145.414 77.226 145.381 77.1914 145.335C77.1569 145.289 77.1382 145.234 77.1382 145.176C77.1382 145.119 77.1569 145.063 77.1914 145.017C77.226 144.971 77.2745 144.938 77.3297 144.922L81.3209 142.622C81.4558 142.552 81.6056 142.516 81.7576 142.516C81.9096 142.516 82.0593 142.552 82.1943 142.622L86.155 144.922C86.2076 144.941 86.2531 144.975 86.2854 145.021C86.3176 145.066 86.3349 145.12 86.3349 145.176C86.3349 145.232 86.3176 145.286 86.2854 145.332C86.2531 145.377 86.2076 145.412 86.155 145.43L82.1638 147.73C82.0294 147.799 81.8806 147.835 81.7297 147.835C81.5787 147.835 81.4299 147.799 81.2955 147.73L77.3297 145.43ZM90.6845 149.416C90.5501 149.485 90.4013 149.521 90.2503 149.521C90.0994 149.521 89.9506 149.485 89.8162 149.416L85.8503 147.111C85.7952 147.095 85.7466 147.062 85.7121 147.016C85.6775 146.97 85.6588 146.914 85.6588 146.857C85.6588 146.8 85.6775 146.744 85.7121 146.698C85.7466 146.652 85.7952 146.619 85.8503 146.603L89.8365 144.298C89.9721 144.23 90.1216 144.195 90.2732 144.195C90.4247 144.195 90.5742 144.23 90.7099 144.298L94.6757 146.603C94.7309 146.619 94.7794 146.652 94.814 146.698C94.8485 146.744 94.8672 146.8 94.8672 146.857C94.8672 146.914 94.8485 146.97 94.814 147.016C94.7794 147.062 94.7309 147.095 94.6757 147.111L90.6845 149.416ZM76.4258 151.051C76.2905 151.12 76.1409 151.156 75.9891 151.156C75.8374 151.156 75.6878 151.12 75.5524 151.051L71.5917 148.751C71.5391 148.732 71.4936 148.698 71.4614 148.653C71.4291 148.607 71.4118 148.553 71.4118 148.497C71.4118 148.441 71.4291 148.387 71.4614 148.342C71.4936 148.296 71.5391 148.262 71.5917 148.243L75.5829 145.943C75.7182 145.874 75.8678 145.838 76.0196 145.838C76.1714 145.838 76.321 145.874 76.4563 145.943L80.417 148.243C80.4696 148.262 80.5152 148.296 80.5474 148.342C80.5796 148.387 80.5969 148.441 80.5969 148.497C80.5969 148.553 80.5796 148.607 80.5474 148.653C80.5152 148.698 80.4696 148.732 80.417 148.751L76.4258 151.051ZM125.046 130.593C125.181 130.524 125.33 130.488 125.481 130.488C125.632 130.488 125.78 130.524 125.915 130.593L129.881 132.898C129.936 132.914 129.984 132.947 130.019 132.993C130.053 133.039 130.072 133.094 130.072 133.152C130.072 133.209 130.053 133.265 130.019 133.311C129.984 133.357 129.936 133.39 129.881 133.406L98.4333 151.564C98.2985 151.632 98.1499 151.667 97.9992 151.667C97.8484 151.667 97.6998 151.632 97.565 151.564L93.5992 149.259C93.544 149.243 93.4955 149.21 93.4609 149.164C93.4263 149.118 93.4077 149.062 93.4077 149.005C93.4077 148.947 93.4263 148.892 93.4609 148.846C93.4955 148.8 93.544 148.767 93.5992 148.751L125.046 130.593ZM80.1174 149.924L84.1036 147.624C84.2385 147.554 84.3883 147.517 84.5403 147.517C84.6922 147.517 84.842 147.554 84.977 147.624L88.9377 149.924C89.1814 150.066 89.1764 150.29 88.9377 150.432L84.9516 152.732C84.8162 152.801 84.6666 152.837 84.5149 152.837C84.3631 152.837 84.2135 152.801 84.0782 152.732L80.1174 150.432C80.064 150.415 80.017 150.383 79.9829 150.339C79.9487 150.295 79.9292 150.241 79.927 150.185C79.9248 150.129 79.9399 150.074 79.9704 150.027C80.0009 149.981 80.0452 149.944 80.0971 149.924H80.1174ZM51.7575 146.481C51.8932 146.414 52.0427 146.379 52.1942 146.379C52.3458 146.379 52.4953 146.414 52.6309 146.481L56.5917 148.787C56.6469 148.802 56.6954 148.836 56.7299 148.881C56.7645 148.927 56.7832 148.983 56.7832 149.04C56.7832 149.098 56.7645 149.154 56.7299 149.199C56.6954 149.245 56.6469 149.279 56.5917 149.294L52.6005 151.6C52.4648 151.667 52.3153 151.702 52.1638 151.702C52.0122 151.702 51.8627 151.667 51.7271 151.6L47.7663 149.294C47.7112 149.279 47.6626 149.245 47.6281 149.199C47.5935 149.154 47.5748 149.098 47.5748 149.04C47.5748 148.983 47.5935 148.927 47.6281 148.881C47.6626 148.836 47.7112 148.802 47.7663 148.787L51.7575 146.481ZM65.2951 150.366L61.309 148.076C61.2564 148.057 61.2109 148.023 61.1787 147.977C61.1465 147.932 61.1292 147.877 61.1292 147.822C61.1292 147.766 61.1465 147.712 61.1787 147.666C61.2109 147.621 61.2564 147.586 61.309 147.568L65.2951 145.268C65.4305 145.199 65.5801 145.163 65.7318 145.163C65.8836 145.163 66.0332 145.199 66.1685 145.268L70.1496 147.568C70.3882 147.71 70.3933 147.933 70.1496 148.076L66.1635 150.376C66.0257 150.447 65.8728 150.483 65.7179 150.481C65.563 150.479 65.4109 150.44 65.2748 150.366H65.2951ZM60.4052 153.661C60.2698 153.73 60.1202 153.766 59.9685 153.766C59.8167 153.766 59.6671 153.73 59.5318 153.661L55.571 151.356C55.5159 151.34 55.4673 151.307 55.4328 151.261C55.3982 151.215 55.3795 151.159 55.3795 151.102C55.3795 151.045 55.3982 150.989 55.4328 150.943C55.4673 150.897 55.5159 150.864 55.571 150.848L59.5572 148.543C59.6928 148.475 59.8423 148.44 59.9938 148.44C60.1454 148.44 60.2949 148.475 60.4305 148.543L64.3913 150.848C64.4465 150.864 64.495 150.897 64.5296 150.943C64.5641 150.989 64.5828 151.045 64.5828 151.102C64.5828 151.159 64.5641 151.215 64.5296 151.261C64.495 151.307 64.4465 151.34 64.3913 151.356L60.4052 153.661ZM74.6587 151.534C74.7139 151.549 74.7624 151.583 74.797 151.629C74.8316 151.674 74.8503 151.73 74.8503 151.788C74.8503 151.845 74.8316 151.901 74.797 151.947C74.7624 151.992 74.7139 152.026 74.6587 152.041L70.6574 154.362C70.522 154.431 70.3724 154.467 70.2207 154.467C70.0689 154.467 69.9193 154.431 69.784 154.362L65.8232 152.057C65.7681 152.041 65.7195 152.008 65.685 151.962C65.6504 151.916 65.6317 151.86 65.6317 151.803C65.6317 151.745 65.6504 151.69 65.685 151.644C65.7195 151.598 65.7681 151.565 65.8232 151.549L69.8144 149.244C69.9489 149.175 70.0977 149.139 70.2486 149.139C70.3995 149.139 70.5483 149.175 70.6828 149.244L74.6587 151.534ZM64.9549 152.549L68.9207 154.85C68.9733 154.868 69.0189 154.902 69.0511 154.948C69.0833 154.993 69.1006 155.048 69.1006 155.103C69.1006 155.159 69.0833 155.214 69.0511 155.259C69.0189 155.304 68.9733 155.339 68.9207 155.357L64.9295 157.663C64.7942 157.731 64.6446 157.767 64.4928 157.767C64.3411 157.767 64.1915 157.731 64.0561 157.663L60.0954 155.362C59.8567 155.22 59.8517 154.997 60.0954 154.855L64.0866 152.554C64.2218 152.487 64.371 152.453 64.522 152.455C64.6729 152.457 64.8213 152.494 64.9549 152.564V152.549ZM58.3537 155.86C58.4881 155.791 58.6369 155.756 58.7879 155.756C58.9388 155.756 59.0876 155.791 59.222 155.86L63.1827 158.16C63.2379 158.176 63.2865 158.209 63.321 158.255C63.3556 158.301 63.3743 158.357 63.3743 158.414C63.3743 158.472 63.3556 158.527 63.321 158.573C63.2865 158.619 63.2379 158.652 63.1827 158.668L54.6367 163.604C54.5017 163.674 54.352 163.71 54.2 163.71C54.048 163.71 53.8983 163.674 53.7633 163.604L49.8026 161.303C49.5588 161.161 49.5639 160.938 49.8026 160.796L58.3537 155.86ZM66.8744 157.546C67.0097 157.477 67.1593 157.441 67.3111 157.441C67.4628 157.441 67.6124 157.477 67.7478 157.546L71.6831 159.836C71.7383 159.852 71.7868 159.885 71.8214 159.931C71.8559 159.977 71.8746 160.032 71.8746 160.09C71.8746 160.147 71.8559 160.203 71.8214 160.249C71.7868 160.295 71.7383 160.328 71.6831 160.344L60.3138 166.909C60.1788 166.979 60.029 167.016 59.8771 167.016C59.7251 167.016 59.5753 166.979 59.4404 166.909L55.4999 164.619C55.4448 164.604 55.3962 164.57 55.3617 164.524C55.3271 164.479 55.3084 164.423 55.3084 164.365C55.3084 164.308 55.3271 164.252 55.3617 164.206C55.3962 164.161 55.4448 164.127 55.4999 164.112L66.8744 157.546ZM84.9262 153.727C85.0618 153.66 85.2113 153.625 85.3629 153.625C85.5144 153.625 85.6639 153.66 85.7996 153.727L89.7603 156.033C90.004 156.17 89.999 156.393 89.7603 156.54L85.7996 158.825C85.6648 158.893 85.5161 158.928 85.3654 158.928C85.2147 158.928 85.066 158.893 84.9313 158.825L80.9654 156.52C80.7268 156.383 80.7268 156.16 80.9654 156.012L84.9262 153.727ZM78.325 150.919C78.4606 150.852 78.6101 150.817 78.7617 150.817C78.9132 150.817 79.0627 150.852 79.1983 150.919L83.1591 153.225C83.4028 153.362 83.3977 153.59 83.1591 153.732L79.3101 155.956C79.2547 155.971 79.2018 155.993 79.1526 156.022C79.0173 156.091 78.8677 156.127 78.7159 156.127C78.5642 156.127 78.4146 156.091 78.2792 156.022L74.3439 153.732C74.2887 153.717 74.2402 153.683 74.2056 153.638C74.1711 153.592 74.1524 153.536 74.1524 153.478C74.1524 153.421 74.1711 153.365 74.2056 153.319C74.2402 153.274 74.2887 153.24 74.3439 153.225L78.325 150.919ZM72.587 154.23C72.7223 154.161 72.8719 154.126 73.0237 154.126C73.1754 154.126 73.325 154.161 73.4604 154.23L77.4008 156.515C77.4534 156.534 77.4989 156.568 77.5311 156.613C77.5633 156.659 77.5806 156.713 77.5806 156.769C77.5806 156.825 77.5633 156.879 77.5311 156.925C77.4989 156.97 77.4534 157.004 77.4008 157.023L73.4146 159.328C73.2793 159.397 73.1297 159.433 72.978 159.433C72.8262 159.433 72.6766 159.397 72.5413 159.328L68.6008 157.043C68.5483 157.025 68.5027 156.99 68.4705 156.945C68.4383 156.899 68.421 156.845 68.421 156.789C68.421 156.734 68.4383 156.679 68.4705 156.634C68.5027 156.588 68.5483 156.554 68.6008 156.535L72.587 154.23ZM79.1882 157.084C79.3231 157.014 79.4729 156.977 79.6249 156.977C79.7769 156.977 79.9266 157.014 80.0616 157.084L83.9512 159.343C84.195 159.481 84.1899 159.709 83.9512 159.851L79.1882 162.603C79.0532 162.673 78.9035 162.71 78.7515 162.71C78.5995 162.71 78.4497 162.673 78.3148 162.603L74.4251 160.344C74.3726 160.325 74.327 160.291 74.2948 160.245C74.2626 160.2 74.2453 160.146 74.2453 160.09C74.2453 160.034 74.2626 159.98 74.2948 159.934C74.327 159.889 74.3726 159.854 74.4251 159.836L79.1882 157.084ZM75.3188 162.456C75.4538 162.386 75.6036 162.35 75.7555 162.35C75.9075 162.35 76.0573 162.386 76.1922 162.456L77.3754 163.142C77.4306 163.157 77.4791 163.191 77.5137 163.237C77.5482 163.282 77.5669 163.338 77.5669 163.396C77.5669 163.453 77.5482 163.509 77.5137 163.555C77.4791 163.6 77.4306 163.634 77.3754 163.649L72.6073 166.402C72.4732 166.472 72.3243 166.508 72.1731 166.508C72.0219 166.508 71.873 166.472 71.739 166.402L70.5558 165.716C70.5006 165.7 70.4521 165.667 70.4175 165.621C70.383 165.575 70.3643 165.52 70.3643 165.462C70.3643 165.405 70.383 165.349 70.4175 165.303C70.4521 165.257 70.5006 165.224 70.5558 165.208L75.3188 162.456ZM72.6073 160.882C72.7422 160.812 72.892 160.776 73.044 160.776C73.1959 160.776 73.3457 160.812 73.4807 160.882L74.6638 161.568C74.719 161.583 74.7675 161.617 74.8021 161.662C74.8366 161.708 74.8553 161.764 74.8553 161.821C74.8553 161.879 74.8366 161.935 74.8021 161.98C74.7675 162.026 74.719 162.06 74.6638 162.075L69.9008 164.833C69.7651 164.9 69.6156 164.935 69.4641 164.935C69.3125 164.935 69.163 164.9 69.0274 164.833L67.8493 164.147C67.6106 164.005 67.6056 163.781 67.8493 163.639L72.6073 160.882ZM66.0314 164.675C66.1668 164.606 66.3164 164.571 66.4681 164.571C66.6199 164.571 66.7695 164.606 66.9048 164.675L70.7945 166.935C70.8497 166.951 70.8982 166.984 70.9327 167.03C70.9673 167.076 70.986 167.131 70.986 167.189C70.986 167.246 70.9673 167.302 70.9327 167.348C70.8982 167.394 70.8497 167.427 70.7945 167.443L66.0314 170.195C65.897 170.263 65.7482 170.299 65.5973 170.299C65.4463 170.299 65.2975 170.263 65.1631 170.195L61.2684 167.935C61.2158 167.917 61.1703 167.882 61.1381 167.837C61.1058 167.791 61.0885 167.737 61.0885 167.681C61.0885 167.626 61.1058 167.571 61.1381 167.526C61.1703 167.48 61.2158 167.446 61.2684 167.427L66.0314 164.675ZM91.8219 149.741C91.9572 149.672 92.1069 149.637 92.2586 149.637C92.4104 149.637 92.56 149.672 92.6953 149.741L96.6611 152.041C96.8998 152.184 96.8947 152.407 96.6611 152.549L91.5071 155.525C91.3727 155.594 91.2239 155.629 91.0729 155.629C90.922 155.629 90.7732 155.594 90.6388 155.525L86.673 153.22C86.4343 153.082 86.4343 152.859 86.673 152.712L91.8219 149.741ZM143.403 119.959C143.538 119.892 143.686 119.857 143.837 119.857C143.988 119.857 144.136 119.892 144.271 119.959L148.237 122.265C148.292 122.281 148.341 122.314 148.375 122.36C148.41 122.406 148.429 122.461 148.429 122.519C148.429 122.576 148.41 122.632 148.375 122.678C148.341 122.724 148.292 122.757 148.237 122.773L144.251 125.078C144.115 125.146 143.966 125.181 143.814 125.181C143.663 125.181 143.513 125.146 143.378 125.078L139.412 122.773C139.357 122.757 139.308 122.724 139.273 122.678C139.239 122.632 139.22 122.576 139.22 122.519C139.22 122.461 139.239 122.406 139.273 122.36C139.308 122.314 139.357 122.281 139.412 122.265L143.403 119.959ZM110.3 124.352C110.353 124.37 110.398 124.405 110.431 124.45C110.463 124.496 110.48 124.55 110.48 124.606C110.48 124.661 110.463 124.716 110.431 124.761C110.398 124.807 110.353 124.841 110.3 124.86L106.309 127.16C106.173 127.227 106.024 127.263 105.872 127.263C105.721 127.263 105.571 127.227 105.436 127.16L101.475 124.86C101.422 124.841 101.377 124.807 101.345 124.761C101.312 124.716 101.295 124.661 101.295 124.606C101.295 124.55 101.312 124.496 101.345 124.45C101.377 124.405 101.422 124.37 101.475 124.352L105.461 122.046C105.597 121.979 105.746 121.944 105.898 121.944C106.049 121.944 106.199 121.979 106.334 122.046L110.3 124.352ZM49.0053 147.06C48.8697 147.128 48.7202 147.163 48.5686 147.163C48.4171 147.163 48.2676 147.128 48.1319 147.06L44.1661 144.755C44.111 144.739 44.0624 144.706 44.0279 144.66C43.9933 144.614 43.9746 144.558 43.9746 144.501C43.9746 144.443 43.9933 144.388 44.0279 144.342C44.0624 144.296 44.111 144.263 44.1661 144.247L48.1523 141.942C48.2879 141.874 48.4374 141.839 48.589 141.839C48.7405 141.839 48.89 141.874 49.0257 141.942L52.9915 144.247C53.0466 144.263 53.0952 144.296 53.1297 144.342C53.1643 144.388 53.183 144.443 53.183 144.501C53.183 144.558 53.1643 144.614 53.1297 144.66C53.0952 144.706 53.0466 144.739 52.9915 144.755L49.0053 147.06Z" fill="#4F4F60"/>
<path d="M103.389 151.935C103.279 151.973 103.184 152.044 103.117 152.139C103.049 152.234 103.013 152.347 103.013 152.463C103.013 152.58 103.049 152.693 103.117 152.788C103.184 152.882 103.279 152.954 103.389 152.991L115.302 159.913C115.585 160.055 115.897 160.129 116.213 160.129C116.53 160.129 116.842 160.055 117.125 159.913L138.513 147.599C138.623 147.562 138.72 147.492 138.788 147.397C138.856 147.303 138.893 147.19 138.893 147.073C138.893 146.957 138.856 146.843 138.788 146.749C138.72 146.655 138.623 146.584 138.513 146.548L126.6 139.621C126.319 139.477 126.007 139.402 125.691 139.402C125.375 139.402 125.064 139.477 124.782 139.621L103.389 151.935Z" fill="#B7B3B6"/>
<path d="M101.008 105.039L41.2461 139.543L42.4343 140.371L102.191 105.867L101.008 105.039Z" fill="#8293A3"/>
<path d="M116.191 31.5273L116.358 90.9079L25.8658 143.159L25.6982 83.7735L116.191 31.5273Z" fill="url(#paint0_linear_2_4255)"/>
<path d="M116.191 31.5273L116.358 90.9079L25.8658 143.159L25.6982 83.7735L116.191 31.5273Z" fill="#EAF2FE"/>
<path d="M116.358 90.9054L116.353 90.0117L25.8604 142.263L25.8654 143.157L116.358 90.9054Z" fill="white"/>
<path d="M118.608 24.9554C118.753 24.9099 118.903 24.8776 119.054 24.8589H119.095C119.243 24.8465 119.392 24.855 119.537 24.8843C119.676 24.9119 119.81 24.9616 119.933 25.0316L117.724 23.7164C117.68 23.6904 117.634 23.6683 117.587 23.6504L117.445 23.5996L117.343 23.5742H117.292H117.125H116.866H116.764C116.683 23.5843 116.604 23.6013 116.526 23.625L116.419 23.6605L116.323 23.6961C116.281 23.705 116.24 23.7187 116.201 23.7367C116.069 23.7921 115.94 23.8548 115.815 23.9246L21.6457 78.2629C21.4687 78.3699 21.2991 78.4887 21.1379 78.6183L20.9805 78.7605C20.8993 78.8316 20.8129 78.8976 20.7368 78.9738L20.6352 79.0804L20.5438 79.1819L20.4372 79.2937C20.361 79.38 20.2848 79.4714 20.2138 79.5628L20.1427 79.6593L20.102 79.71C20.0801 79.7451 20.0563 79.779 20.0309 79.8116C19.9802 79.8878 19.9243 79.9639 19.8735 80.0452C19.8228 80.1264 19.7771 80.1975 19.7314 80.2788L19.6247 80.4717C19.5841 80.5479 19.5435 80.6291 19.5079 80.7053L19.4064 80.9186V80.944C19.3708 81.0252 19.3404 81.1065 19.3099 81.1877C19.2794 81.2689 19.2439 81.3603 19.2134 81.4467L19.1728 81.5787V81.6346L19.1423 81.726L19.0662 82.0408L19.0357 82.2337C19.0332 82.2659 19.0332 82.2981 19.0357 82.3302C19.0357 82.3607 19.0357 82.3912 19.0357 82.4216C19.013 82.6001 19.0028 82.78 19.0052 82.9599L19.188 147.865C19.1892 148.423 19.3365 148.97 19.6154 149.453C19.8943 149.936 20.295 150.338 20.7774 150.617L21.3969 151.013L21.209 84.275C21.2112 84.0642 21.2282 83.8538 21.2598 83.6454C21.2579 83.6133 21.2579 83.581 21.2598 83.5489C21.2915 83.3462 21.3373 83.146 21.3969 82.9497V82.8939C21.4652 82.6749 21.5449 82.4596 21.6356 82.249C21.7317 82.0297 21.8402 81.8161 21.9605 81.6092C22.0768 81.4077 22.2039 81.2128 22.3414 81.0252L22.382 80.9744C22.5049 80.7983 22.6371 80.6288 22.7781 80.4666L22.8695 80.3702C22.9812 80.2534 23.098 80.1518 23.2148 80.0452C23.3316 79.9385 23.3214 79.9487 23.3773 79.9081C23.5388 79.7773 23.7084 79.6569 23.885 79.5476L118.034 25.2144C118.195 25.1209 118.365 25.0427 118.542 24.9808L118.608 24.9554Z" fill="#B7B3B6"/>
<path d="M164.708 85.803L162.789 87.3263C163.274 87.7725 163.66 88.3157 163.921 88.9208L167.141 89.2305V91.2363L163.911 91.541C163.64 92.1457 163.248 92.6884 162.758 93.1354L164.657 94.6588L162.2 96.1161L159.549 95.0142C158.654 95.3234 157.73 95.5444 156.792 95.6744L156.254 97.543H152.79L152.283 95.6744C151.345 95.5475 150.423 95.3263 149.53 95.0142L146.885 96.1161L144.442 94.6994L146.352 93.176C145.868 92.7297 145.484 92.1864 145.224 91.5816L142 91.2718V89.2712L145.224 88.9614C145.496 88.3567 145.888 87.814 146.377 87.367L144.483 85.8436L146.936 84.4269L149.581 85.5288C150.479 85.2202 151.404 84.9992 152.344 84.8687L152.882 83H156.345L156.853 84.8687C157.788 84.9938 158.709 85.2133 159.6 85.5237L162.266 84.4218L164.708 85.803ZM157.406 91.8964C158.985 90.9875 158.991 89.5047 157.406 88.5958C156.523 88.1463 155.546 87.912 154.555 87.912C153.564 87.912 152.587 88.1463 151.704 88.5958C150.12 89.5098 150.114 90.9926 151.704 91.9015C152.588 92.3522 153.566 92.5872 154.558 92.5872C155.55 92.5872 156.528 92.3522 157.411 91.9015" fill="#B6CEF4"/>
<g opacity="0.6">
<g opacity="0.8">
<path d="M46.5043 17.1496C46.5043 15.549 45.3778 14.9087 44.001 15.709L2.50329 39.7871C1.1151 40.5875 0 42.5311 0 44.1317V82.3182L46.5043 55.3361V17.1496Z" fill="#0C5ADB"/>
<path d="M0.500671 81.4493V49.0479L46.0037 22.6489V55.0503L0.500671 81.4493Z" fill="#B6CDF4"/>
<path d="M38.1183 22.889C38.1183 23.7007 37.5494 24.6839 36.8439 25.0955C36.1384 25.5071 35.5695 25.1756 35.5695 24.3638C35.5695 23.5521 36.1384 22.5688 36.8439 22.1572C37.5494 21.7456 38.1183 22.0772 38.1183 22.889Z" fill="white"/>
<path d="M32.759 25.9988C32.759 26.8106 32.1901 27.7938 31.4846 28.2054C30.7791 28.617 30.2102 28.2854 30.2102 27.4737C30.2102 26.6619 30.7791 25.6787 31.4846 25.2671C32.1901 24.8555 32.759 25.1871 32.759 25.9988Z" fill="white"/>
<path d="M43.489 19.7679C43.489 20.5796 42.9201 21.5629 42.2146 21.9744C41.5091 22.386 40.9402 22.0545 40.9402 21.2427C40.9402 20.431 41.5091 19.4477 42.2146 19.0361C42.9201 18.6245 43.489 18.9561 43.489 19.7679Z" fill="white"/>
</g>
<path d="M15.93 61.6129L14.8036 63.5909L9.91077 60.7897L14.8036 52.3064L15.93 52.9809L12.1865 59.4635L15.93 61.6129Z" fill="#383838"/>
<path d="M26.1367 41.605H27.6045L20.2767 62.8362H18.8088L26.1367 41.605Z" fill="#383838"/>
<path d="M34.1017 46.7499L30.3581 44.6119L31.496 42.6226L36.3887 45.4237L31.496 53.907L30.3581 53.2439L34.1017 46.7499Z" fill="#383838"/>
</g>
<path d="M121 80.3175L26.8762 134.911V61.007L121 6.40259V80.3175Z" fill="#B6CEF4"/>
<path d="M27.3769 134.042V61.2928L120.499 7.27148V80.0202L27.3769 134.042Z" fill="white"/>
<path d="M118.497 0.343081L29.3909 52.0435C28.0027 52.8438 26.8876 54.7875 26.8876 56.3881V61.0071L121 6.40262V1.78365C121 0.183018 119.873 -0.457235 118.497 0.343081Z" fill="#B6CEF4"/>
<path d="M112.614 7.51151C112.614 8.32326 112.045 9.30651 111.34 9.7181C110.634 10.1297 110.065 9.79813 110.065 8.98638C110.065 8.17463 110.634 7.19138 111.34 6.77979C112.045 6.3682 112.614 6.69976 112.614 7.51151Z" fill="white"/>
<path d="M107.255 10.6214C107.255 11.4331 106.686 12.4164 105.98 12.828C105.275 13.2396 104.706 12.908 104.706 12.0962C104.706 11.2845 105.275 10.3012 105.98 9.88966C106.686 9.47806 107.255 9.80962 107.255 10.6214Z" fill="white"/>
<path d="M117.985 4.40189C117.985 5.21364 117.416 6.19689 116.71 6.60848C116.005 7.02007 115.436 6.68851 115.436 5.87676C115.436 5.06501 116.005 4.08176 116.71 3.67017C117.416 3.25858 117.985 3.59014 117.985 4.40189Z" fill="white"/>
<path d="M50.4186 120.676L27.3769 134.042V61.2928L50.4186 47.9275V120.676Z" fill="#0C5ADB"/>
<path d="M42.4763 68.9644L28.8788 76.8532V75.79L42.4763 67.9011V68.9644Z" fill="white"/>
<path d="M42.4763 82.021L28.8788 89.9099V88.8352L42.4763 80.9578V82.021Z" fill="white"/>
<path d="M42.4763 72.2229L28.8788 80.1118V79.0485L42.4763 71.1597V72.2229Z" fill="white"/>
<path d="M42.4763 75.4927L28.8788 83.3816V82.3183L42.4763 74.4294V75.4927Z" fill="white"/>
<path d="M42.4763 85.2793L28.8788 93.1682V92.1049L42.4763 84.2161V85.2793Z" fill="white"/>
<path d="M42.4763 78.751L28.8788 86.6399V85.5766L42.4763 77.6877V78.751Z" fill="white"/>
<path d="M32.3152 61.1558L29.1178 63.0079V62.2648L32.3152 60.4126V61.1558Z" fill="white"/>
<path d="M32.3152 62.6992L29.1178 64.5514V63.8082L32.3152 61.9561V62.6992Z" fill="white"/>
<path d="M32.3152 64.2427L29.1178 66.0948V65.3517L32.3152 63.4995V64.2427Z" fill="white"/>
<path d="M117.985 35.9799L53.5135 73.3776V49.2309L117.985 11.8333V35.9799Z" fill="#B6CEF4"/>
<path d="M117.985 57.68L53.5135 95.0777V76.8876L117.985 39.49V57.68Z" fill="#B6CEF4"/>
<path d="M73.1871 105.368L53.5135 116.789V98.5877L73.1871 87.1775V105.368Z" fill="#B1C2F3"/>
<path d="M95.5802 92.3795L75.9066 103.79V85.5996L95.5802 74.178V92.3795Z" fill="#B1C2F3"/>
<path d="M117.985 79.3914L98.311 90.8016V72.6002L117.985 61.1899V79.3914Z" fill="#B1C2F3"/>
<path d="M64.6759 46.3841L55.7551 51.5518V50.4886L64.6759 45.3208V46.3841Z" fill="white"/>
<path d="M74.9508 46.9444L66.0414 52.1121V51.0489L74.9508 45.8811V46.9444Z" fill="white"/>
<path d="M85.7263 43.9605L76.8169 49.1282V48.0649L85.7263 42.8857V43.9605Z" fill="white"/>
<path d="M61.4444 61.3157L55.7551 64.6084V63.5451L61.4444 60.241V61.3157Z" fill="white"/>
<path d="M72.9596 54.6275L63.1967 60.2869V59.2236L72.9596 53.5642V54.6275Z" fill="white"/>
<path d="M59.8856 52.4207L55.7551 54.8217V53.7469L59.8856 51.3574V52.4207Z" fill="white"/>
<path d="M64.2663 53.1412L60.1473 55.5307V54.4674L64.2663 52.0779V53.1412Z" fill="white"/>
<path d="M68.2716 47.5503L61.6492 51.4033V50.3286L68.2716 46.4871V47.5503Z" fill="white"/>
<path d="M71.139 42.6226L66.451 45.3551V44.2918L71.139 41.5593V42.6226Z" fill="white"/>
<path d="M74.4501 42.9086L79.1495 40.1875V41.2508L74.4501 43.9719V42.9086Z" fill="white"/>
<path d="M85.2712 34.4366L82.62 35.9686V34.9053L85.2712 33.3733V34.4366Z" fill="white"/>
<path d="M58.4063 56.5481L55.7551 58.0801V57.0169L58.4063 55.4734V56.5481Z" fill="white"/>
<path d="M69.4436 59.9324L67.4979 61.0643V60.001L69.4436 58.8691V59.9324Z" fill="white"/>
<path d="M65.9959 61.9331L61.8768 64.3227V63.2594L65.9959 60.8699V61.9331Z" fill="white"/>
<path d="M74.9281 56.7425L70.809 59.132V58.0687L74.9281 55.6792V56.7425Z" fill="white"/>
<path d="M60.1245 65.3403L55.7551 67.8671V66.8038L60.1245 64.2656V65.3403Z" fill="white"/>
<path d="M70.0239 45.4695L72.6751 43.9375V45.0008L70.0239 46.5442V45.4695Z" fill="white"/>
<path d="M59.8856 58.949L55.7551 61.3385V60.2753L59.8856 57.8857V58.949Z" fill="white"/>
<path d="M66.4396 55.1533L61.6492 57.9201V56.8569L66.4396 54.0786V55.1533Z" fill="white"/>
<path d="M72.6068 50.5001L75.4628 48.8423V49.9056L72.6068 51.5748V50.5001Z" fill="white"/>
<path d="M74.9508 52.4095L77.8182 50.7517V51.815L74.9508 53.4728V52.4095Z" fill="white"/>
<path d="M68.192 53.0725L70.8318 51.5291V52.5923L68.192 54.1358V53.0725Z" fill="white"/>
<path d="M80.9701 36.929L72.6637 41.7423V40.6791L80.9701 35.8657V36.929Z" fill="white"/>
<path d="M85.7263 69.1018L76.8169 74.2696V73.2063L85.7263 68.0271V69.1018Z" fill="white"/>
<path d="M62.093 82.8101L55.7551 86.4801V85.4168L62.093 81.7468V82.8101Z" fill="white"/>
<path d="M66.7469 80.1119L63.8795 81.7697V80.7064L66.7469 79.0486V80.1119Z" fill="white"/>
<path d="M72.6068 75.6414L75.4628 73.9836V75.0469L72.6068 76.7047V75.6414Z" fill="white"/>
<path d="M68.192 78.2024L70.8318 76.6704V77.7337L68.192 79.2772V78.2024Z" fill="white"/>
<path d="M72.1972 79.1515L76.3163 76.762V77.8252L72.1972 80.2148V79.1515Z" fill="white"/>
<path d="M65.6431 82.9472L70.4221 80.1804V81.2437L65.6431 84.0219V82.9472Z" fill="white"/>
<path d="M57.8147 88.5494L55.7551 89.7498V88.6866L57.8147 87.4861V88.5494Z" fill="white"/>
<path d="M64.0387 84.9366L59.4645 87.6005V86.5258L64.0387 83.8733V84.9366Z" fill="white"/>
<path d="M92.3942 65.2373L87.6038 68.0041V66.9408L92.3942 64.1626V65.2373Z" fill="white"/>
<path d="M94.1465 63.1451L96.7977 61.613V62.6763L94.1465 64.2198V63.1451Z" fill="white"/>
<path d="M64.6759 74.784L55.7551 79.9517V78.8885L64.6759 73.7207V74.784Z" fill="white"/>
<path d="M75.0191 70.9767L79.1495 68.5872V69.6504L75.0191 72.0399V70.9767Z" fill="white"/>
<path d="M66.6331 75.8471L73.2554 72.0056V73.0689L66.6331 76.9104V75.8471Z" fill="white"/>
<path d="M71.139 71.034L66.451 73.7551V72.6918L71.139 69.9707V71.034Z" fill="white"/>
<path d="M60.4545 80.4891L55.7551 83.2216V82.1583L60.4545 79.4258V80.4891Z" fill="white"/>
<path d="M85.2712 62.8365L82.62 64.3685V63.3052L85.2712 61.7732V62.8365Z" fill="white"/>
<path d="M64.8808 77.928L62.2296 79.4715V78.3968L64.8808 76.8647V77.928Z" fill="white"/>
<path d="M80.9701 65.3289L72.6637 70.1537V69.079L80.9701 64.2656V65.3289Z" fill="white"/>
<g opacity="0.8">
<path d="M45.0593 104.693C45.0593 103.092 43.9328 102.452 42.556 103.252L6.94097 123.912C5.55279 124.712 4.43768 126.656 4.43768 128.256V159L45.0707 135.436V104.693H45.0593Z" fill="#B6CEF4"/>
<path d="M4.93835 158.131V133.173L44.5586 110.181V135.139L4.93835 158.131Z" fill="#3D3C47"/>
<path d="M36.6733 110.421C36.6733 111.233 36.1043 112.216 35.3989 112.628C34.6934 113.039 34.1245 112.708 34.1245 111.896C34.1245 111.084 34.6934 110.101 35.3989 109.689C36.1043 109.278 36.6733 109.609 36.6733 110.421Z" fill="white"/>
<path d="M31.3139 113.531C31.3139 114.342 30.745 115.326 30.0395 115.737C29.3341 116.149 28.7651 115.817 28.7651 115.005C28.7651 114.194 29.3341 113.21 30.0395 112.799C30.745 112.387 31.3139 112.719 31.3139 113.531Z" fill="white"/>
<path d="M42.0439 107.311C42.0439 108.123 41.475 109.106 40.7695 109.518C40.0641 109.929 39.4951 109.598 39.4951 108.786C39.4951 107.974 40.0641 106.991 40.7695 106.579C41.475 106.168 42.0439 106.499 42.0439 107.311Z" fill="white"/>
<path d="M12.2093 133.767L7.8399 136.294V135.231L12.2093 132.692V133.767Z" fill="#85ACED"/>
</g>
<defs>
<linearGradient id="paint0_linear_2_4255" x1="55.485" y1="49.1983" x2="83.6926" y2="118.41" gradientUnits="userSpaceOnUse">
<stop stop-color="#3162DE"/>
<stop offset="1" stop-color="#6376F2"/>
</linearGradient>
</defs>
</svg>
