<svg width="128" height="122" viewBox="0 0 128 122" fill="none" xmlns="http://www.w3.org/2000/svg">
<path d="M28.4767 42.8021C9.91566 54.4502 4.12921 78.9392 15.5895 97.7262C27.0547 116.507 51.4394 122.497 70.2403 111.24L70.2272 111.215L124.389 77.9583L115.507 63.3977L61.3151 96.6245L61.3166 96.6405C50.5628 102.961 36.6913 99.5118 30.1581 88.7957C23.6201 78.0854 26.8716 64.126 37.3908 57.4135L91.577 24.1872L82.6886 9.62176L28.4781 42.818L28.4767 42.8021Z" fill="#9ED2FF"/>
<path d="M124.985 77.8968C124.976 77.8062 124.947 77.7229 124.896 77.6363L116.014 63.0757C115.931 62.9383 115.799 62.843 115.64 62.804C115.487 62.7698 115.323 62.7958 115.186 62.873L60.994 96.0997C60.9636 96.1187 60.9337 96.1429 60.9038 96.1672C50.4945 102.214 36.951 98.7774 30.6645 88.4683C28.8641 85.5187 27.7879 82.287 27.4712 78.8668C26.6927 70.4602 30.6165 62.4295 37.7103 57.904L91.887 24.6894C92.1712 24.518 92.2545 24.1449 92.0839 23.8652L83.1955 9.29972C83.0191 9.01517 82.6518 8.9256 82.3729 9.0965L28.2802 42.2335C28.2386 42.2481 28.1976 42.268 28.1619 42.2874C15.0857 50.494 7.84899 65.1664 9.27615 80.5786C9.85185 86.7956 11.8052 92.6702 15.0778 98.0357C26.6448 116.99 51.5264 123.138 70.5459 111.754C70.6072 111.721 70.6564 111.673 70.7003 111.626L124.705 78.4707C124.908 78.3444 125.011 78.1253 124.99 77.9016L124.985 77.8968ZM115.305 64.216L123.562 77.7545L69.9072 110.7C69.8512 110.733 69.8068 110.774 69.7683 110.821C51.3329 121.743 27.2912 115.754 16.1027 97.4143C12.9251 92.2065 11.0305 86.5038 10.4721 80.4732C9.09082 65.5565 16.0714 51.3592 28.6862 43.378C28.7224 43.3639 28.7639 43.3493 28.7943 43.3304L82.4924 10.4448L90.7551 23.9828L37.0809 56.893C29.5976 61.6695 25.4674 70.1331 26.2873 78.9872C26.6213 82.5939 27.7505 85.9925 29.6517 89.1048C36.2978 99.9985 50.6397 103.608 61.6168 97.1543C61.6574 97.129 61.6926 97.1043 61.7273 97.0742L115.31 64.2208L115.305 64.216Z" fill="#0059B8"/>
<path d="M70.2402 111.24L70.2271 111.214L124.389 77.9582L115.507 63.3976L61.315 96.6243L61.3164 96.6403C50.5627 102.961 36.6912 99.5116 30.158 88.7955L15.5894 97.726C27.0546 116.507 51.4393 122.497 70.2402 111.24Z" fill="#0077F5"/>
<path d="M124.984 77.8968C124.976 77.8062 124.947 77.7229 124.896 77.6363L116.013 63.0757C115.931 62.9383 115.799 62.843 115.64 62.804C115.486 62.7698 115.323 62.7958 115.185 62.873L60.9936 96.0997C60.9632 96.1187 60.9333 96.1429 60.9034 96.1672C50.494 102.214 36.9506 98.7774 30.6641 88.4683C30.5817 88.3309 30.4496 88.2357 30.2906 88.1967C30.1374 88.1625 29.9737 88.1884 29.8366 88.2709L15.2738 97.2062C14.9901 97.3829 14.9063 97.7507 15.0774 98.0358C26.6443 116.99 51.526 123.138 70.5455 111.754C70.6067 111.721 70.6559 111.673 70.6998 111.626L124.705 78.4707C124.908 78.3444 125.011 78.1253 124.99 77.9016L124.984 77.8968ZM115.304 64.216L123.562 77.7545L69.9067 110.7C69.8507 110.733 69.8064 110.774 69.7678 110.821C51.5052 121.641 27.7402 115.862 16.4173 97.9224L29.9609 89.6134C36.7367 100.114 50.8014 103.507 61.6111 97.1548C61.6516 97.1295 61.6868 97.1048 61.7215 97.0747L115.305 64.2213L115.304 64.216Z" fill="#0059B8"/>
<path d="M15.5886 97.7262L30.1571 88.7957C23.6191 78.0854 26.8707 64.126 37.3898 57.4135L91.5761 24.1872L82.6876 9.62176L28.4772 42.818L28.4757 42.8021C9.91468 54.4502 4.12823 78.9392 15.5886 97.7262Z" fill="#0077F5"/>
<path d="M92.1709 24.1242C92.1625 24.0336 92.1387 23.9499 92.0883 23.8686L83.1998 9.30314C83.0234 9.01858 82.6561 8.92901 82.3772 9.09991L28.2787 42.2321C28.2372 42.2467 28.1961 42.2666 28.1604 42.286C15.0842 50.4926 7.84752 65.165 9.27468 80.5771C9.85038 86.7942 11.8037 92.6688 15.0764 98.0343C15.1587 98.1718 15.2908 98.267 15.4445 98.3065C15.5977 98.3407 15.7614 98.3148 15.899 98.2376L30.4617 89.3023C30.5988 89.2197 30.6937 89.0874 30.7325 88.9279C30.7723 88.7792 30.7459 88.6097 30.6635 88.4722C28.8632 85.5226 27.7869 82.2909 27.4702 78.8707C26.6917 70.4641 30.6155 62.4334 37.7094 57.9079L91.886 24.6933C92.0891 24.5724 92.1916 24.3479 92.1709 24.1242ZM82.4909 10.4434L90.7537 23.9814L37.0794 56.8916C29.5962 61.6681 25.466 70.1317 26.2859 78.9858C26.6011 82.39 27.6285 85.6154 29.3449 88.5836L15.8007 96.8873C12.8074 91.8182 11.0204 86.2936 10.4803 80.4601C9.09899 65.5434 16.0796 51.3461 28.6944 43.3649C28.7306 43.3508 28.7721 43.3362 28.8025 43.3173L82.4909 10.4434Z" fill="#0059B8"/>
<g style="mix-blend-mode:multiply">
<path d="M33.6187 60.4284L24.567 45.6041C9.16117 58.0508 4.98113 80.3278 15.589 97.7214L30.1576 88.791C24.4846 79.4943 26.1897 67.7575 33.6187 60.4284Z" fill="#0077F5"/>
</g>
<path d="M104.52 90.1596L124.391 77.955L115.503 63.3949L95.62 75.5845L104.52 90.1596Z" fill="#9ED2FF"/>
<path d="M124.985 77.8971C124.977 77.8065 124.948 77.7232 124.897 77.6366L116.014 63.076C115.932 62.9386 115.8 62.8433 115.641 62.8043C115.487 62.7702 115.324 62.7961 115.186 62.8733L95.3035 75.0629C95.1665 75.1455 95.0721 75.2832 95.0327 75.4373C94.9934 75.5914 95.0193 75.7555 95.1017 75.893L103.996 90.4686C104.079 90.606 104.211 90.7012 104.365 90.7407C104.518 90.7749 104.682 90.749 104.819 90.6665L124.69 78.4671C124.892 78.3409 124.995 78.1218 124.975 77.898L124.985 77.8971ZM115.305 64.2163L123.563 77.7548L104.716 89.3273L96.4474 75.7845L115.306 64.2216L115.305 64.2163Z" fill="#0059B8"/>
<path d="M71.693 36.3726L91.5757 24.1829L82.6873 9.61752L62.8041 21.8019L71.693 36.3726Z" fill="#9ED2FF"/>
<path d="M92.1716 24.1279C92.1632 24.0373 92.1336 23.9487 92.089 23.8722L83.2006 9.3068C83.0242 9.02224 82.6568 8.93267 82.3779 9.10357L62.4943 21.2826C62.3572 21.3651 62.2623 21.4975 62.2235 21.6569C62.1842 21.811 62.2101 21.9752 62.2925 22.1126L71.1819 36.6887C71.2643 36.8261 71.3964 36.9214 71.5554 36.9604C71.7086 36.9945 71.8723 36.9686 72.0094 36.8861L91.892 24.6964C92.0291 24.6139 92.124 24.4815 92.1628 24.3221C92.1781 24.2562 92.1829 24.1913 92.1769 24.1274L92.1716 24.1279ZM82.4916 10.4471L90.7544 23.9851L71.8962 35.5479L63.6324 21.9993L82.4916 10.4471Z" fill="#0059B8"/>
<path d="M25.1418 37.3414C6.58608 48.9891 0.79432 73.4786 12.2595 92.2597C23.7193 111.041 48.1041 117.031 66.9049 105.774L66.8918 105.749L121.054 72.4923L112.171 57.9264L57.9797 91.1585L57.9812 91.1745C47.2323 97.4892 33.3661 94.0395 26.8227 83.3297C20.2895 72.6136 23.5421 58.6648 34.0607 51.947L88.247 18.7207L79.359 4.16059L25.1481 37.3515L25.1471 37.3409L25.1418 37.3414Z" fill="#9ED2FF"/>
<path d="M121.654 72.434C121.646 72.3434 121.616 72.2548 121.566 72.1735L112.683 57.6076C112.6 57.4702 112.468 57.3749 112.315 57.3354C112.161 57.2959 111.998 57.3272 111.86 57.4044L57.669 90.6365C57.6338 90.6613 57.5986 90.686 57.5691 90.7156C47.1632 96.7406 33.625 93.3035 27.3395 83.0051C25.5391 80.0554 24.4682 76.8233 24.1519 73.4084C23.374 65.0071 27.2973 56.9711 34.3911 52.4456L88.5672 19.2256C88.7043 19.1431 88.7992 19.0107 88.838 18.8513C88.8773 18.6972 88.8514 18.533 88.769 18.3956L79.8661 3.84763C79.6955 3.56791 79.3224 3.4735 79.0387 3.65022L24.929 36.7781C24.8923 36.7868 24.8566 36.8063 24.8267 36.8305C11.7553 45.0313 4.51864 59.7036 5.9458 75.1158C6.52149 81.3329 8.47482 87.2075 11.7475 92.573C23.3139 111.522 48.1961 117.675 67.2102 106.291C67.2662 106.259 67.3159 106.217 67.3545 106.17L121.364 73.0036C121.567 72.8827 121.67 72.6583 121.649 72.4345L121.654 72.434ZM111.969 58.7537L120.226 72.2922L66.5715 105.238C66.5208 105.27 66.476 105.306 66.4369 105.347C47.9968 116.275 23.955 110.286 12.7613 91.9472C9.58359 86.7394 7.68906 81.0367 7.13063 75.0061C5.74885 60.0841 12.729 45.8814 25.3607 37.9094C25.3916 37.8958 25.4225 37.8822 25.4529 37.8633L79.1572 4.98789L87.4195 18.5206L33.7452 51.4308C26.262 56.2073 22.1318 64.6708 22.9517 73.5249C23.2851 77.1263 24.4149 80.5303 26.3102 83.6377C32.9611 94.5256 47.3035 98.1407 58.2865 91.6915C58.3323 91.6658 58.3724 91.6352 58.4066 91.5998L111.974 58.7532L111.969 58.7537Z" fill="#0059B8"/>
<path d="M12.2594 92.2597L26.8227 83.3297C20.2895 72.6136 23.542 58.6648 34.0606 51.947L88.2469 18.7207L79.359 4.1606L25.148 37.3516L25.147 37.3409C6.58601 48.9891 0.794255 73.4786 12.2594 92.2597Z" fill="#9ED2FF"/>
<path d="M88.8426 18.6682C88.8342 18.5776 88.8045 18.489 88.7541 18.4077L79.8662 3.84763C79.6956 3.56791 79.3225 3.4735 79.0388 3.65022L24.9291 36.7781C24.8924 36.7868 24.8567 36.8063 24.8268 36.8305C11.7554 45.0313 4.5187 59.7036 5.94586 75.1158C6.52156 81.3329 8.47488 87.2075 11.7475 92.573C11.8299 92.7105 11.962 92.8057 12.121 92.8447C12.2742 92.8789 12.4384 92.8583 12.5755 92.7757L27.1387 83.8458C27.4224 83.6691 27.5116 83.3008 27.3352 83.0162C25.5348 80.0666 24.4639 76.8344 24.1477 73.4196C23.3697 65.0183 27.293 56.9822 34.3868 52.4567L88.563 19.2368C88.7 19.1542 88.7949 19.0219 88.8337 18.8624C88.8491 18.7965 88.8538 18.7316 88.8479 18.6677L88.8426 18.6682ZM79.1573 4.98789L87.4196 18.5206L33.7452 51.4308C26.262 56.2073 22.1318 64.6708 22.9517 73.5249C23.267 76.9292 24.2944 80.1546 26.0054 83.1233L12.4613 91.4269C9.46795 86.3579 7.67569 80.8338 7.13551 75.0003C5.75373 60.0782 12.7338 45.8756 25.3656 37.9036C25.3965 37.89 25.4274 37.8764 25.4578 37.8575L79.1573 4.98789Z" fill="#0059B8"/>
<path d="M66.9044 105.777L66.8913 105.751L121.053 72.4952L112.17 57.9293L57.9791 91.1614L57.9806 91.1774C47.2317 97.4921 33.3655 94.0424 26.8222 83.3326L12.2589 92.2626C23.7187 111.044 48.1035 117.034 66.9044 105.777Z" fill="#9ED2FF"/>
<path d="M121.654 72.4366C121.646 72.346 121.616 72.2574 121.566 72.1761L112.682 57.6102C112.6 57.4728 112.468 57.3775 112.314 57.338C112.161 57.2985 111.997 57.3298 111.86 57.407L57.6687 90.6391C57.6335 90.6638 57.5983 90.6886 57.5689 90.7182C47.1629 96.7432 33.6247 93.3061 27.3392 83.0077C27.1681 82.7226 26.7955 82.6336 26.5171 82.8098L11.9538 91.7398C11.6701 91.9165 11.5862 92.2842 11.7568 92.564C23.3233 111.513 48.2001 117.667 67.2196 106.282C67.2756 106.25 67.3253 106.208 67.3638 106.161L121.373 72.9945C121.577 72.8736 121.679 72.6492 121.658 72.4254L121.654 72.4366ZM111.969 58.7563L120.226 72.2948L66.5712 105.241C66.5206 105.272 66.4757 105.309 66.4367 105.35C48.1693 116.176 24.4042 110.397 13.0813 92.4574L26.6196 84.1489C33.4002 94.6433 47.4654 98.0423 58.2751 91.6898C58.3209 91.664 58.361 91.6335 58.3952 91.5981L111.963 58.7515L111.969 58.7563Z" fill="#0059B8"/>
<path d="M101.183 84.6967L121.054 72.492L112.171 57.9261L92.2886 70.1211L101.183 84.6967Z" fill="#E6FFFF"/>
<path d="M121.654 72.4368C121.646 72.3462 121.616 72.2576 121.566 72.1763L112.682 57.6104C112.6 57.473 112.468 57.3778 112.314 57.3383C112.161 57.2988 111.997 57.33 111.86 57.4072L91.9772 69.5969C91.693 69.7683 91.6096 70.1414 91.7807 70.4264L100.675 85.002C100.758 85.1394 100.89 85.2347 101.049 85.2737C101.202 85.3078 101.366 85.2873 101.503 85.1994L121.373 72.9947C121.577 72.8738 121.679 72.6494 121.658 72.4257L121.654 72.4368ZM111.969 58.7565L120.226 72.295L101.38 83.8675L93.1105 70.3194L111.969 58.7565Z" fill="#0059B8"/>
<path d="M68.3639 30.9137L88.2417 18.7298L79.3533 4.1644L59.4692 16.3381L68.3639 30.9137Z" fill="#E6FFFF"/>
<path d="M88.8427 18.6709C88.8343 18.5803 88.8047 18.4917 88.7543 18.4104L79.8664 3.85034C79.6958 3.57062 79.3226 3.47622 79.0389 3.65293L59.1548 15.8266C59.0177 15.9092 58.9228 16.0415 58.884 16.2009C58.8447 16.355 58.8706 16.5192 58.9583 16.6562L67.853 31.2317C67.9354 31.3692 68.0675 31.4644 68.2265 31.5034C68.3797 31.5376 68.5434 31.5117 68.6805 31.4291L88.5631 19.2395C88.7002 19.1569 88.7951 19.0246 88.8339 18.8652C88.8492 18.7993 88.854 18.7343 88.848 18.6704L88.8427 18.6709ZM79.1574 4.9906L87.4197 18.5233L68.5614 30.0862L60.2924 16.538L79.1574 4.9906Z" fill="#0059B8"/>
<g clip-path="url(#clip0_2_1815)">
<path d="M52.883 81.4752L65.3702 75.616C67.6946 74.2801 67.6885 73.8053 65.3168 72.9607C64.0446 72.0687 62.7766 71.409 61.5271 71.8077L54.932 74.9747C53.2488 75.916 52.8152 77.0916 52.8193 78.3473L52.883 81.4752Z" fill="url(#paint0_linear_2_1815)"/>
<path d="M56.5412 63.735C56.2905 64.0515 55.452 65.1859 55.489 66.8321C55.4972 67.2473 55.5815 68.5276 56.4693 69.6148C57.3469 70.6897 58.3929 70.8171 61.0092 71.6042C62.0881 71.9289 63.6377 72.4263 65.5059 73.1436C65.6374 73.1744 66.0299 73.2833 66.3362 73.6553C66.7184 74.1177 66.6855 74.6479 66.6773 74.761C66.7821 74.6623 66.9322 74.5123 67.0884 74.3109C68.3585 72.6729 68.3852 69.7998 67.0205 68.5338C66.6999 68.2379 66.5088 68.2194 64.8195 67.6419C63.4322 67.1692 62.3265 66.7602 61.6339 66.4992C59.9364 65.5764 58.2388 64.6557 56.5412 63.735Z" fill="url(#paint1_linear_2_1815)"/>
<path d="M48.1561 58.8047C48.3452 58.7985 48.635 58.7924 48.9905 58.7841C49.4653 58.7759 49.8886 58.7698 49.9811 58.7698C50.3326 58.7677 51.9746 58.7636 52.8193 59.5836C53.2612 60.0111 53.5016 60.5845 53.4872 61.76C53.4502 64.5571 53.4687 66.1375 53.4955 67.0788C53.5037 67.3521 53.5489 68.8565 53.59 70.9014C53.6188 71.6536 53.6188 71.4892 53.6517 72.3442C53.7174 74.0499 53.7195 74.8001 53.7852 77.0854C53.7955 77.443 53.812 77.9712 53.8325 78.6165C53.8284 78.6576 53.7339 79.6153 54.4306 80.1106C54.745 80.3326 55.08 80.3634 55.2465 80.3655C55.0019 80.5731 53.6003 81.7198 51.6684 81.465C51.2944 81.4157 49.938 81.2369 49.12 80.1805C48.6083 79.5208 48.5466 78.3679 48.4233 76.0599C48.3966 75.5441 48.3658 74.7138 48.3514 73.9164C48.337 73.2012 48.337 72.673 48.337 72.5373C48.3329 71.5776 48.2918 68.1557 48.1561 58.8047Z" fill="url(#paint2_linear_2_1815)"/>
<path d="M67.411 58.1758L57.7908 62.691C56.1096 63.8357 55.6863 64.4379 57.8442 65.3463L61.6319 66.4992L65.36 64.6804C67.0431 63.7391 67.4768 62.5636 67.4727 61.3079L67.411 58.1758Z" fill="url(#paint3_linear_2_1815)"/>
</g>
<defs>
<linearGradient id="paint0_linear_2_1815" x1="52.787" y1="76.6798" x2="67.1515" y2="76.3898" gradientUnits="userSpaceOnUse">
<stop stop-color="#3B7CE7"/>
<stop offset="1.38522e-07" stop-color="#1864E3"/>
<stop offset="1" stop-color="#397DEE"/>
</linearGradient>
<linearGradient id="paint1_linear_2_1815" x1="55.54" y1="69.3692" x2="67.9984" y2="69.1177" gradientUnits="userSpaceOnUse">
<stop stop-color="#0C5ADB"/>
<stop offset="1" stop-color="#00368E"/>
</linearGradient>
<linearGradient id="paint2_linear_2_1815" x1="48.2756" y1="70.1914" x2="55.0383" y2="70.0549" gradientUnits="userSpaceOnUse">
<stop stop-color="#0C5ADB"/>
<stop offset="1" stop-color="#0440A2"/>
</linearGradient>
<linearGradient id="paint3_linear_2_1815" x1="56.3409" y1="62.5021" x2="67.4934" y2="62.2769" gradientUnits="userSpaceOnUse">
<stop stop-color="#0C5ADB"/>
<stop offset="1.38522e-07" stop-color="#4184F3"/>
<stop offset="1" stop-color="#3D81F0"/>
</linearGradient>
<clipPath id="clip0_2_1815">
<rect width="23.3282" height="23.3282" fill="white" transform="translate(46.5361 58.1758)"/>
</clipPath>
</defs>
</svg>
