<svg width="81" height="31" viewBox="0 0 81 31" fill="none" xmlns="http://www.w3.org/2000/svg">
<path d="M80.853 28.3332H74.6553V17.5718H80.853V19.4414H76.9371V21.8042H80.5807V23.6738H76.9371V26.4488H80.853V28.3332Z" fill="#232323"/>
<path d="M69.6134 19.3163C68.7547 19.3163 68.0898 19.6402 67.6187 20.2879C67.1476 20.9308 66.912 21.8288 66.912 22.982C66.912 25.3816 67.8125 26.5814 69.6134 26.5814C70.3691 26.5814 71.2843 26.3924 72.359 26.0146V27.9284C71.4757 28.2964 70.4894 28.4804 69.4 28.4804C67.8346 28.4804 66.6372 28.0069 65.8079 27.0598C64.9786 26.1078 64.564 24.7436 64.564 22.9672C64.564 21.8484 64.7676 20.8694 65.1749 20.0303C65.5822 19.1863 66.1662 18.541 66.9268 18.0944C67.6923 17.643 68.5878 17.4172 69.6134 17.4172C70.6587 17.4172 71.7088 17.67 72.7638 18.1754L72.0278 20.0303C71.6254 19.8389 71.2205 19.6721 70.8132 19.5298C70.4059 19.3875 70.006 19.3163 69.6134 19.3163Z" fill="#232323"/>
<path d="M61.222 28.3332L60.4418 25.7716H56.5185L55.7383 28.3332H53.2798L57.0779 17.5276H59.8677L63.6805 28.3332H61.222ZM59.8971 23.8578C59.1757 21.5367 58.7685 20.2241 58.6752 19.9198C58.5869 19.6156 58.5231 19.3751 58.4838 19.1985C58.3219 19.8266 57.8582 21.3797 57.0927 23.8578H59.8971Z" fill="#232323"/>
<path d="M47.4498 22.636H48.2006C48.9023 22.636 49.4274 22.4986 49.7758 22.2238C50.1242 21.9441 50.2984 21.5392 50.2984 21.0092C50.2984 20.4744 50.1512 20.0793 49.8568 19.8242C49.5672 19.569 49.1109 19.4414 48.4877 19.4414H47.4498V22.636ZM52.6023 20.9283C52.6023 22.0864 52.2392 22.9721 51.5129 23.5855C50.7916 24.1989 49.7635 24.5056 48.4288 24.5056H47.4498V28.3332H45.168V17.5718H48.6054C49.9107 17.5718 50.902 17.8539 51.5792 18.4183C52.2613 18.9777 52.6023 19.8144 52.6023 20.9283Z" fill="#232323"/>
<path d="M43.2177 25.3448C43.2177 26.3164 42.8668 27.0819 42.1651 27.6413C41.4683 28.2007 40.4967 28.4804 39.2502 28.4804C38.102 28.4804 37.0862 28.2645 36.2029 27.8327V25.7128C36.9291 26.0367 37.5425 26.2649 38.0431 26.3974C38.5485 26.5298 39.0098 26.5961 39.4269 26.5961C39.9274 26.5961 40.3102 26.5004 40.5752 26.309C40.8451 26.1176 40.98 25.833 40.98 25.4552C40.98 25.2442 40.9211 25.0577 40.8034 24.8958C40.6856 24.7289 40.5114 24.5694 40.2807 24.4173C40.055 24.2652 39.5913 24.0223 38.8896 23.6886C38.232 23.3794 37.7388 23.0826 37.41 22.7979C37.0813 22.5133 36.8187 22.1821 36.6224 21.8042C36.4262 21.4264 36.328 20.9847 36.328 20.4793C36.328 19.5273 36.6494 18.779 37.2923 18.2343C37.94 17.6896 38.8331 17.4172 39.9716 17.4172C40.531 17.4172 41.0634 17.4835 41.5689 17.616C42.0792 17.7485 42.6116 17.9349 43.1662 18.1754L42.4301 19.9493C41.8559 19.7138 41.3799 19.5494 41.0021 19.4562C40.6291 19.3629 40.2611 19.3163 39.898 19.3163C39.4661 19.3163 39.1349 19.4169 38.9043 19.6181C38.6736 19.8193 38.5583 20.0818 38.5583 20.4057C38.5583 20.6069 38.6049 20.7836 38.6982 20.9357C38.7914 21.0829 38.9386 21.2277 39.1398 21.37C39.3459 21.5074 39.8293 21.7576 40.5899 22.1208C41.5959 22.6017 42.2853 23.085 42.6583 23.5708C43.0312 24.0517 43.2177 24.643 43.2177 25.3448Z" fill="#232323"/>
<path d="M71.3429 7.77473C71.3429 9.55112 70.8596 10.9104 69.8929 11.8526C68.9311 12.7899 67.5448 13.2585 65.734 13.2585H62.7529V2.49707H66.0505C67.7239 2.49707 69.0243 2.9608 69.9517 3.88825C70.8792 4.81571 71.3429 6.1112 71.3429 7.77473ZM70.018 7.81889C70.018 6.41544 69.6647 5.35795 68.958 4.64641C68.2563 3.93487 67.2111 3.5791 65.8224 3.5791H64.0043V12.1765H65.5279C67.0197 12.1765 68.141 11.8109 68.8918 11.0797C69.6426 10.3436 70.018 9.25669 70.018 7.81889Z" fill="#232323"/>
<path d="M59.9779 13.2585L58.6383 9.83571H54.3249L52.9999 13.2585H51.7339L55.9884 2.45288H57.041L61.2734 13.2585H59.9779ZM58.2482 8.70952L56.9968 5.3751C56.8349 4.95308 56.668 4.43538 56.4963 3.82198C56.3883 4.29307 56.2338 4.81077 56.0326 5.3751L54.7665 8.70952H58.2482Z" fill="#232323"/>
<path d="M50.8213 13.2585H44.8223V2.49707H50.8213V3.60854H46.0736V7.07546H50.5342V8.17957H46.0736V12.1397H50.8213V13.2585Z" fill="#232323"/>
<path d="M36.9905 13.2585V2.49707H38.2418V12.1249H42.9895V13.2585H36.9905Z" fill="#232323"/>
<path d="M6.1367 30.2483L22.3481 22.6415C25.3657 20.9073 25.3577 20.2909 22.2787 19.1944C20.6272 18.0364 18.981 17.1799 17.3587 17.6975L8.7968 21.8091C6.61163 23.0311 6.04866 24.5572 6.05399 26.1875L6.1367 30.2483Z" fill="url(#paint0_linear_481_21)"/>
<path d="M10.8859 7.21729C10.5604 7.62817 9.47183 9.10097 9.51985 11.2381C9.53052 11.7771 9.63992 13.4393 10.7925 14.8507C11.9318 16.2461 13.2899 16.4116 16.6864 17.4335C18.0871 17.855 20.0989 18.5007 22.5242 19.4319C22.6949 19.4719 23.2046 19.6133 23.6021 20.0962C24.0984 20.6965 24.0557 21.3849 24.045 21.5317C24.1811 21.4036 24.3758 21.2088 24.5786 20.9473C26.2275 18.8209 26.2622 15.0909 24.4906 13.4473C24.0744 13.0631 23.8262 13.0391 21.633 12.2894C19.8321 11.6757 18.3966 11.1447 17.4975 10.8059C15.2936 9.60791 13.0898 8.4126 10.8859 7.21729Z" fill="url(#paint1_linear_481_21)"/>
<path d="M0 0.816397C0.245466 0.808392 0.621668 0.800388 1.08325 0.789716C1.69958 0.779043 2.24921 0.771039 2.36928 0.771039C2.82552 0.768371 4.95734 0.763035 6.05393 1.82761C6.62757 2.38257 6.93974 3.12697 6.92106 4.65313C6.87303 8.28442 6.89705 10.3362 6.93173 11.5582C6.94241 11.913 7.0011 13.8661 7.05447 16.5209C7.09182 17.4974 7.09182 17.2839 7.13451 18.3939C7.21989 20.6084 7.22256 21.5822 7.30794 24.5492C7.32128 25.0134 7.34262 25.6991 7.3693 26.5369C7.36397 26.5903 7.24123 27.8336 8.14572 28.4766C8.55394 28.7648 8.98884 28.8048 9.20496 28.8075C8.88745 29.077 7.06781 30.5658 4.55979 30.2349C4.07419 30.1709 2.31325 29.9387 1.25134 28.5673C0.586983 27.7109 0.50694 26.2141 0.346853 23.2178C0.312168 22.5481 0.272147 21.4702 0.25347 20.435C0.234793 19.5065 0.234793 18.8208 0.234793 18.6447C0.229457 17.3987 0.176095 12.9563 0 0.816397Z" fill="url(#paint2_linear_481_21)"/>
<path d="M24.9975 0L12.5081 5.86182C10.3256 7.34796 9.77593 8.12971 12.5774 9.30901L17.4948 10.8058L22.3347 8.44455C24.5199 7.22255 25.0828 5.6964 25.0775 4.06619L24.9975 0Z" fill="url(#paint3_linear_481_21)"/>
<defs>
<linearGradient id="paint0_linear_481_21" x1="6.01207" y1="24.0227" x2="24.6605" y2="23.6462" gradientUnits="userSpaceOnUse">
<stop stop-color="#3B7CE7"/>
<stop offset="1.38522e-07" stop-color="#1864E3"/>
<stop offset="1" stop-color="#397DEE"/>
</linearGradient>
<linearGradient id="paint1_linear_481_21" x1="9.58604" y1="14.5319" x2="25.76" y2="14.2053" gradientUnits="userSpaceOnUse">
<stop stop-color="#0C5ADB"/>
<stop offset="1" stop-color="#00368E"/>
</linearGradient>
<linearGradient id="paint2_linear_481_21" x1="0.155083" y1="15.5991" x2="8.93474" y2="15.4219" gradientUnits="userSpaceOnUse">
<stop stop-color="#0C5ADB"/>
<stop offset="1" stop-color="#0440A2"/>
</linearGradient>
<linearGradient id="paint3_linear_481_21" x1="10.6258" y1="5.61655" x2="25.1045" y2="5.32425" gradientUnits="userSpaceOnUse">
<stop stop-color="#0C5ADB"/>
<stop offset="1.38522e-07" stop-color="#4184F3"/>
<stop offset="1" stop-color="#3D81F0"/>
</linearGradient>
</defs>
</svg>
