<svg width="571" height="596" viewBox="0 0 571 596" fill="none" xmlns="http://www.w3.org/2000/svg">
<path d="M124.083 313.868L124.062 313.798C122.088 307.215 120.149 302.434 118.115 299.067C116.08 295.697 113.925 293.706 111.507 292.77C109.09 291.834 106.491 291.984 103.637 292.725C100.79 293.464 97.6266 294.809 94.0654 296.321C86.5052 299.532 77.0073 303.564 64.3691 304.569L63.1396 304.656C36.5903 306.183 20.9641 294.951 11.9492 281.16C2.91068 267.333 0.500009 250.898 0.5 242.073C0.499998 202.675 30.7514 179.695 62.7871 179.607C76.7544 179.607 86.8603 184.474 94.7891 188.295C98.1111 189.896 101.086 191.331 103.79 192.121C106.504 192.914 109.012 193.077 111.38 192.067C113.74 191.061 115.873 188.926 117.927 185.317C119.981 181.708 121.984 176.575 124.063 169.496L124.083 169.427V1.1123L276.938 0.5C284.301 2.374 289.513 4.31942 293.09 6.38281C296.672 8.4498 298.571 10.6103 299.379 12.8965C300.188 15.1867 299.936 17.6974 299.017 20.5361C298.096 23.38 296.529 26.4854 294.779 29.9512C290.667 38.0972 285.608 48.102 286.224 60.6475C287.504 86.6886 297.819 102.462 310.103 111.724C321.982 120.681 335.658 123.516 344.668 123.725L345.524 123.736C361.378 123.839 379.327 119.315 392.803 109.083C406.302 98.8322 415.286 82.8673 413.176 60.1953C411.911 46.6468 407.73 36.7395 404.503 29.0908C402.976 25.4713 401.678 22.3917 400.983 19.6602C400.291 16.9375 400.216 14.6236 401.075 12.5205C401.935 10.4157 403.764 8.43835 407.053 6.46387C410.332 4.49556 415.02 2.55463 421.539 0.5L570.115 0.878906L570.113 5.1123L569.581 5.11523L569.083 5.11719V174.283C567.02 181.298 565.049 186.324 563.058 189.823C561.059 193.335 559.067 195.261 556.987 196.147C554.915 197.031 552.667 196.92 550.07 196.161C547.463 195.399 544.569 194.006 541.224 192.394C533.287 188.569 523.001 183.607 508.787 183.607H508.786C476.278 183.696 445.5 207.047 445.5 247.073C445.5 256.025 447.936 272.67 457.112 286.708C466.313 300.783 482.271 312.203 509.196 310.655H509.199C522.64 309.811 532.645 305.559 540.456 302.242C544.039 300.72 547.129 299.409 549.889 298.692C552.641 297.978 555.003 297.873 557.146 298.702C559.287 299.531 561.292 301.326 563.26 304.584C565.223 307.834 567.126 312.5 569.083 319.014V472.824H421.519L421.458 472.84C414.352 474.634 409.238 476.562 405.68 478.705C402.114 480.853 400.08 483.236 399.198 485.941C398.32 488.636 398.614 491.566 399.53 494.753C400.446 497.936 402.005 501.441 403.717 505.294C407.082 512.867 411.084 521.882 412.298 532.889C415.049 559.849 391.568 595.679 350.068 595.505H350.066C346.463 595.505 331.511 595.502 317.084 587.716C302.697 579.952 288.765 564.414 287.222 533.19C286.635 521.226 291.282 511.417 295.184 503.195C296.847 499.69 298.386 496.451 299.292 493.479C300.199 490.504 300.496 487.727 299.607 485.163C298.715 482.591 296.662 480.324 293.066 478.299C289.476 476.277 284.308 474.473 277.111 472.837L277.056 472.824H124.083V313.868Z" fill="white" stroke="#E6EFFF"/>
</svg>
