<svg width="612" height="654" viewBox="0 0 612 654" fill="none" xmlns="http://www.w3.org/2000/svg">
<path d="M123.181 441.519L123.166 441.458C120.498 430.89 117.526 424.699 113.964 421.498C110.341 418.243 106.192 418.144 101.445 419.476C99.0787 420.14 96.5398 421.165 93.8164 422.348C91.0805 423.535 88.1731 424.875 85.0108 426.199C78.7028 428.841 71.4825 431.376 63.1162 432.298C36.1556 435.049 0.326636 411.568 0.501009 370.068L0.501009 370.066C0.501009 366.463 0.503328 351.511 8.28909 337.084C16.0533 322.697 31.5922 308.765 62.8155 307.222C70.9232 306.824 78.0479 308.831 84.3574 311.383C87.5143 312.659 90.4599 314.069 93.2276 315.382C95.9879 316.691 98.5794 317.909 101 318.782C105.839 320.528 110.152 320.956 113.897 317.865C117.572 314.831 120.583 308.485 123.169 297.11L123.181 297.056L123.181 124.083L301.137 124.083L301.207 124.062C311.366 121.016 317.265 118.047 320.28 114.648C321.803 112.932 322.589 111.109 322.816 109.132C323.042 107.168 322.714 105.081 322.059 102.834C321.403 100.588 320.411 98.1484 319.283 95.4785C318.153 92.8012 316.883 89.8854 315.657 86.6552C313.284 80.4033 311.079 72.9944 310.408 64.0107L310.349 63.1367C308.823 36.5889 320.054 20.9638 333.845 11.9492C347.672 2.91046 364.108 0.499968 372.933 0.499967C412.023 0.500212 434.951 30.2816 435.392 62.038L435.397 62.789C435.397 72.1503 433.21 79.7793 430.62 86.1748C429.324 89.3758 427.927 92.2657 426.648 94.9179C425.374 97.5623 424.212 99.9838 423.402 102.218C422.593 104.452 422.121 106.542 422.259 108.525C422.398 110.525 423.155 112.383 424.739 114.146C427.87 117.631 434.243 120.755 445.509 124.063L445.578 124.083L626.893 124.083L627.504 296.937C624.515 308.682 621.353 314.918 617.861 317.794C614.44 320.612 610.598 320.273 605.913 318.461C603.57 317.554 601.054 316.294 598.315 314.911C595.584 313.532 592.638 312.036 589.464 310.682C583.111 307.97 575.815 305.809 567.358 306.224C541.317 307.504 525.543 317.819 516.281 330.102C507.324 341.982 504.489 355.658 504.28 364.668L504.269 365.524C504.166 381.378 508.69 399.327 518.922 412.803C529.173 426.302 545.138 435.286 567.81 433.176C577.592 432.262 585.474 429.829 591.983 427.331C595.234 426.084 598.149 424.817 600.772 423.722C603.404 422.623 605.737 421.698 607.857 421.113C609.977 420.529 611.85 420.294 613.565 420.551C615.269 420.806 616.85 421.55 618.383 422.982C621.473 425.87 624.351 431.535 627.504 441.539L627.125 653.115L123.181 652.823L123.181 441.519Z" stroke="#C3D9F9" stroke-opacity="0.6"/>
</svg>
