<svg width="345" height="91" viewBox="0 0 345 91" fill="none" xmlns="http://www.w3.org/2000/svg">
<g clip-path="url(#clip0_725_83)">
<path d="M173.223 3.30255e-06C182.567 2.48566e-06 206.382 5.25961 206.382 33.2239C204.368 52.3331 188.074 57.3298 211 65L135 65C158.691 58.0379 140.126 52.8934 140.126 33.0237C140.172 16.0498 152.349 5.12743e-06 173.223 3.30255e-06Z" fill="white"/>
<path d="M345 56L345.001 346C345.001 351.523 340.524 356 335.001 356L10.001 356C4.47813 356 0.000984798 351.523 0.000953556 346L3.05176e-05 56C3.05176e-05 56 106.745 63.6907 171.646 63.6907C236.547 63.6907 345 56 345 56Z" fill="white"/>
</g>
<defs>
<clipPath id="clip0_725_83">
<rect width="345" height="91" fill="white"/>
</clipPath>
</defs>
</svg>
