<?xml version="1.0" encoding="UTF-8"?>
<!-- Generated by Pixelmator Pro 3.7 -->
<svg width="375" height="115" viewBox="0 0 375 115" xmlns="http://www.w3.org/2000/svg">
    <g id="Group">
        <linearGradient id="linearGradient1" x1="425" y1="-2565.061" x2="118.887" y2="-2572.231" gradientUnits="userSpaceOnUse">
            <stop offset="1e-05" stop-color="#eefefc" stop-opacity="1"/>
            <stop offset="0.877423" stop-color="#e7eefb" stop-opacity="1"/>
        </linearGradient>
        <path id="Path" fill="url(#linearGradient1)" stroke="none" d="M -82.389801 -3155.028076 C -80.540497 -3187.173096 -109.637001 -3193 -120.328003 -3193 C -144.212006 -3193 -158.143005 -3174.656982 -158.195999 -3155.25708 C -158.195999 -3146.787109 -155.240997 -3140.657959 -152.942001 -3135.888916 C -149.167999 -3128.061035 -149.026001 -3119.061523 -162.893997 -3119.061523 L -187.996002 -3119.061523 L -188 40 C -188 40 153.505005 41.800049 185.639999 41.800049 C 217.774994 41.800049 247.492004 40 247.492004 40 C 258.610992 40 262.47699 49.159912 258.610992 57.179932 C 256.312012 61.949951 253.356995 68.080078 253.356995 76.550049 C 250.800003 97.110107 267.34201 114.290039 291.225006 114.290039 C 301.915985 114.290039 331.013 107.860107 329.162994 75.719971 C 329.162994 66.840088 326.404999 60.610107 324.317993 55.889893 C 320.907013 48.189941 321.164001 40.899902 334.446991 40 C 340.976013 39.560059 361.483002 40.23999 390.653992 40.23999 C 407.437988 40.23999 390.998993 40 416.998993 40 L 417.003998 -3119.061523 C 417.003998 -3119.061523 331.56601 -3119.662598 273.230011 -3119.662598 C 214.893005 -3119.662598 212.337006 -3119.061523 212.337006 -3119.061523 C 195.110001 -3117.558594 198.610992 -3110.062012 202.384995 -3102.233887 C 204.684998 -3097.465088 207.639999 -3091.336182 207.639999 -3082.866211 C 207.587006 -3063.466309 193.654999 -3045.122803 169.772003 -3045.122803 C 159.080994 -3045.122803 129.983994 -3050.949951 131.832993 -3083.094971 C 132.337006 -3091.118896 134.875 -3097.092285 136.869003 -3101.785645 C 140.429001 -3110.162598 141.283997 -3117.558594 127.689003 -3119.061523 C 127.689003 -3119.061523 79.004898 -3123.870605 50.684299 -3123.870605 C -31.1075 -3123.870605 -78.245796 -3119.061523 -78.245796 -3119.061523 C -94.939499 -3119.061523 -91.554298 -3126.839355 -88.1343 -3134.697266 C -87.896202 -3135.243896 -87.657898 -3135.791992 -87.426102 -3136.336914 C -85.431999 -3141.031006 -82.893898 -3147.003906 -82.389801 -3155.028076 Z"/>
    </g>
</svg>
