<?xml version="1.0" encoding="UTF-8"?>
<!-- Generated by Pixelmator Pro 3.7 -->
<svg width="77" height="74" viewBox="0 0 77 74" xmlns="http://www.w3.org/2000/svg">
    <g id="Group">
        <linearGradient id="linearGradient1" x1="172" y1="-2606.061" x2="-134.113" y2="-2613.231" gradientUnits="userSpaceOnUse">
            <stop offset="1e-05" stop-color="#eefefc" stop-opacity="1"/>
            <stop offset="0.877423" stop-color="#e7eefb" stop-opacity="1"/>
        </linearGradient>
        <path id="Path" fill="url(#linearGradient1)" stroke="none" d="M -335.389801 -3196.028076 C -333.540497 -3228.173096 -362.636993 -3234 -373.328003 -3234 C -397.212006 -3234 -411.143005 -3215.656982 -411.195984 -3196.25708 C -411.195984 -3187.787109 -408.240997 -3181.657959 -405.942017 -3176.888916 C -402.167999 -3169.061035 -402.026001 -3160.061523 -415.893982 -3160.061523 L -440.996002 -3160.061523 L -441 -1 C -441 -1 -99.494995 0.800049 -67.360001 0.800049 C -35.225006 0.800049 -5.507996 -1 -5.507996 -1 C 5.610992 -1 9.47699 8.159912 5.610992 16.179932 C 3.312012 20.949951 0.356995 27.080078 0.356995 35.550049 C -2.199997 56.110107 14.34201 73.290039 38.225006 73.290039 C 48.915985 73.290039 78.013 66.860107 76.162994 34.719971 C 76.162994 25.840088 73.404999 19.610107 71.317993 14.889893 C 67.907013 7.189941 68.164001 -0.100098 81.446991 -1 C 87.976013 -1.439941 108.483002 -0.76001 137.653992 -0.76001 C 154.437988 -0.76001 137.998993 -1 163.998993 -1 L 164.003998 -3160.061523 C 164.003998 -3160.061523 78.56601 -3160.662598 20.230011 -3160.662598 C -38.106995 -3160.662598 -40.662994 -3160.061523 -40.662994 -3160.061523 C -57.889999 -3158.558594 -54.389008 -3151.062012 -50.615005 -3143.233887 C -48.315002 -3138.465088 -45.360001 -3132.336182 -45.360001 -3123.866211 C -45.412994 -3104.466309 -59.345001 -3086.122803 -83.227997 -3086.122803 C -93.919006 -3086.122803 -123.016006 -3091.949951 -121.167007 -3124.094971 C -120.662994 -3132.118896 -118.125 -3138.092285 -116.130997 -3142.785645 C -112.570999 -3151.162598 -111.716003 -3158.558594 -125.310997 -3160.061523 C -125.310997 -3160.061523 -173.995102 -3164.870605 -202.315704 -3164.870605 C -284.107513 -3164.870605 -331.245789 -3160.061523 -331.245789 -3160.061523 C -347.939514 -3160.061523 -344.554291 -3167.839355 -341.134308 -3175.697266 C -340.89621 -3176.243896 -340.657898 -3176.791992 -340.426086 -3177.336914 C -338.432007 -3182.031006 -335.89389 -3188.003906 -335.389801 -3196.028076 Z"/>
    </g>
</svg>
