<svg width="91" height="290" viewBox="0 0 91 290" fill="none" xmlns="http://www.w3.org/2000/svg">
<g clip-path="url(#clip0_725_87)">
<path d="M91 145.247C91 155.574 85.174 181.896 54.1981 181.896C33.031 179.67 27.4963 161.66 19 187L19 103C26.7118 129.185 32.4104 108.666 54.4199 108.666C73.2218 108.717 91 122.175 91 145.247Z" fill="#3A77DC"/>
<path d="M27 290L-429 290C-434.523 290 -439 285.523 -439 280L-439 10.0001C-439 4.47727 -434.523 0.0001319 -429 0.000131418L27 -3.05176e-05C27 -3.05176e-05 20.5327 89.7277 20.5327 144.282C20.5327 198.837 27 290 27 290Z" fill="#3A77DC"/>
</g>
<defs>
<clipPath id="clip0_725_87">
<rect width="91" height="290" fill="white"/>
</clipPath>
</defs>
</svg>
