<?xml version="1.0" encoding="UTF-8"?>
<!-- Generated by Pixelmator Pro 3.7 -->
<svg width="77" height="74" viewBox="0 0 77 74" xmlns="http://www.w3.org/2000/svg">
    <g id="Group">
        <linearGradient id="linearGradient1" x1="-18" y1="1173" x2="426.268" y2="1189.99" gradientUnits="userSpaceOnUse">
            <stop offset="1e-05" stop-color="#e7eefb" stop-opacity="1"/>
            <stop offset="1" stop-color="#eefefc" stop-opacity="1"/>
        </linearGradient>
        <path id="Path" fill="url(#linearGradient1)" stroke="none" d="M 76.503998 38.034546 C 78.352997 5.889404 49.256989 0.0625 38.56601 0.0625 C 14.682007 0.0625 0.75 18.406006 0.697998 37.805542 C 0.697998 46.275757 3.653015 52.404663 5.951996 57.17334 C 9.726013 65.001465 9.868011 74.001099 -4 74.001099 L -401 74.001099 L -401 1730 C -401 1730 -121.134995 1731.800049 -89 1731.800049 C -56.865005 1731.800049 -27.147003 1730 -27.147003 1730 C -16.028015 1730 -12.162994 1739.160034 -16.028015 1747.180054 C -18.326996 1751.949951 -21.281998 1758.079956 -21.281998 1766.550049 C -23.839996 1787.109985 -7.296997 1804.290039 16.585999 1804.290039 C 27.277008 1804.290039 56.373993 1797.859985 54.523987 1765.719971 C 54.523987 1756.839966 51.765991 1750.609985 49.678986 1745.890015 C 46.268005 1738.189941 46.524994 1730.900024 59.808014 1730 C 66.337006 1729.560059 86.843994 1730.23999 116.015015 1730.23999 C 132.799011 1730.23999 165 1730 552 1730 L 552 74.001099 C 552 74.001099 526.73999 73.399902 468.403992 73.399902 C 410.067017 73.399902 407.510986 74.001099 407.510986 74.001099 C 390.28302 75.503906 393.784973 83.000732 397.559021 90.828857 C 399.857971 95.597534 402.812988 101.725952 402.812988 110.196045 C 402.76001 129.595947 388.828979 147.939941 364.945007 147.939941 C 354.254028 147.939941 325.156982 142.113037 327.007019 109.968018 C 327.510986 101.94397 330.049011 95.970215 332.04303 91.276855 C 335.60199 82.899902 336.45697 75.503906 322.862976 74.001099 C 322.862976 74.001099 309.369995 69.192139 227.578003 69.192139 C 145.786011 69.192139 80.64801 74.001099 80.64801 74.001099 C 63.95401 74.001099 67.339996 66.223145 70.76001 58.365356 C 70.997986 57.818237 71.235992 57.27063 71.467987 56.72522 C 73.462006 52.031982 76 46.058472 76.503998 38.034546 Z"/>
    </g>
</svg>
