<svg width="55" height="55" viewBox="0 0 55 55" fill="none" xmlns="http://www.w3.org/2000/svg">
<path d="M27.5 55C42.6878 55 55 42.6878 55 27.5C55 21.3226 52.9632 15.6209 49.5245 11.0299C48.8462 10.1246 47.5 10.6392 47.5 11.7702V17.5C47.5 18.8807 46.3807 20 45 20H32.5C31.1192 20 30 18.8807 30 17.5C30 16.1193 31.1192 15 32.5 15H39.748C36.59 11.905 32.2665 10 27.5 10C17.835 10 10 17.835 10 27.5C10 37.165 17.835 45 27.5 45C37.165 45 45 37.165 45 27.5C45 26.1192 46.1193 25 47.5 25C48.8807 25 50 26.1192 50 27.5C50 39.9265 39.9265 50 27.5 50C15.0736 50 5 39.9265 5 27.5C5 15.0736 15.0736 5 27.5 5C33.2643 5 38.5208 7.16825 42.5 10.7297V5.16465C42.5037 4.73943 42.3398 4.33975 41.9785 4.11555C37.7735 1.50647 32.8127 0 27.5 0C12.3122 0 0 12.3122 0 27.5C0 42.6878 12.3122 55 27.5 55Z" fill="#0C5ADB"/>
</svg>
