<svg width="1920" height="2005" viewBox="0 0 1920 2005" fill="none" xmlns="http://www.w3.org/2000/svg">
<g filter="url(#filter0_i_2_1356)">
<path d="M247.628 2005C265.405 2005 310.711 1995 310.711 1941.83C309.399 1929.39 304.899 1920.09 301.302 1912.66C294.782 1899.19 291.911 1887.5 315 1883C315 1883 1080 1914.63 1305 1897C1530 1879.37 1920 1897 1920 1897V-5.99902C1920 -5.99902 1593 2.00098 1534 -5.99902C1475 -13.999 1107.85 -5.99902 1101.16 -5.99902C1087.31 -5.99902 1079.25 -21.0216 1085.45 -35.3552C1088.52 -42.4657 1092.27 -51.1309 1093.5 -61.999C1096.37 -89.3062 1075.5 -130.999 1031.3 -127.998C1031.01 -127.998 1030.65 -128.003 1030.22 -128.01C1019.47 -128.164 966.02 -128.933 966.02 -65.0452C965.408 -52.9082 970.257 -42.9669 974.274 -34.7327C980.808 -21.3398 979.366 -5.99902 960.183 -5.99902C941 -5.99902 531 -5.99902 449.591 -5.99902C368.183 -5.99902 0 -5.99902 0 -5.99902V1883C0 1883 33 1883 112 1883C191 1883 179.968 1883 179.968 1883C198.411 1883 197.925 1897.52 191.911 1910C188.088 1917.93 184.663 1928.12 184.663 1942.21C184.75 1974.48 207.916 2005 247.628 2005Z" fill="url(#paint0_linear_2_1356)"/>
</g>
<defs>
<filter id="filter0_i_2_1356" x="0" y="-128.152" width="1920" height="2139.15" filterUnits="userSpaceOnUse" color-interpolation-filters="sRGB">
<feFlood flood-opacity="0" result="BackgroundImageFix"/>
<feBlend mode="normal" in="SourceGraphic" in2="BackgroundImageFix" result="shape"/>
<feColorMatrix in="SourceAlpha" type="matrix" values="0 0 0 0 0 0 0 0 0 0 0 0 0 0 0 0 0 0 127 0" result="hardAlpha"/>
<feOffset dy="6"/>
<feGaussianBlur stdDeviation="15"/>
<feComposite in2="hardAlpha" operator="arithmetic" k2="-1" k3="1"/>
<feColorMatrix type="matrix" values="0 0 0 0 0.0468641 0 0 0 0 0.19139 0 0 0 0 0.433517 0 0 0 0.1 0"/>
<feBlend mode="normal" in2="shape" result="effect1_innerShadow_2_1356"/>
</filter>
<linearGradient id="paint0_linear_2_1356" x1="257.584" y1="1155.08" x2="1830.48" y2="1115.39" gradientUnits="userSpaceOnUse">
<stop stop-color="#E7E9FB"/>
<stop offset="0.755" stop-color="#EEFEFC"/>
</linearGradient>
</defs>
</svg>
