<svg width="1140" height="3308" viewBox="0 0 1140 3308" fill="none" xmlns="http://www.w3.org/2000/svg">
<g filter="url(#filter0_i_1334_56)">
<path d="M372.611 37.9719C374.46 5.82687 345.363 -6.03852e-05 334.672 -5.85159e-05C310.789 -5.43401e-05 296.857 18.3434 296.804 37.7431C296.804 46.2132 299.759 52.3421 302.058 57.1108C305.833 64.9389 305.975 73.9385 292.107 73.9385L0.00489097 73.9386L0.000565276 3233C0.000565276 3233 608.505 3234.8 640.64 3234.8C672.775 3234.8 702.493 3233 702.493 3233C713.612 3233 717.477 3242.16 713.612 3250.18C711.313 3254.95 708.358 3261.08 708.358 3269.55C705.801 3290.11 722.342 3307.29 746.226 3307.29C756.917 3307.29 786.013 3300.86 784.164 3268.72C784.164 3259.84 781.405 3253.61 779.318 3248.89C775.908 3241.19 776.165 3233.9 789.448 3233C795.976 3232.56 1084.48 3233.24 1113.65 3233.24C1130.44 3233.24 1114 3233 1140 3233L1140 73.9384C1140 73.9384 786.567 73.3373 728.23 73.3373C669.894 73.3373 667.338 73.9384 667.338 73.9384C650.11 75.4413 653.612 82.938 657.386 90.7661C659.685 95.5348 662.64 101.664 662.64 110.134C662.587 129.534 648.656 147.877 624.772 147.877C614.081 147.877 584.984 142.05 586.834 109.905C587.338 101.881 589.876 95.9076 591.87 91.2143C595.429 82.8373 596.284 75.4413 582.69 73.9385C582.69 73.9385 534.006 69.1295 505.685 69.1295C423.893 69.1295 376.755 73.9385 376.755 73.9385C360.061 73.9385 363.446 66.1606 366.866 58.3028C367.104 57.7556 367.343 57.208 367.574 56.6626C369.569 51.9694 372.107 45.996 372.611 37.9719Z" fill="url(#paint0_linear_1334_56)"/>
</g>
<defs>
<filter id="filter0_i_1334_56" x="0.000976562" y="0" width="1140" height="3313.29" filterUnits="userSpaceOnUse" color-interpolation-filters="sRGB">
<feFlood flood-opacity="0" result="BackgroundImageFix"/>
<feBlend mode="normal" in="SourceGraphic" in2="BackgroundImageFix" result="shape"/>
<feColorMatrix in="SourceAlpha" type="matrix" values="0 0 0 0 0 0 0 0 0 0 0 0 0 0 0 0 0 0 127 0" result="hardAlpha"/>
<feOffset dy="6"/>
<feGaussianBlur stdDeviation="15"/>
<feComposite in2="hardAlpha" operator="arithmetic" k2="-1" k3="1"/>
<feColorMatrix type="matrix" values="0 0 0 0 0.0468641 0 0 0 0 0.19139 0 0 0 0 0.433517 0 0 0 0.1 0"/>
<feBlend mode="normal" in2="shape" result="effect1_innerShadow_1334_56"/>
</filter>
<linearGradient id="paint0_linear_1334_56" x1="880.001" y1="627.939" x2="573.888" y2="620.769" gradientUnits="userSpaceOnUse">
<stop offset="0.122577" stop-color="#E7EEFB"/>
<stop offset="1" stop-color="#EEFEFC"/>
</linearGradient>
</defs>
</svg>
