<svg width="375" height="3150" viewBox="0 0 375 3150" fill="none" xmlns="http://www.w3.org/2000/svg">
<g filter="url(#filter0_i_607_19)">
<path d="M-82.3898 -120.028C-80.5405 -152.173 -109.637 -158 -120.328 -158C-144.212 -158 -158.143 -139.657 -158.196 -120.257C-158.196 -111.787 -155.241 -105.658 -152.942 -100.889C-149.168 -93.061 -149.026 -84.0614 -162.894 -84.0614L-187.996 -84.0614L-188 3075C-188 3075 153.505 3076.8 185.64 3076.8C217.775 3076.8 247.492 3075 247.492 3075C258.611 3075 262.477 3084.16 258.611 3092.18C256.312 3096.95 253.357 3103.08 253.357 3111.55C250.8 3132.11 267.342 3149.29 291.225 3149.29C301.916 3149.29 331.013 3142.86 329.163 3110.72C329.163 3101.84 326.405 3095.61 324.318 3090.89C320.907 3083.19 321.164 3075.9 334.447 3075C340.976 3074.56 361.483 3075.24 390.654 3075.24C407.438 3075.24 390.999 3075 416.999 3075L417.004 -84.0616C417.004 -84.0616 331.566 -84.6627 273.23 -84.6626C214.893 -84.6626 212.337 -84.0615 212.337 -84.0615C195.11 -82.5587 198.611 -75.0619 202.385 -67.2338C204.685 -62.4651 207.64 -56.3362 207.64 -47.8661C207.587 -28.4664 193.655 -10.1229 169.772 -10.1229C159.081 -10.1229 129.984 -15.9499 131.833 -48.0949C132.337 -56.1189 134.875 -62.0924 136.869 -66.7856C140.429 -75.1626 141.284 -82.5587 127.689 -84.0615C127.689 -84.0615 79.0049 -88.8705 50.6843 -88.8705C-31.1075 -88.8705 -78.2458 -84.0614 -78.2458 -84.0614C-94.9395 -84.0614 -91.5543 -91.8393 -88.1343 -99.6972C-87.8962 -100.244 -87.6579 -100.792 -87.4261 -101.337C-85.432 -106.031 -82.8939 -112.004 -82.3898 -120.028Z" fill="url(#paint0_linear_607_19)"/>
</g>
<defs>
<filter id="filter0_i_607_19" x="-188" y="-158" width="605.004" height="3313.29" filterUnits="userSpaceOnUse" color-interpolation-filters="sRGB">
<feFlood flood-opacity="0" result="BackgroundImageFix"/>
<feBlend mode="normal" in="SourceGraphic" in2="BackgroundImageFix" result="shape"/>
<feColorMatrix in="SourceAlpha" type="matrix" values="0 0 0 0 0 0 0 0 0 0 0 0 0 0 0 0 0 0 127 0" result="hardAlpha"/>
<feOffset dy="6"/>
<feGaussianBlur stdDeviation="15"/>
<feComposite in2="hardAlpha" operator="arithmetic" k2="-1" k3="1"/>
<feColorMatrix type="matrix" values="0 0 0 0 0.0468641 0 0 0 0 0.19139 0 0 0 0 0.433517 0 0 0 0.1 0"/>
<feBlend mode="normal" in2="shape" result="effect1_innerShadow_607_19"/>
</filter>
<linearGradient id="paint0_linear_607_19" x1="425" y1="469.939" x2="118.887" y2="462.769" gradientUnits="userSpaceOnUse">
<stop stop-color="#EEFEFC"/>
<stop offset="0.877423" stop-color="#E7EEFB"/>
</linearGradient>
</defs>
</svg>
