<svg width="1920" height="2035" viewBox="0 0 1920 2035" fill="none" xmlns="http://www.w3.org/2000/svg">
<g filter="url(#filter0_i_562_1910)">
<path d="M247.628 2035C265.405 2035 310.711 2025 310.711 1971.83C309.399 1959.39 304.899 1950.09 301.302 1942.66C294.782 1929.19 291.911 1917.5 315 1913C315 1913 1080 1944.63 1305 1927C1530 1909.37 1920 1927 1920 1927V-5.99902C1920 -5.99902 1593 2.00098 1534 -5.99902C1475 -13.999 1107.85 -5.99902 1101.16 -5.99902C1087.31 -5.99902 1079.25 -21.0215 1085.45 -35.3552C1088.52 -42.4658 1092.27 -51.1309 1093.5 -61.999C1096.37 -89.3062 1075.5 -130.999 1031.3 -127.998C1031.01 -127.998 1030.65 -128.003 1030.22 -128.01C1019.47 -128.164 966.02 -128.933 966.02 -65.0452C965.408 -52.9082 970.257 -42.9668 974.274 -34.7327C980.808 -21.3398 979.366 -5.99902 960.183 -5.99902C941 -5.99902 531 -5.99902 449.591 -5.99902C368.183 -5.99902 0 -5.99902 0 -5.99902V1913C0 1913 33 1913 112 1913C191 1913 179.968 1913 179.968 1913C198.411 1913 197.925 1927.52 191.911 1940C188.088 1947.93 184.663 1958.12 184.663 1972.21C184.75 2004.48 207.916 2035 247.628 2035Z" fill="url(#paint0_linear_562_1910)"/>
</g>
<defs>
<filter id="filter0_i_562_1910" x="0" y="-128.152" width="1920" height="2169.15" filterUnits="userSpaceOnUse" color-interpolation-filters="sRGB">
<feFlood flood-opacity="0" result="BackgroundImageFix"/>
<feBlend mode="normal" in="SourceGraphic" in2="BackgroundImageFix" result="shape"/>
<feColorMatrix in="SourceAlpha" type="matrix" values="0 0 0 0 0 0 0 0 0 0 0 0 0 0 0 0 0 0 127 0" result="hardAlpha"/>
<feOffset dy="6"/>
<feGaussianBlur stdDeviation="15"/>
<feComposite in2="hardAlpha" operator="arithmetic" k2="-1" k3="1"/>
<feColorMatrix type="matrix" values="0 0 0 0 0.0468641 0 0 0 0 0.19139 0 0 0 0 0.433517 0 0 0 0.1 0"/>
<feBlend mode="normal" in2="shape" result="effect1_innerShadow_562_1910"/>
</filter>
<linearGradient id="paint0_linear_562_1910" x1="257.584" y1="1173.13" x2="1830.51" y2="1133.98" gradientUnits="userSpaceOnUse">
<stop stop-color="#E7E9FB"/>
<stop offset="0.755" stop-color="#EEFEFC"/>
</linearGradient>
</defs>
</svg>
