<svg width="306" height="189" viewBox="0 0 306 189" fill="none" xmlns="http://www.w3.org/2000/svg">
<path d="M186.621 94.669C186.715 103.016 180.048 111.963 170.141 111.331C168.084 111.087 166.242 110.41 164.545 109.672C162.907 108.959 161.249 108.11 159.819 107.71C158.31 107.287 156.748 107.268 155.365 108.45C154.09 109.54 153.135 111.528 152.331 114.572L152.297 114.698L152.298 114.827L152.261 152.736L114.937 152.693C111.86 151.827 110.405 151.035 109.778 150.327C109.496 150.008 109.39 149.714 109.369 149.401C109.347 149.057 109.425 148.628 109.63 148.058C109.835 147.488 110.137 146.855 110.502 146.102C110.86 145.364 111.271 144.526 111.654 143.606C112.424 141.754 113.097 139.53 113.107 136.841L113.107 136.807C112.855 128.54 109.112 123.853 104.912 121.286C100.797 118.773 96.3253 118.335 94.4768 118.355C85.3826 118.24 75.2903 125.593 76.0249 136.967L76.0261 136.991L76.0294 137.014C76.2929 139.366 77.0438 141.423 77.7951 143.193C78.5737 145.026 79.2795 146.409 79.6215 147.665C79.9423 148.844 79.8552 149.619 79.2839 150.297C78.6346 151.066 77.2261 151.88 74.3808 152.654L37.1582 152.61L37.1449 114.717L37.1442 114.588L37.1113 114.464C36.3133 111.427 35.3635 109.443 34.0905 108.353C32.7106 107.172 31.1496 107.19 29.6399 107.607C28.2099 108.002 26.5497 108.843 24.91 109.547C23.2102 110.277 21.3668 110.946 19.3069 111.179C9.41473 111.868 2.77286 102.867 2.8555 94.4336L2.85552 94.4346C2.88237 92.7559 3.28268 88.6021 5.54153 84.8429C7.75842 81.1536 11.8076 77.7618 19.3579 77.5273C21.6818 77.5396 23.628 78.1289 25.323 78.8447C26.1785 79.206 26.9604 79.5951 27.7119 79.9649C28.4483 80.3272 29.1776 80.6816 29.8664 80.9328C30.5554 81.1841 31.2848 81.3638 32.0249 81.3147C32.7973 81.2635 33.5108 80.968 34.1517 80.3942C35.352 79.3194 36.2757 77.2757 37.1549 74.0662L37.1903 73.9368L37.1905 73.803L37.2311 36.0736L74.4832 36.4369L74.6238 36.4379L74.7591 36.401C77.9362 35.5232 79.9619 34.6008 81.0279 33.4016C81.5968 32.7617 81.8892 32.0501 81.9407 31.281C81.9899 30.544 81.814 29.8166 81.5667 29.1285C81.3194 28.4406 80.9696 27.7115 80.6126 26.9748C80.2483 26.223 79.8644 25.4399 79.5089 24.5828C78.8043 22.8842 78.2266 20.9302 78.2213 18.5933C78.4628 11.0759 81.8412 7.05084 85.5027 4.8512C89.2329 2.61038 93.3415 2.22014 94.9658 2.19859C103.193 2.10708 112.056 8.77029 111.482 18.7022C111.229 20.7532 110.555 22.5897 109.825 24.284C109.118 25.9252 108.282 27.5809 107.89 29.0139C107.476 30.5243 107.463 32.0836 108.632 33.4655C109.713 34.7433 111.679 35.7012 114.685 36.5075L114.816 36.5419L114.952 36.5411L152.42 36.2667L152.414 73.98L152.414 74.1138L152.448 74.2422C153.322 77.4539 154.239 79.4996 155.433 80.5767C156.071 81.152 156.782 81.4493 157.554 81.5021C158.293 81.5526 159.021 81.3742 159.709 81.1242C160.397 80.8743 161.125 80.521 161.861 80.1604C162.612 79.7923 163.394 79.4041 164.25 79.045C165.946 78.3332 167.898 77.7483 170.231 77.7428C177.743 77.9926 181.767 81.3932 183.967 85.0868C186.209 88.8491 186.599 92.9991 186.621 94.669Z" fill="white" stroke="#0D5ADB" stroke-width="2" stroke-miterlimit="10"/>
<path d="M153.004 36.5064L152.959 74.6799C156.114 86.4759 160.829 78.1587 169.612 77.1736C180.207 76.4889 187.166 85.9153 187.058 94.5304C187.102 97.9412 185.423 111.609 169.678 112.088C159.671 112.049 156.422 102.164 152.922 114.764L152.878 153.04L191.558 153.078C203.533 156.247 195.071 160.947 194.044 169.744C193.348 180.346 202.884 187.333 211.61 187.236C215.105 187.19 228.909 185.628 229.42 169.946C229.408 159.934 219.392 156.671 232.166 153.194L270.659 153.201L270.378 114.912C273.547 103.085 278.259 111.398 287.035 112.46C297.63 113.088 304.615 103.65 304.519 95.0202C304.474 91.6094 302.913 77.8651 287.24 77.3712C277.234 77.383 273.971 87.3016 270.481 74.6572L270.852 36.5817L232.342 36.5408C219.579 33.0409 229.593 29.7541 229.633 19.7754C229.154 4.02128 215.359 2.42825 211.846 2.37196C203.049 2.28262 193.44 9.23128 194.193 19.8307C195.177 28.6361 203.609 33.3526 191.667 36.4941L153.004 36.5064Z" fill="#0D5ADB" stroke="#0C5ADB" stroke-width="2" stroke-miterlimit="10"/>
</svg>
