<svg width="1140" height="1805" viewBox="0 0 1140 1805" fill="none" xmlns="http://www.w3.org/2000/svg">
<g filter="url(#filter0_i_1334_61)">
<path d="M571.504 37.972C573.353 5.82694 544.257 0 533.566 0C509.682 0 495.75 18.3435 495.698 37.7431C495.698 46.2133 498.653 52.3422 500.952 57.1109C504.726 64.939 504.868 73.9386 491 73.9386H0V180.938V1729.94C0 1729.94 373.865 1731.74 406 1731.74C438.135 1731.74 467.853 1729.94 467.853 1729.94C478.972 1729.94 482.837 1739.1 478.972 1747.12C476.673 1751.88 473.718 1758.01 473.718 1766.48C471.16 1787.04 487.703 1804.23 511.586 1804.23C522.277 1804.23 551.374 1797.8 549.524 1765.65C549.524 1756.77 546.766 1750.54 544.679 1745.83C541.268 1738.13 541.525 1730.84 554.808 1729.94C561.337 1729.49 581.844 1730.18 611.015 1730.18C627.799 1730.18 753 1729.94 1140 1729.94V180.938V73.9386C1140 73.9386 1021.74 73.3374 963.404 73.3374C905.067 73.3374 902.511 73.9386 902.511 73.9386C885.283 75.4414 888.785 82.9382 892.559 90.7663C894.858 95.535 897.813 101.664 897.813 110.134C897.76 129.534 883.829 147.877 859.945 147.877C849.254 147.877 820.157 142.05 822.007 109.905C822.511 101.881 825.049 95.9077 827.043 91.2144C830.602 82.8374 831.457 75.4414 817.863 73.9386C817.863 73.9386 804.37 69.1296 722.578 69.1296C640.786 69.1296 575.648 73.9386 575.648 73.9386C558.954 73.9386 562.34 66.1607 565.76 58.3029C565.998 57.7557 566.236 57.2081 566.468 56.6627C568.462 51.9695 571 45.996 571.504 37.972Z" fill="url(#paint0_linear_1334_61)"/>
</g>
<defs>
<filter id="filter0_i_1334_61" x="0" y="0" width="1140" height="1810.23" filterUnits="userSpaceOnUse" color-interpolation-filters="sRGB">
<feFlood flood-opacity="0" result="BackgroundImageFix"/>
<feBlend mode="normal" in="SourceGraphic" in2="BackgroundImageFix" result="shape"/>
<feColorMatrix in="SourceAlpha" type="matrix" values="0 0 0 0 0 0 0 0 0 0 0 0 0 0 0 0 0 0 127 0" result="hardAlpha"/>
<feOffset dy="6"/>
<feGaussianBlur stdDeviation="15"/>
<feComposite in2="hardAlpha" operator="arithmetic" k2="-1" k3="1"/>
<feColorMatrix type="matrix" values="0 0 0 0 0.0468641 0 0 0 0 0.19139 0 0 0 0 0.433517 0 0 0 0.1 0"/>
<feBlend mode="normal" in2="shape" result="effect1_innerShadow_1334_61"/>
</filter>
<linearGradient id="paint0_linear_1334_61" x1="477" y1="1172.94" x2="921.269" y2="1189.93" gradientUnits="userSpaceOnUse">
<stop stop-color="#E7EEFB"/>
<stop offset="1" stop-color="#EEFEFC"/>
</linearGradient>
</defs>
</svg>
