<svg width="375" height="1805" viewBox="0 0 375 1805" fill="none" xmlns="http://www.w3.org/2000/svg">
<g filter="url(#filter0_i_607_20)">
<path d="M349.504 38.0345C351.353 5.88944 322.257 0.0625 311.566 0.0625C287.682 0.0625 273.75 18.406 273.698 37.8056C273.698 46.2758 276.653 52.4047 278.952 57.1734C282.726 65.0015 282.868 74.0011 269 74.0011H-128V1730C-128 1730 151.865 1731.8 184 1731.8C216.135 1731.8 245.853 1730 245.853 1730C256.972 1730 260.837 1739.16 256.972 1747.18C254.673 1751.95 251.718 1758.08 251.718 1766.55C249.16 1787.11 265.703 1804.29 289.586 1804.29C300.277 1804.29 329.374 1797.86 327.524 1765.72C327.524 1756.84 324.766 1750.61 322.679 1745.89C319.268 1738.19 319.525 1730.9 332.808 1730C339.337 1729.56 359.844 1730.24 389.015 1730.24C405.799 1730.24 438 1730 825 1730V74.0011C825 74.0011 799.74 73.3999 741.404 73.3999C683.067 73.3999 680.511 74.0011 680.511 74.0011C663.283 75.5039 666.785 83.0007 670.559 90.8288C672.858 95.5975 675.813 101.726 675.813 110.196C675.76 129.596 661.829 147.94 637.945 147.94C627.254 147.94 598.157 142.113 600.007 109.968C600.511 101.944 603.049 95.9702 605.043 91.2769C608.602 82.8999 609.457 75.5039 595.863 74.0011C595.863 74.0011 582.37 69.1921 500.578 69.1921C418.786 69.1921 353.648 74.0011 353.648 74.0011C336.954 74.0011 340.34 66.2232 343.76 58.3654C343.998 57.8182 344.236 57.2706 344.468 56.7252C346.462 52.032 349 46.0585 349.504 38.0345Z" fill="url(#paint0_linear_607_20)"/>
</g>
<defs>
<filter id="filter0_i_607_20" x="-128" y="0.0625" width="953" height="1810.23" filterUnits="userSpaceOnUse" color-interpolation-filters="sRGB">
<feFlood flood-opacity="0" result="BackgroundImageFix"/>
<feBlend mode="normal" in="SourceGraphic" in2="BackgroundImageFix" result="shape"/>
<feColorMatrix in="SourceAlpha" type="matrix" values="0 0 0 0 0 0 0 0 0 0 0 0 0 0 0 0 0 0 127 0" result="hardAlpha"/>
<feOffset dy="6"/>
<feGaussianBlur stdDeviation="15"/>
<feComposite in2="hardAlpha" operator="arithmetic" k2="-1" k3="1"/>
<feColorMatrix type="matrix" values="0 0 0 0 0.0468641 0 0 0 0 0.19139 0 0 0 0 0.433517 0 0 0 0.1 0"/>
<feBlend mode="normal" in2="shape" result="effect1_innerShadow_607_20"/>
</filter>
<linearGradient id="paint0_linear_607_20" x1="255" y1="1173" x2="699.268" y2="1189.99" gradientUnits="userSpaceOnUse">
<stop stop-color="#E7EEFB"/>
<stop offset="1" stop-color="#EEFEFC"/>
</linearGradient>
</defs>
</svg>
