<svg width="20" height="20" viewBox="0 0 20 20" fill="none" xmlns="http://www.w3.org/2000/svg">
<path d="M20 10C20 4.47715 15.5228 0 10 0C4.47715 0 0 4.47715 0 10C0 15.5228 4.47715 20 10 20C15.5228 20 20 15.5228 20 10Z" fill="url(#paint0_linear_2_1700)"/>
<path d="M4.62508 9.71255C7.56921 8.43794 9.53239 7.59761 10.5147 7.19156C13.3193 6.03235 13.9022 5.83098 14.282 5.82428C14.3655 5.82289 14.5523 5.84346 14.6734 5.94101C14.7755 6.0234 14.8036 6.13471 14.8171 6.21279C14.8305 6.29092 14.8473 6.46886 14.834 6.60787C14.682 8.19476 14.0244 12.0458 13.6898 13.8231C13.5482 14.5752 13.2694 14.8273 12.9996 14.852C12.4131 14.9056 11.9677 14.4669 11.3997 14.0968C10.5108 13.5179 10.0087 13.1574 9.14591 12.5924C8.14881 11.9395 8.79519 11.5806 9.36345 10.9941C9.51215 10.8406 12.0962 8.50494 12.1462 8.29309C12.1525 8.26657 12.1583 8.16779 12.0992 8.11565C12.0402 8.06351 11.953 8.08133 11.8901 8.09549C11.801 8.11561 10.381 9.04827 7.63021 10.8935C7.22714 11.1685 6.86208 11.3025 6.53499 11.2955C6.17441 11.2877 5.48078 11.0929 4.96513 10.9263C4.33267 10.722 3.82998 10.614 3.87375 10.2671C3.89655 10.0863 4.14699 9.90149 4.62508 9.71255Z" fill="white"/>
<defs>
<linearGradient id="paint0_linear_2_1700" x1="10" y1="0" x2="10" y2="19.8517" gradientUnits="userSpaceOnUse">
<stop stop-color="#2AABEE"/>
<stop offset="1" stop-color="#229ED9"/>
</linearGradient>
</defs>
</svg>
