<svg width="20" height="20" viewBox="0 0 20 20" fill="none" xmlns="http://www.w3.org/2000/svg">
<path d="M20 10C20 4.47715 15.5228 0 10 0C4.47715 0 0 4.47715 0 10C0 15.5228 4.47715 20 10 20C15.5228 20 20 15.5228 20 10Z" fill="#0DC143"/>
<path d="M14.4524 5.56596C13.3766 4.46742 11.8894 3.87109 10.3705 3.87109C7.14296 3.87109 4.54825 6.47616 4.57991 9.64615C4.57991 10.6505 4.8647 11.6235 5.33933 12.5023L4.5166 15.484L7.58597 14.6993C8.44031 15.1701 9.38961 15.3898 10.3389 15.3898C13.5348 15.3898 16.1295 12.7848 16.1295 9.61475C16.1295 8.07683 15.5283 6.6331 14.4524 5.56596ZM10.3705 14.4169C9.51618 14.4169 8.6618 14.1972 7.93403 13.7577L7.74415 13.6636L5.90891 14.1344L6.38354 12.3454L6.25697 12.1571C4.8647 9.92863 5.52916 6.97833 7.80746 5.59735C10.0857 4.21634 13.0285 4.87544 14.4208 7.13527C15.8131 9.39506 15.1486 12.314 12.8703 13.695C12.1425 14.1658 11.2565 14.4169 10.3705 14.4169ZM13.1551 10.933L12.807 10.776C12.807 10.776 12.3007 10.5564 11.9843 10.3994C11.9527 10.3994 11.921 10.3681 11.8894 10.3681C11.7944 10.3681 11.7312 10.3994 11.6679 10.4308C11.6679 10.4308 11.6363 10.4622 11.1932 10.9644C11.1616 11.0272 11.0983 11.0585 11.035 11.0585H11.0034C10.9717 11.0585 10.9084 11.0272 10.8768 10.9958L10.7186 10.933C10.3705 10.776 10.0541 10.5877 9.80097 10.3367C9.73766 10.2739 9.64274 10.2111 9.57944 10.1483C9.35795 9.92863 9.13647 9.67754 8.97824 9.39506L8.94659 9.33231C8.91494 9.30091 8.91494 9.26952 8.88333 9.20677C8.88333 9.14397 8.88333 9.08122 8.91494 9.04983C8.91494 9.04983 9.04151 8.89289 9.13647 8.79874C9.19973 8.73595 9.23138 8.6418 9.29469 8.57905C9.35795 8.48486 9.38961 8.35931 9.35795 8.26517C9.3263 8.10823 8.94659 7.26082 8.85167 7.07248C8.78837 6.97833 8.7251 6.94694 8.63019 6.91554H8.53523C8.47196 6.91554 8.37705 6.91554 8.28209 6.91554C8.21882 6.91554 8.15552 6.94694 8.09225 6.94694L8.0606 6.97833C7.99729 7.00973 7.93403 7.07248 7.87072 7.10388C7.80746 7.16663 7.77581 7.22942 7.71254 7.29217C7.49101 7.57466 7.36444 7.91993 7.36444 8.26517C7.36444 8.51625 7.42775 8.76734 7.52267 8.98703L7.55432 9.08122C7.83911 9.67755 8.21882 10.2111 8.7251 10.6819L8.85167 10.8074C8.94659 10.9016 9.04151 10.9644 9.10481 11.0585C9.76931 11.6235 10.5287 12.0315 11.3831 12.2512C11.478 12.2826 11.6046 12.2826 11.6995 12.314C11.7944 12.314 11.921 12.314 12.016 12.314C12.1741 12.314 12.364 12.2512 12.4906 12.1885C12.5855 12.1257 12.6488 12.1257 12.7121 12.0629L12.7754 12.0001C12.8386 11.9373 12.9019 11.906 12.9652 11.8432C13.0285 11.7804 13.0918 11.7176 13.1234 11.6549C13.1867 11.5293 13.2184 11.3724 13.25 11.2155C13.25 11.1527 13.25 11.0585 13.25 10.9958C13.25 10.9958 13.2184 10.9644 13.1551 10.933Z" fill="white"/>
</svg>
