<svg width="84" height="108" viewBox="0 0 84 108" fill="none" xmlns="http://www.w3.org/2000/svg">
<path fill-rule="evenodd" clip-rule="evenodd" d="M41.5 0C26.6985 0 14.7 11.9982 14.7 26.7995C14.7 34.1977 17.699 40.897 22.5458 45.7461C27.395 50.5977 38.8203 57.6186 39.4902 64.9902C39.5918 66.0955 40.3923 67 41.5 67C42.6101 67 43.4107 66.0955 43.5122 64.9902C44.1822 57.6186 55.605 50.5977 60.4542 45.7461C65.3034 40.897 68.3 34.1977 68.3 26.7995C68.3 11.9982 56.3016 0 41.5 0Z" fill="#FF4433"/>
<path fill-rule="evenodd" clip-rule="evenodd" d="M41.575 36.2827C46.7701 36.2827 50.9804 32.0699 50.9804 26.8773C50.9804 21.6823 46.7701 17.4695 41.575 17.4695C36.38 17.4695 32.1696 21.6823 32.1696 26.8773C32.1696 32.0699 36.38 36.2827 41.575 36.2827Z" fill="white"/>
<path fill-rule="evenodd" clip-rule="evenodd" d="M71.2038 99.4665H69.3202V93.9773H71.3009C73.0439 93.9773 74.0662 94.7618 74.0662 96.7378C74.0662 98.7151 72.9365 99.4665 71.2038 99.4665ZM79.7601 85.5325V102.668H83.8276V85.5325H79.7601ZM65.2631 85.5325V102.668H71.4414C75.4334 102.668 78.2638 100.627 78.2638 96.5987C78.2638 92.7846 75.735 90.7754 71.5053 90.7754H69.3202V85.5325H65.2631ZM62.8735 88.7344V85.5325H49.2594V88.7344H54.0385V102.668H58.0956V88.7344H62.8735ZM40.8755 99.8006C38.7224 99.8006 37.6259 98.0708 37.6259 94.1164C37.6259 90.1312 38.7875 88.4014 41.08 88.4014C43.297 88.4014 44.3844 90.1312 44.3844 94.0845C44.3844 98.0708 43.2216 99.8006 40.8755 99.8006ZM37.3244 85.5325H33.5676V107.6H37.6259V100.659C38.6585 102.185 40.1548 103.002 41.8978 103.002C45.8476 103.002 48.5809 99.8428 48.5809 94.0845C48.5809 88.3581 45.923 85.1996 42.1023 85.1996C40.1868 85.1996 38.6151 86.081 37.5288 87.7458L37.3244 85.5325ZM26.2391 98.5759C25.7217 99.3274 24.7645 99.9397 23.3333 99.9397C21.6325 99.9397 20.7713 98.9842 20.7713 97.5223C20.7713 95.5782 22.1705 94.869 25.6577 94.869H26.2391V98.5759ZM30.2963 90.9795C30.2963 86.8324 28.1763 85.2634 23.8816 85.2634C21.1916 85.2634 19.0717 86.1129 17.8438 86.8324V90.2064C18.9312 89.3786 21.3207 88.4983 23.4087 88.4983C25.3459 88.4983 26.2391 89.1745 26.2391 91.0229V91.9681H25.5823C19.3721 91.9681 16.617 94.0206 16.617 97.4904C16.617 100.96 18.7267 102.906 21.8701 102.906C24.2585 102.906 25.2808 102.121 26.0666 101.305H26.2391C26.2711 101.745 26.4104 102.325 26.5407 102.668H30.5007C30.3602 101.273 30.2963 99.8758 30.2963 98.479V90.9795ZM11.6347 102.668H16.4457L8.0184 90.2384L15.6599 79H11.4622L4.12229 89.894V79H0V102.668H4.12229V91.5599L11.6347 102.668Z" fill="black"/>
</svg>
